Tektur-Regular.ufo
<glyph name="numbersign" format="2">
  <advance width="820"/>
  <unicode hex="0023"/>
  <outline>
    <contour>
      <point x="210" y="0" type="line"/>
      <point x="298" y="0" type="line"/>
      <point x="298" y="700" type="line"/>
      <point x="210" y="700" type="line"/>
    </contour>
    <contour>
      <point x="512" y="0" type="line"/>
      <point x="600" y="0" type="line"/>
      <point x="600" y="700" type="line"/>
      <point x="512" y="700" type="line"/>
    </contour>
    <contour>
      <point x="760" y="150" type="line"/>
      <point x="760" y="228" type="line"/>
      <point x="60" y="228" type="line"/>
      <point x="60" y="150" type="line"/>
    </contour>
    <contour>
      <point x="760" y="472" type="line"/>
      <point x="760" y="550" type="line"/>
      <point x="60" y="550" type="line"/>
      <point x="60" y="472" type="line"/>
    </contour>
  </outline>
</glyph>
<glyph name="dollar" format="2">
  <advance width="660"/>
  <unicode hex="0024"/>
  <outline>
    <contour>
      <point x="65" y="50" type="line"/>
      <point x="275" y="50" type="line"/>
      <point x="275" y="-60" type="line"/>
      <point x="365" y="-60" type="line"/>
      <point x="365" y="50" type="line"/>
      <point x="513" y="50" type="line"/>
      <point x="600" y="137" type="line"/>
      <point x="600" y="395" type="line"/>
      <point x="150" y="395" type="line"/>
      <point x="150" y="570" type="line"/>
      <point x="580" y="570" type="line"/>
      <point x="580" y="650" type="line"/>
      <point x="395" y="650" type="line"/>
      <point x="395" y="760" type="line"/>
      <point x="305" y="760" type="line"/>
      <point x="305" y="650" type="line"/>
      <point x="150" y="650" type="line"/>
      <point x="60" y="560" type="line"/>
      <point x="60" y="315" type="line"/>
      <point x="510" y="315" type="line"/>
      <point x="510" y="130" type="line"/>
      <point x="65" y="130" type="line"/>
    </contour>
  </outline>
</glyph>
<glyph name="percent" format="2">
  <advance width="600"/>
  <unicode hex="0025"/>
  <outline>
    <contour>
      <point x="30" y="0" type="line"/>
      <point x="129" y="0" type="line"/>
      <point x="570" y="700" type="line"/>
      <point x="471" y="700" type="line"/>
    </contour>
    <contour>
      <point x="470" y="0" type="line"/>
      <point x="560" y="0" type="line"/>
      <point x="560" y="120" type="line"/>
      <point x="470" y="120" type="line"/>
    </contour>
    <contour>
      <point x="40" y="580" type="line"/>
      <point x="130" y="580" type="line"/>
      <point x="130" y="700" type="line"/>
      <point x="40" y="700" type="line"/>
    </contour>
  </outline>
</glyph>
<glyph name="ampersand" format="2">
  <advance width="735"/>
  <unicode hex="0026"/>
  <outline>
    <contour>
      <point x="606" y="0" type="line"/>
      <point x="710" y="0" type="line"/>
      <point x="246" y="624" type="line"/>
      <point x="580" y="624" type="line"/>
      <point x="580" y="700" type="line"/>
      <point x="210" y="700" type="line"/>
      <point x="140" y="630" type="line"/>
    </contour>
    <contour>
      <point x="365" y="360" type="line"/>
      <point x="365" y="440" type="line"/>
      <point x="135" y="440" type="line"/>
      <point x="55" y="360" type="line"/>
      <point x="55" y="80" type="line"/>
      <point x="135" y="0" type="line"/>
      <point x="409" y="0" type="line"/>
      <point x="710" y="460" type="line"/>
      <point x="617" y="460" type="line"/>
      <point x="369" y="80" type="line"/>
      <point x="145" y="80" type="line"/>
      <point x="145" y="360" type="line"/>
    </contour>
  </outline>
</glyph>
<glyph name="quotesingle" format="2">
  <advance width="220"/>
  <unicode hex="0027"/>
  <outline>
    <contour>
      <point x="80" y="460" type="line"/>
      <point x="140" y="460" type="line"/>
      <point x="160" y="700" type="line"/>
      <point x="60" y="700" type="line"/>
    </contour>
  </outline>
</glyph>
<glyph name="parenleft" format="2">
  <advance width="340"/>
  <unicode hex="0028"/>
  <outline>
    <contour>
      <point x="60" y="-60" type="line"/>
      <point x="140" y="-140" type="line"/>
      <point x="320" y="-140" type="line"/>
      <point x="320" y="-60" type="line"/>
      <point x="150" y="-60" type="line"/>
      <point x="150" y="670" type="line"/>
      <point x="320" y="670" type="line"/>
      <point x="320" y="750" type="line"/>
      <point x="140" y="750" type="line"/>
      <point x="60" y="670" type="line"/>
    </contour>
  </outline>
</glyph>
<glyph name="asterisk" format="2">
  <advance width="520"/>
  <unicode hex="002A"/>
  <outline>
    <contour>
      <point x="298" y="240" type="line"/>
      <point x="298" y="403" type="line"/>
      <point x="452" y="310" type="line"/>
      <point x="490" y="375" type="line"/>
      <point x="333" y="470" type="line"/>
      <point x="490" y="565" type="line"/>
      <point x="452" y="630" type="line"/>
      <point x="298" y="537" type="line"/>
      <point x="298" y="700" type="line"/>
      <point x="222" y="700" type="line"/>
      <point x="222" y="537" type="line"/>
      <point x="68" y="630" type="line"/>
      <point x="30" y="565" type="line"/>
      <point x="187" y="470" type="line"/>
      <point x="30" y="375" type="line"/>
      <point x="68" y="310" type="line"/>
      <point x="222" y="403" type="line"/>
      <point x="222" y="240" type="line"/>
    </contour>
  </outline>
</glyph>
<glyph name="comma" format="2">
  <advance width="250"/>
  <unicode hex="002C"/>
  <outline>
    <contour>
      <point x="90" y="0" type="line"/>
      <point x="113" y="0" type="line"/>
      <point x="32" y="-140" type="line"/>
      <point x="104" y="-140" type="line"/>
      <point x="184" y="0" type="line"/>
      <point x="184" y="100" type="line"/>
      <point x="90" y="100" type="line"/>
    </contour>
  </outline>
</glyph>
<glyph name="hyphen" format="2">
  <advance width="340"/>
  <unicode hex="002D"/>
  <outline>
    <contour>
      <point x="40" y="275" type="line"/>
      <point x="300" y="275" type="line"/>
      <point x="300" y="365" type="line"/>
      <point x="40" y="365" type="line"/>
    </contour>
  </outline>
</glyph>
<glyph name="period" format="2">
  <advance width="250"/>
  <unicode hex="002E"/>
  <outline>
    <contour>
      <point x="80" y="0" type="line"/>
      <point x="170" y="0" type="line"/>
      <point x="170" y="100" type="line"/>
      <point x="80" y="100" type="line"/>
    </contour>
  </outline>
</glyph>
<glyph name="one" format="2">
  <advance width="430"/>
  <unicode hex="0031"/>
  <outline>
    <contour>
      <point x="45" y="-4" type="line"/>
      <point x="215" y="4" type="line"/>
      <point x="385" y="-4" type="line"/>
      <point x="385" y="76" type="line"/>
      <point x="270" y="81" type="line"/>
      <point x="270" y="700" type="line"/>
      <point x="55" y="660" type="line"/>
      <point x="55" y="585" type="line"/>
      <point x="180" y="594" type="line"/>
      <point x="180" y="81" type="line"/>
      <point x="45" y="76" type="line"/>
    </contour>
  </outline>
</glyph>
<glyph name="four" format="2">
  <advance width="640"/>
  <unicode hex="0034"/>
  <outline>
    <contour>
      <point x="40" y="180" type="line"/>
      <point x="490" y="180" type="line"/>
      <point x="490" y="0" type="line"/>
      <point x="580" y="0" type="line"/>
      <point x="580" y="700" type="line"/>
      <point x="490" y="700" type="line"/>
      <point x="490" y="260" type="line"/>
      <point x="130" y="260" type="line"/>
      <point x="160" y="700" type="line"/>
      <point x="74" y="700" type="line"/>
    </contour>
  </outline>
</glyph>
<glyph name="five" format="2">
  <advance width="660"/>
  <unicode hex="0035"/>
  <outline>
    <contour>
      <point x="600" y="620" type="line"/>
      <point x="600" y="700" type="line"/>
      <point x="60" y="700" type="line"/>
      <point x="60" y="348" type="line"/>
      <point x="510" y="318" type="line"/>
      <point x="510" y="80" type="line"/>
      <point x="70" y="80" type="line"/>
      <point x="70" y="0" type="line"/>
      <point x="520" y="0" type="line"/>
      <point x="600" y="80" type="line"/>
      <point x="600" y="388" type="line"/>
      <point x="150" y="418" type="line"/>
      <point x="150" y="620" type="line"/>
    </contour>
  </outline>
</glyph>
<glyph name="seven" format="2">
  <advance width="620"/>
  <unicode hex="0037"/>
  <outline>
    <contour>
      <point x="150" y="0" type="line"/>
      <point x="257" y="0" type="line"/>
      <point x="580" y="444" type="line"/>
      <point x="580" y="700" type="line"/>
      <point x="40" y="700" type="line"/>
      <point x="40" y="460" type="line"/>
      <point x="130" y="460" type="line"/>
      <point x="130" y="620" type="line"/>
      <point x="490" y="620" type="line"/>
      <point x="490" y="463" type="line"/>
    </contour>
  </outline>
</glyph>
<glyph name="eight" format="2">
  <advance width="670"/>
  <unicode hex="0038"/>
  <outline>
    <contour>
      <point x="160" y="405" type="line"/>
      <point x="160" y="620" type="line"/>
      <point x="510" y="620" type="line"/>
      <point x="510" y="405" type="line"/>
    </contour>
    <contour>
      <point x="140" y="80" type="line"/>
      <point x="140" y="325" type="line"/>
      <point x="530" y="325" type="line"/>
      <point x="530" y="80" type="line"/>
    </contour>
    <contour>
      <point x="130" y="0" type="line"/>
      <point x="540" y="0" type="line"/>
      <point x="620" y="80" type="line"/>
      <point x="620" y="306" type="line"/>
      <point x="543" y="366" type="line"/>
      <point x="600" y="409" type="line"/>
      <point x="600" y="620" type="line"/>
      <point x="520" y="700" type="line"/>
      <point x="150" y="700" type="line"/>
      <point x="70" y="620" type="line"/>
      <point x="70" y="409" type="line"/>
      <point x="127" y="366" type="line"/>
      <point x="50" y="306" type="line"/>
      <point x="50" y="80" type="line"/>
    </contour>
  </outline>
</glyph>
<glyph name="less" format="2">
  <advance width="600"/>
  <unicode hex="003C"/>
  <outline>
    <contour>
      <point x="30" y="235" type="line"/>
      <point x="560" y="0" type="line"/>
      <point x="560" y="91" type="line"/>
      <point x="125" y="280" type="line"/>
      <point x="560" y="469" type="line"/>
      <point x="560" y="560" type="line"/>
      <point x="30" y="325" type="line"/>
    </contour>
  </outline>
</glyph>
<glyph name="at" format="2">
  <advance width="800"/>
  <unicode hex="0040"/>
  <outline>
    <contour>
      <point x="60" y="-60" type="line"/>
      <point x="140" y="-140" type="line"/>
      <point x="740" y="-140" type="line"/>
      <point x="740" y="-62" type="line"/>
      <point x="148" y="-62" type="line"/>
      <point x="148" y="622" type="line"/>
      <point x="652" y="622" type="line"/>
      <point x="652" y="455" type="line"/>
      <point x="300" y="445" type="line"/>
      <point x="300" y="200" type="line"/>
      <point x="390" y="110" type="line"/>
      <point x="650" y="110" type="line"/>
      <point x="740" y="200" type="line"/>
      <point x="740" y="610" type="line"/>
      <point x="650" y="700" type="line"/>
      <point x="140" y="700" type="line"/>
      <point x="60" y="620" type="line"/>
    </contour>
    <contour>
      <point x="388" y="188" type="line"/>
      <point x="388" y="369" type="line"/>
      <point x="652" y="389" type="line"/>
      <point x="652" y="188" type="line"/>
    </contour>
  </outline>
</glyph>
<glyph name="A" format="2">
  <advance width="650"/>
  <unicode hex="0041"/>
  <anchor x="325" y="0" name="bottom"/>
  <anchor x="585" y="0" name="ogonek"/>
  <anchor x="325" y="700" name="top"/>
  <outline>
    <contour>
      <point x="20" y="0" type="line"/>
      <point x="112" y="0" type="line"/>
      <point x="158" y="180" type="line"/>
      <point x="492" y="180" type="line"/>
      <point x="538" y="0" type="line"/>
      <point x="630" y="0" type="line"/>
      <point x="448" y="700" type="line"/>
      <point x="202" y="700" type="line"/>
    </contour>
    <contour>
      <point x="178" y="258" type="line"/>
      <point x="271" y="622" type="line"/>
      <point x="379" y="622" type="line"/>
      <point x="472" y="258" type="line"/>
    </contour>
  </outline>
</glyph>
<glyph name="B" format="2">
  <advance width="640"/>
  <unicode hex="0042"/>
  <anchor x="300" y="700" name="top"/>
  <anchor x="300" y="0" name="bottom"/>
  <outline>
    <contour>
      <point x="150" y="405" type="line"/>
      <point x="150" y="620" type="line"/>
      <point x="490" y="620" type="line"/>
      <point x="490" y="405" type="line"/>
    </contour>
    <contour>
      <point x="150" y="80" type="line"/>
      <point x="150" y="325" type="line"/>
      <point x="510" y="325" type="line"/>
      <point x="510" y="80" type="line"/>
    </contour>
    <contour>
      <point x="580" y="620" type="line"/>
      <point x="500" y="700" type="line"/>
      <point x="60" y="700" type="line"/>
      <point x="60" y="0" type="line"/>
      <point x="520" y="0" type="line"/>
      <point x="600" y="80" type="line"/>
      <point x="600" y="316" type="line"/>
      <point x="533" y="376" type="line"/>
      <point x="580" y="419" type="line"/>
    </contour>
  </outline>
</glyph>
<glyph name="C" format="2">
  <advance width="550"/>
  <unicode hex="0043"/>
  <anchor x="320" y="700" name="top"/>
  <anchor x="320" y="0" name="bottom"/>
  <outline>
    <contour>
      <point x="60" y="80" type="line"/>
      <point x="140" y="0" type="line"/>
      <point x="520" y="0" type="line"/>
      <point x="520" y="82" type="line"/>
      <point x="150" y="82" type="line"/>
      <point x="150" y="618" type="line"/>
      <point x="510" y="618" type="line"/>
      <point x="510" y="700" type="line"/>
      <point x="140" y="700" type="line"/>
      <point x="60" y="620" type="line"/>
    </contour>
  </outline>
</glyph>
<glyph name="D" format="2">
  <advance width="635"/>
  <unicode hex="0044"/>
  <anchor x="300" y="700" name="top"/>
  <anchor x="300" y="0" name="bottom"/>
  <outline>
    <contour>
      <point x="150" y="80" type="line"/>
      <point x="150" y="620" type="line"/>
      <point x="485" y="620" type="line"/>
      <point x="485" y="80" type="line"/>
    </contour>
    <contour>
      <point x="60" y="0" type="line"/>
      <point x="495" y="0" type="line"/>
      <point x="575" y="80" type="line"/>
      <point x="575" y="620" type="line"/>
      <point x="495" y="700" type="line"/>
      <point x="60" y="700" type="line"/>
    </contour>
  </outline>
</glyph>
<glyph name="E" format="2">
  <advance width="580"/>
  <unicode hex="0045"/>
  <anchor x="290" y="0" name="bottom"/>
  <anchor x="430" y="0" name="ogonek"/>
  <anchor x="290" y="700" name="top"/>
  <outline>
    <contour>
      <point x="60" y="0" type="line"/>
      <point x="550" y="0" type="line"/>
      <point x="550" y="80" type="line"/>
      <point x="150" y="80" type="line"/>
      <point x="150" y="320" type="line"/>
      <point x="490" y="320" type="line"/>
      <point x="490" y="400" type="line"/>
      <point x="150" y="400" type="line"/>
      <point x="150" y="620" type="line"/>
      <point x="540" y="620" type="line"/>
      <point x="540" y="700" type="line"/>
      <point x="60" y="700" type="line"/>
    </contour>
  </outline>
</glyph>
<glyph name="F" format="2">
  <advance width="570"/>
  <unicode hex="0046"/>
  <anchor x="285" y="0" name="bottom"/>
  <anchor x="285" y="700" name="top"/>
  <outline>
    <contour>
      <point x="60" y="0" type="line"/>
      <point x="150" y="0" type="line"/>
      <point x="150" y="260" type="line"/>
      <point x="520" y="260" type="line"/>
      <point x="520" y="340" type="line"/>
      <point x="150" y="340" type="line"/>
      <point x="150" y="620" type="line"/>
      <point x="540" y="620" type="line"/>
      <point x="540" y="700" type="line"/>
      <point x="60" y="700" type="line"/>
    </contour>
  </outline>
</glyph>
<glyph name="G" format="2">
  <advance width="640"/>
  <unicode hex="0047"/>
  <anchor x="360" y="0" name="bottom"/>
  <anchor x="360" y="700" name="top"/>
  <outline>
    <contour>
      <point x="60" y="80" type="line"/>
      <point x="140" y="0" type="line"/>
      <point x="580" y="0" type="line"/>
      <point x="580" y="405" type="line"/>
      <point x="290" y="405" type="line"/>
      <point x="290" y="325" type="line"/>
      <point x="490" y="325" type="line"/>
      <point x="490" y="80" type="line"/>
      <point x="150" y="80" type="line"/>
      <point x="150" y="620" type="line"/>
      <point x="540" y="620" type="line"/>
      <point x="540" y="700" type="line"/>
      <point x="140" y="700" type="line"/>
      <point x="60" y="620" type="line"/>
    </contour>
  </outline>
</glyph>
<glyph name="H" format="2">
  <advance width="670"/>
  <unicode hex="0048"/>
  <anchor x="335" y="0" name="bottom"/>
  <anchor x="335" y="700" name="top"/>
  <outline>
    <contour>
      <point x="60" y="0" type="line"/>
      <point x="150" y="0" type="line"/>
      <point x="150" y="320" type="line"/>
      <point x="520" y="320" type="line"/>
      <point x="520" y="0" type="line"/>
      <point x="610" y="0" type="line"/>
      <point x="610" y="700" type="line"/>
      <point x="520" y="700" type="line"/>
      <point x="520" y="400" type="line"/>
      <point x="150" y="400" type="line"/>
      <point x="150" y="700" type="line"/>
      <point x="60" y="700" type="line"/>
    </contour>
  </outline>
</glyph>
<glyph name="I" format="2">
  <advance width="430"/>
  <unicode hex="0049"/>
  <anchor x="215" y="0" name="bottom"/>
  <anchor x="215" y="701" name="top"/>
  <outline>
    <contour>
      <point x="45" y="-4" type="line"/>
      <point x="215" y="4" type="line"/>
      <point x="385" y="-4" type="line"/>
      <point x="385" y="76" type="line"/>
      <point x="260" y="81" type="line"/>
      <point x="260" y="619" type="line"/>
      <point x="385" y="624" type="line"/>
      <point x="385" y="704" type="line"/>
      <point x="215" y="696" type="line"/>
      <point x="45" y="704" type="line"/>
      <point x="45" y="624" type="line"/>
      <point x="170" y="619" type="line"/>
      <point x="170" y="81" type="line"/>
      <point x="45" y="76" type="line"/>
    </contour>
  </outline>
</glyph>
<glyph name="J" format="2">
  <advance width="620"/>
  <unicode hex="004A"/>
  <anchor x="310" y="0" name="bottom"/>
  <anchor x="310" y="700" name="top"/>
  <outline>
    <contour>
      <point x="60" y="80" type="line"/>
      <point x="140" y="0" type="line"/>
      <point x="480" y="0" type="line"/>
      <point x="560" y="80" type="line"/>
      <point x="560" y="700" type="line"/>
      <point x="80" y="700" type="line"/>
      <point x="80" y="620" type="line"/>
      <point x="470" y="620" type="line"/>
      <point x="470" y="80" type="line"/>
      <point x="150" y="80" type="line"/>
      <point x="150" y="300" type="line"/>
      <point x="60" y="300" type="line"/>
    </contour>
  </outline>
</glyph>
<glyph name="K" format="2">
  <advance width="650"/>
  <unicode hex="004B"/>
  <anchor x="330" y="0" name="bottom"/>
  <anchor x="330" y="700" name="top"/>
  <outline>
    <contour>
      <point x="60" y="0" type="line"/>
      <point x="150" y="0" type="line"/>
      <point x="150" y="315" type="line"/>
      <point x="388" y="315" type="line"/>
      <point x="546" y="0" type="line"/>
      <point x="650" y="0" type="line"/>
      <point x="460" y="370" type="line"/>
      <point x="635" y="700" type="line"/>
      <point x="532" y="700" type="line"/>
      <point x="375" y="395" type="line"/>
      <point x="150" y="395" type="line"/>
      <point x="150" y="700" type="line"/>
      <point x="60" y="700" type="line"/>
    </contour>
  </outline>
</glyph>
<glyph name="L" format="2">
  <advance width="600"/>
  <unicode hex="004C"/>
  <anchor x="315" y="0" name="bottom"/>
  <anchor x="173" y="700" name="top"/>
  <outline>
    <contour>
      <point x="60" y="0" type="line"/>
      <point x="570" y="0" type="line"/>
      <point x="570" y="280" type="line"/>
      <point x="484" y="280" type="line"/>
      <point x="484" y="80" type="line"/>
      <point x="150" y="80" type="line"/>
      <point x="150" y="700" type="line"/>
      <point x="60" y="700" type="line"/>
    </contour>
  </outline>
</glyph>
<glyph name="M" format="2">
  <advance width="780"/>
  <unicode hex="004D"/>
  <anchor x="390" y="700" name="top"/>
  <anchor x="390" y="0" name="bottom"/>
  <outline>
    <contour>
      <point x="60" y="0" type="line"/>
      <point x="148" y="0" type="line"/>
      <point x="148" y="590" type="line"/>
      <point x="360" y="220" type="line"/>
      <point x="420" y="220" type="line"/>
      <point x="632" y="590" type="line"/>
      <point x="632" y="0" type="line"/>
      <point x="720" y="0" type="line"/>
      <point x="720" y="700" type="line"/>
      <point x="606" y="700" type="line"/>
      <point x="390" y="322" type="line"/>
      <point x="174" y="700" type="line"/>
      <point x="60" y="700" type="line"/>
    </contour>
  </outline>
</glyph>
<glyph name="N" format="2">
  <advance width="680"/>
  <unicode hex="004E"/>
  <anchor x="340" y="0" name="bottom"/>
  <anchor x="340" y="700" name="top"/>
  <outline>
    <contour>
      <point x="60" y="0" type="line"/>
      <point x="150" y="0" type="line"/>
      <point x="150" y="595" type="line"/>
      <point x="492" y="0" type="line"/>
      <point x="620" y="0" type="line"/>
      <point x="620" y="700" type="line"/>
      <point x="530" y="700" type="line"/>
      <point x="530" y="105" type="line"/>
      <point x="188" y="700" type="line"/>
      <point x="60" y="700" type="line"/>
    </contour>
  </outline>
</glyph>
<glyph name="O" format="2">
  <advance width="680"/>
  <unicode hex="004F"/>
  <anchor x="340" y="0" name="bottom"/>
  <anchor x="340" y="700" name="top"/>
  <outline>
    <contour>
      <point x="60" y="80" type="line"/>
      <point x="140" y="0" type="line"/>
      <point x="540" y="0" type="line"/>
      <point x="620" y="80" type="line"/>
      <point x="620" y="620" type="line"/>
      <point x="540" y="700" type="line"/>
      <point x="140" y="700" type="line"/>
      <point x="60" y="620" type="line"/>
    </contour>
    <contour>
      <point x="150" y="620" type="line"/>
      <point x="530" y="620" type="line"/>
      <point x="530" y="80" type="line"/>
      <point x="150" y="80" type="line"/>
    </contour>
  </outline>
</glyph>
<glyph name="P" format="2">
  <advance width="620"/>
  <unicode hex="0050"/>
  <anchor x="300" y="700" name="top"/>
  <anchor x="220" y="0" name="bottom"/>
  <outline>
    <contour>
      <point x="150" y="230" type="line"/>
      <point x="150" y="620" type="line"/>
      <point x="490" y="620" type="line"/>
      <point x="490" y="230" type="line"/>
    </contour>
    <contour>
      <point x="580" y="620" type="line"/>
      <point x="500" y="700" type="line"/>
      <point x="60" y="700" type="line"/>
      <point x="60" y="0" type="line"/>
      <point x="150" y="0" type="line"/>
      <point x="150" y="150" type="line"/>
      <point x="500" y="150" type="line"/>
      <point x="580" y="230" type="line"/>
    </contour>
  </outline>
</glyph>
<glyph name="Q" format="2">
  <advance width="680"/>
  <unicode hex="0051"/>
  <anchor x="340" y="700" name="top"/>
  <anchor x="340" y="0" name="bottom"/>
  <outline>
    <contour>
      <point x="60" y="80" type="line"/>
      <point x="140" y="0" type="line"/>
      <point x="660" y="-90" type="line"/>
      <point x="660" y="-9" type="line"/>
      <point x="150" y="79" type="line"/>
      <point x="150" y="620" type="line"/>
      <point x="530" y="620" type="line"/>
      <point x="530" y="-9" type="line"/>
      <point x="620" y="60" type="line"/>
      <point x="620" y="620" type="line"/>
      <point x="540" y="700" type="line"/>
      <point x="140" y="700" type="line"/>
      <point x="60" y="620" type="line"/>
    </contour>
  </outline>
</glyph>
<glyph name="R" format="2">
  <advance width="660"/>
  <unicode hex="0052"/>
  <anchor x="335" y="0" name="bottom"/>
  <anchor x="320" y="700" name="top"/>
  <outline>
    <contour>
      <point x="150" y="320" type="line"/>
      <point x="150" y="620" type="line"/>
      <point x="510" y="620" type="line"/>
      <point x="510" y="320" type="line"/>
    </contour>
    <contour>
      <point x="600" y="620" type="line"/>
      <point x="520" y="700" type="line"/>
      <point x="60" y="700" type="line"/>
      <point x="60" y="0" type="line"/>
      <point x="150" y="0" type="line"/>
      <point x="150" y="240" type="line"/>
      <point x="454" y="240" type="line"/>
      <point x="553" y="0" type="line"/>
      <point x="650" y="0" type="line"/>
      <point x="544" y="254" type="line"/>
      <point x="600" y="310" type="line"/>
    </contour>
  </outline>
</glyph>
<glyph name="S" format="2">
  <advance width="640"/>
  <unicode hex="0053"/>
  <anchor x="320" y="0" name="bottom"/>
  <anchor x="320" y="700" name="top"/>
  <outline>
    <contour>
      <point x="70" y="0" type="line"/>
      <point x="500" y="0" type="line"/>
      <point x="580" y="80" type="line"/>
      <point x="580" y="374" type="line"/>
      <point x="150" y="407" type="line"/>
      <point x="150" y="620" type="line"/>
      <point x="570" y="620" type="line"/>
      <point x="570" y="700" type="line"/>
      <point x="140" y="700" type="line"/>
      <point x="60" y="620" type="line"/>
      <point x="60" y="336" type="line"/>
      <point x="490" y="303" type="line"/>
      <point x="490" y="80" type="line"/>
      <point x="70" y="80" type="line"/>
    </contour>
  </outline>
</glyph>
<glyph name="T" format="2">
  <advance width="560"/>
  <unicode hex="0054"/>
  <anchor x="280" y="700" name="top"/>
  <anchor x="280" y="0" name="bottom"/>
  <outline>
    <contour>
      <point x="235" y="0" type="line"/>
      <point x="325" y="0" type="line"/>
      <point x="325" y="620" type="line"/>
      <point x="540" y="620" type="line"/>
      <point x="540" y="700" type="line"/>
      <point x="20" y="700" type="line"/>
      <point x="20" y="620" type="line"/>
      <point x="235" y="620" type="line"/>
    </contour>
  </outline>
</glyph>
<glyph name="U" format="2">
  <advance width="650"/>
  <unicode hex="0055"/>
  <anchor x="325" y="0" name="bottom"/>
  <anchor x="325" y="700" name="top"/>
  <outline>
    <contour>
      <point x="60" y="80" type="line"/>
      <point x="140" y="0" type="line"/>
      <point x="510" y="0" type="line"/>
      <point x="590" y="80" type="line"/>
      <point x="590" y="700" type="line"/>
      <point x="500" y="700" type="line"/>
      <point x="500" y="80" type="line"/>
      <point x="150" y="80" type="line"/>
      <point x="150" y="700" type="line"/>
      <point x="60" y="700" type="line"/>
    </contour>
  </outline>
</glyph>
<glyph name="V" format="2">
  <advance width="650"/>
  <unicode hex="0056"/>
  <anchor x="325" y="700" name="top"/>
  <anchor x="325" y="0" name="bottom"/>
  <outline>
    <contour>
      <point x="202" y="0" type="line"/>
      <point x="448" y="0" type="line"/>
      <point x="630" y="700" type="line"/>
      <point x="538" y="700" type="line"/>
      <point x="379" y="80" type="line"/>
      <point x="271" y="80" type="line"/>
      <point x="112" y="700" type="line"/>
      <point x="20" y="700" type="line"/>
    </contour>
  </outline>
</glyph>
<glyph name="W" format="2">
  <advance width="860"/>
  <unicode hex="0057"/>
  <anchor x="430" y="700" name="top"/>
  <anchor x="430" y="0" name="bottom"/>
  <outline>
    <contour>
      <point x="132" y="0" type="line"/>
      <point x="339" y="0" type="line"/>
      <point x="430" y="488" type="line"/>
      <point x="521" y="0" type="line"/>
      <point x="728" y="0" type="line"/>
      <point x="840" y="700" type="line"/>
      <point x="751" y="700" type="line"/>
      <point x="654" y="80" type="line"/>
      <point x="590" y="80" type="line"/>
      <point x="492" y="590" type="line"/>
      <point x="368" y="590" type="line"/>
      <point x="270" y="80" type="line"/>
      <point x="206" y="80" type="line"/>
      <point x="109" y="700" type="line"/>
      <point x="20" y="700" type="line"/>
    </contour>
  </outline>
</glyph>
<glyph name="X" format="2">
  <advance width="660"/>
  <unicode hex="0058"/>
  <anchor x="330" y="0" name="bottom"/>
  <anchor x="330" y="700" name="top"/>
  <outline>
    <contour>
      <point x="20" y="0" type="line"/>
      <point x="118" y="0" type="line"/>
      <point x="270" y="320" type="line"/>
      <point x="390" y="320" type="line"/>
      <point x="542" y="0" type="line"/>
      <point x="640" y="0" type="line"/>
      <point x="460" y="370" type="line"/>
      <point x="625" y="700" type="line"/>
      <point x="527" y="700" type="line"/>
      <point x="380" y="400" type="line"/>
      <point x="280" y="400" type="line"/>
      <point x="133" y="700" type="line"/>
      <point x="35" y="700" type="line"/>
      <point x="200" y="370" type="line"/>
    </contour>
  </outline>
</glyph>
<glyph name="Y" format="2">
  <advance width="640"/>
  <unicode hex="0059"/>
  <anchor x="320" y="700" name="top"/>
  <anchor x="320" y="0" name="bottom"/>
  <outline>
    <contour>
      <point x="275" y="0" type="line"/>
      <point x="365" y="0" type="line"/>
      <point x="365" y="210" type="line"/>
      <point x="453" y="210" type="line"/>
      <point x="615" y="700" type="line"/>
      <point x="520" y="700" type="line"/>
      <point x="390" y="288" type="line"/>
      <point x="250" y="288" type="line"/>
      <point x="120" y="700" type="line"/>
      <point x="25" y="700" type="line"/>
      <point x="187" y="210" type="line"/>
      <point x="275" y="210" type="line"/>
    </contour>
  </outline>
</glyph>
<glyph name="Z" format="2">
  <advance width="560"/>
  <unicode hex="005A"/>
  <anchor x="280" y="700" name="top"/>
  <anchor x="280" y="0" name="bottom"/>
  <outline>
    <contour>
      <point x="50" y="0" type="line"/>
      <point x="510" y="0" type="line"/>
      <point x="510" y="80" type="line"/>
      <point x="155" y="80" type="line"/>
      <point x="510" y="630" type="line"/>
      <point x="510" y="700" type="line"/>
      <point x="50" y="700" type="line"/>
      <point x="50" y="620" type="line"/>
      <point x="405" y="620" type="line"/>
      <point x="50" y="70" type="line"/>
    </contour>
  </outline>
</glyph>
<glyph name="bracketleft" format="2">
  <advance width="340"/>
  <unicode hex="005B"/>
  <outline>
    <contour>
      <point x="60" y="-140" type="line"/>
      <point x="320" y="-140" type="line"/>
      <point x="320" y="-60" type="line"/>
      <point x="150" y="-60" type="line"/>
      <point x="150" y="670" type="line"/>
      <point x="320" y="670" type="line"/>
      <point x="320" y="750" type="line"/>
      <point x="60" y="750" type="line"/>
    </contour>
  </outline>
</glyph>
<glyph name="asciicircum" format="2">
  <advance width="500"/>
  <unicode hex="005E"/>
  <outline>
    <contour>
      <point x="13" y="350" type="line"/>
      <point x="106" y="350" type="line"/>
      <point x="250" y="625" type="line"/>
      <point x="394" y="350" type="line"/>
      <point x="487" y="350" type="line"/>
      <point x="295" y="700" type="line"/>
      <point x="205" y="700" type="line"/>
    </contour>
  </outline>
</glyph>
<glyph name="underscore" format="2">
  <advance width="600"/>
  <unicode hex="005F"/>
  <outline>
    <contour>
      <point x="40" y="-80" type="line"/>
      <point x="560" y="-80" type="line"/>
      <point x="560" y="0" type="line"/>
      <point x="40" y="0" type="line"/>
    </contour>
  </outline>
</glyph>
<glyph name="a" format="2">
  <advance width="600"/>
  <unicode hex="0061"/>
  <anchor x="285" y="0" name="bottom"/>
  <anchor x="470" y="0" name="ogonek"/>
  <anchor x="285" y="560" name="top"/>
  <outline>
    <contour>
      <point x="50" y="90" type="line"/>
      <point x="140" y="0" type="line"/>
      <point x="540" y="0" type="line"/>
      <point x="540" y="470" type="line"/>
      <point x="450" y="560" type="line"/>
      <point x="70" y="560" type="line"/>
      <point x="70" y="480" type="line"/>
      <point x="450" y="480" type="line"/>
      <point x="450" y="330" type="line"/>
      <point x="50" y="320" type="line"/>
    </contour>
    <contour>
      <point x="140" y="240" type="line"/>
      <point x="450" y="260" type="line"/>
      <point x="450" y="80" type="line"/>
      <point x="140" y="80" type="line"/>
    </contour>
  </outline>
</glyph>
<glyph name="b" format="2">
  <advance width="620"/>
  <unicode hex="0062"/>
  <anchor x="280" y="0" name="bottom"/>
  <anchor x="280" y="700" name="top"/>
  <outline>
    <contour>
      <point x="60" y="0" type="line"/>
      <point x="475" y="0" type="line"/>
      <point x="565" y="90" type="line"/>
      <point x="565" y="470" type="line"/>
      <point x="475" y="560" type="line"/>
      <point x="150" y="560" type="line"/>
      <point x="150" y="700" type="line"/>
      <point x="60" y="700" type="line"/>
    </contour>
    <contour>
      <point x="150" y="80" type="line"/>
      <point x="150" y="480" type="line"/>
      <point x="475" y="480" type="line"/>
      <point x="475" y="80" type="line"/>
    </contour>
  </outline>
</glyph>
<glyph name="c" format="2">
  <advance width="545"/>
  <unicode hex="0063"/>
  <anchor x="335" y="0" name="bottom"/>
  <anchor x="335" y="560" name="top"/>
  <outline>
    <contour>
      <point x="55" y="90" type="line"/>
      <point x="145" y="0" type="line"/>
      <point x="515" y="0" type="line"/>
      <point x="515" y="80" type="line"/>
      <point x="145" y="80" type="line"/>
      <point x="145" y="480" type="line"/>
      <point x="515" y="480" type="line"/>
      <point x="515" y="560" type="line"/>
      <point x="145" y="560" type="line"/>
      <point x="55" y="470" type="line"/>
    </contour>
  </outline>
</glyph>
<glyph name="d" format="2">
  <advance width="620"/>
  <unicode hex="0064"/>
  <anchor x="340" y="700" name="top"/>
  <anchor x="340" y="0" name="bottom"/>
  <outline>
    <contour>
      <point x="560" y="700" type="line"/>
      <point x="470" y="700" type="line"/>
      <point x="470" y="560" type="line"/>
      <point x="145" y="560" type="line"/>
      <point x="55" y="470" type="line"/>
      <point x="55" y="90" type="line"/>
      <point x="145" y="0" type="line"/>
      <point x="560" y="0" type="line"/>
    </contour>
    <contour>
      <point x="145" y="80" type="line"/>
      <point x="145" y="480" type="line"/>
      <point x="470" y="480" type="line"/>
      <point x="470" y="80" type="line"/>
    </contour>
  </outline>
</glyph>
<glyph name="e" format="2">
  <advance width="590"/>
  <unicode hex="0065"/>
  <anchor x="310" y="560" name="top"/>
  <anchor x="425" y="0" name="ogonek"/>
  <anchor x="310" y="0" name="bottom"/>
  <outline>
    <contour>
      <point x="55" y="90" type="line"/>
      <point x="145" y="0" type="line"/>
      <point x="515" y="0" type="line"/>
      <point x="515" y="80" type="line"/>
      <point x="145" y="80" type="line"/>
      <point x="145" y="250" type="line"/>
      <point x="535" y="250" type="line"/>
      <point x="535" y="560" type="line"/>
      <point x="145" y="560" type="line"/>
      <point x="55" y="470" type="line"/>
    </contour>
    <contour>
      <point x="145" y="320" type="line"/>
      <point x="145" y="480" type="line"/>
      <point x="449" y="480" type="line"/>
      <point x="449" y="330" type="line"/>
    </contour>
  </outline>
</glyph>
<glyph name="f" format="2">
  <advance width="410"/>
  <unicode hex="0066"/>
  <anchor x="240" y="700" name="top"/>
  <anchor x="240" y="0" name="bottom"/>
  <outline>
    <contour>
      <point x="60" y="0" type="line"/>
      <point x="150" y="0" type="line"/>
      <point x="150" y="350" type="line"/>
      <point x="390" y="350" type="line"/>
      <point x="390" y="430" type="line"/>
      <point x="150" y="430" type="line"/>
      <point x="150" y="620" type="line"/>
      <point x="390" y="620" type="line"/>
      <point x="390" y="700" type="line"/>
      <point x="150" y="700" type="line"/>
      <point x="60" y="610" type="line"/>
    </contour>
  </outline>
</glyph>
<glyph name="g" format="2">
  <advance width="610"/>
  <unicode hex="0067"/>
  <anchor x="315" y="560" name="top"/>
  <anchor x="285" y="-160" name="bottom"/>
  <outline>
    <contour>
      <point x="90" y="-140" type="line"/>
      <point x="456" y="-140" type="line"/>
      <point x="550" y="-46" type="line"/>
      <point x="550" y="560" type="line"/>
      <point x="155" y="560" type="line"/>
      <point x="55" y="470" type="line"/>
      <point x="55" y="170" type="line"/>
      <point x="145" y="80" type="line"/>
      <point x="460" y="80" type="line"/>
      <point x="460" y="-60" type="line"/>
      <point x="90" y="-60" type="line"/>
    </contour>
    <contour>
      <point x="145" y="480" type="line"/>
      <point x="460" y="480" type="line"/>
      <point x="460" y="160" type="line"/>
      <point x="145" y="160" type="line"/>
    </contour>
  </outline>
</glyph>
<glyph name="h" format="2">
  <advance width="620"/>
  <unicode hex="0068"/>
  <anchor x="240" y="700" name="top"/>
  <anchor x="310" y="0" name="bottom"/>
  <outline>
    <contour>
      <point x="60" y="0" type="line"/>
      <point x="150" y="0" type="line"/>
      <point x="150" y="480" type="line"/>
      <point x="470" y="480" type="line"/>
      <point x="470" y="0" type="line"/>
      <point x="560" y="0" type="line"/>
      <point x="560" y="470" type="line"/>
      <point x="470" y="560" type="line"/>
      <point x="150" y="560" type="line"/>
      <point x="150" y="700" type="line"/>
      <point x="60" y="700" type="line"/>
    </contour>
  </outline>
</glyph>
<glyph name="i" format="2">
  <advance width="210"/>
  <unicode hex="0069"/>
  <anchor x="105" y="0" name="bottom"/>
  <anchor x="105" y="710" name="top"/>
  <outline>
    <contour>
      <point x="60" y="0" type="line"/>
      <point x="150" y="0" type="line"/>
      <point x="150" y="560" type="line"/>
      <point x="60" y="560" type="line"/>
    </contour>
    <contour>
      <point x="60" y="630" type="line"/>
      <point x="150" y="630" type="line"/>
      <point x="150" y="710" type="line"/>
      <point x="60" y="710" type="line"/>
    </contour>
  </outline>
</glyph>
<glyph name="j" format="2">
  <advance width="210"/>
  <unicode hex="006A"/>
  <anchor x="105" y="710" name="top"/>
  <outline>
    <contour>
      <point x="60" y="-160" type="line"/>
      <point x="150" y="-160" type="line"/>
      <point x="150" y="560" type="line"/>
      <point x="60" y="560" type="line"/>
    </contour>
    <contour>
      <point x="60" y="630" type="line"/>
      <point x="150" y="630" type="line"/>
      <point x="150" y="710" type="line"/>
      <point x="60" y="710" type="line"/>
    </contour>
  </outline>
</glyph>
<glyph name="k" format="2">
  <advance width="620"/>
  <unicode hex="006B"/>
  <anchor x="330" y="0" name="bottom"/>
  <anchor x="280" y="700" name="top"/>
  <outline>
    <contour>
      <point x="60" y="0" type="line"/>
      <point x="150" y="0" type="line"/>
      <point x="150" y="251" type="line"/>
      <point x="357" y="251" type="line"/>
      <point x="508" y="0" type="line"/>
      <point x="610" y="0" type="line"/>
      <point x="425" y="302" type="line"/>
      <point x="602" y="560" type="line"/>
      <point x="498" y="560" type="line"/>
      <point x="344" y="331" type="line"/>
      <point x="150" y="331" type="line"/>
      <point x="150" y="700" type="line"/>
      <point x="60" y="700" type="line"/>
    </contour>
  </outline>
</glyph>
<glyph name="l" format="2">
  <advance width="210"/>
  <unicode hex="006C"/>
  <anchor x="105" y="0" name="bottom"/>
  <anchor x="105" y="700" name="top"/>
  <outline>
    <contour>
      <point x="60" y="0" type="line"/>
      <point x="150" y="0" type="line"/>
      <point x="150" y="700" type="line"/>
      <point x="60" y="700" type="line"/>
    </contour>
  </outline>
</glyph>
<glyph name="m" format="2">
  <advance width="920"/>
  <unicode hex="006D"/>
  <anchor x="460" y="0" name="bottom"/>
  <anchor x="460" y="560" name="top"/>
  <outline>
    <contour>
      <point x="60" y="560" type="line"/>
      <point x="60" y="0" type="line"/>
      <point x="150" y="0" type="line"/>
      <point x="150" y="480" type="line"/>
      <point x="415" y="480" type="line"/>
      <point x="415" y="0" type="line"/>
      <point x="505" y="0" type="line"/>
      <point x="505" y="480" type="line"/>
      <point x="770" y="480" type="line"/>
      <point x="770" y="0" type="line"/>
      <point x="860" y="0" type="line"/>
      <point x="860" y="460" type="line"/>
      <point x="760" y="560" type="line"/>
    </contour>
  </outline>
</glyph>
<glyph name="n" format="2">
  <advance width="620"/>
  <unicode hex="006E"/>
  <anchor x="310" y="560" name="top"/>
  <anchor x="310" y="0" name="bottom"/>
  <outline>
    <contour>
      <point x="60" y="0" type="line"/>
      <point x="150" y="0" type="line"/>
      <point x="150" y="480" type="line"/>
      <point x="470" y="480" type="line"/>
      <point x="470" y="0" type="line"/>
      <point x="560" y="0" type="line"/>
      <point x="560" y="470" type="line"/>
      <point x="470" y="560" type="line"/>
      <point x="60" y="560" type="line"/>
    </contour>
  </outline>
</glyph>
<glyph name="o" format="2">
  <advance width="600"/>
  <unicode hex="006F"/>
  <anchor x="300" y="560" name="top"/>
  <anchor x="300" y="0" name="bottom"/>
  <outline>
    <contour>
      <point x="55" y="90" type="line"/>
      <point x="145" y="0" type="line"/>
      <point x="455" y="0" type="line"/>
      <point x="545" y="90" type="line"/>
      <point x="545" y="470" type="line"/>
      <point x="455" y="560" type="line"/>
      <point x="145" y="560" type="line"/>
      <point x="55" y="470" type="line"/>
    </contour>
    <contour>
      <point x="145" y="80" type="line"/>
      <point x="145" y="480" type="line"/>
      <point x="455" y="480" type="line"/>
      <point x="455" y="80" type="line"/>
    </contour>
  </outline>
</glyph>
<glyph name="q" format="2">
  <advance width="620"/>
  <unicode hex="0071"/>
  <anchor x="340" y="-140" name="bottom"/>
  <anchor x="320" y="560" name="top"/>
  <outline>
    <contour>
      <point x="560" y="560" type="line"/>
      <point x="145" y="560" type="line"/>
      <point x="55" y="470" type="line"/>
      <point x="55" y="90" type="line"/>
      <point x="145" y="0" type="line"/>
      <point x="470" y="0" type="line"/>
      <point x="470" y="-140" type="line"/>
      <point x="560" y="-140" type="line"/>
    </contour>
    <contour>
      <point x="470" y="480" type="line"/>
      <point x="470" y="80" type="line"/>
      <point x="145" y="80" type="line"/>
      <point x="145" y="480" type="line"/>
    </contour>
  </outline>
</glyph>
<glyph name="r" format="2">
  <advance width="470"/>
  <unicode hex="0072"/>
  <anchor x="105" y="0" name="bottom"/>
  <anchor x="260" y="560" name="top"/>
  <outline>
    <contour>
      <point x="60" y="0" type="line"/>
      <point x="150" y="0" type="line"/>
      <point x="150" y="480" type="line"/>
      <point x="450" y="480" type="line"/>
      <point x="450" y="560" type="line"/>
      <point x="150" y="560" type="line"/>
      <point x="60" y="470" type="line"/>
    </contour>
  </outline>
</glyph>
<glyph name="s" format="2">
  <advance width="600"/>
  <unicode hex="0073"/>
  <anchor x="320" y="560" name="top"/>
  <anchor x="280" y="0" name="bottom"/>
  <outline>
    <contour>
      <point x="55" y="0" type="line"/>
      <point x="458" y="0" type="line"/>
      <point x="545" y="87" type="line"/>
      <point x="545" y="325" type="line"/>
      <point x="145" y="325" type="line"/>
      <point x="145" y="480" type="line"/>
      <point x="545" y="480" type="line"/>
      <point x="545" y="560" type="line"/>
      <point x="145" y="560" type="line"/>
      <point x="55" y="470" type="line"/>
      <point x="55" y="245" type="line"/>
      <point x="455" y="245" type="line"/>
      <point x="455" y="80" type="line"/>
      <point x="55" y="80" type="line"/>
    </contour>
  </outline>
</glyph>
<glyph name="t" format="2">
  <advance width="430"/>
  <unicode hex="0074"/>
  <anchor x="260" y="0" name="bottom"/>
  <anchor x="260" y="700" name="top"/>
  <outline>
    <contour>
      <point x="60" y="650" type="line"/>
      <point x="60" y="90" type="line"/>
      <point x="150" y="0" type="line"/>
      <point x="410" y="0" type="line"/>
      <point x="410" y="80" type="line"/>
      <point x="150" y="80" type="line"/>
      <point x="150" y="460" type="line"/>
      <point x="410" y="460" type="line"/>
      <point x="410" y="540" type="line"/>
      <point x="150" y="540" type="line"/>
      <point x="150" y="700" type="line"/>
    </contour>
  </outline>
</glyph>
<glyph name="u" format="2">
  <advance width="620"/>
  <unicode hex="0075"/>
  <anchor x="310" y="560" name="top"/>
  <anchor x="310" y="0" name="bottom"/>
  <anchor x="485" y="0" name="ogonek"/>
  <outline>
    <contour>
      <point x="560" y="560" type="line"/>
      <point x="470" y="560" type="line"/>
      <point x="470" y="80" type="line"/>
      <point x="150" y="80" type="line"/>
      <point x="150" y="560" type="line"/>
      <point x="60" y="560" type="line"/>
      <point x="60" y="90" type="line"/>
      <point x="150" y="0" type="line"/>
      <point x="560" y="0" type="line"/>
    </contour>
  </outline>
</glyph>
<glyph name="v" format="2">
  <advance width="580"/>
  <unicode hex="0076"/>
  <anchor x="290" y="0" name="bottom"/>
  <anchor x="290" y="560" name="top"/>
  <outline>
    <contour>
      <point x="169" y="0" type="line"/>
      <point x="411" y="0" type="line"/>
      <point x="569" y="560" type="line"/>
      <point x="478" y="560" type="line"/>
      <point x="345" y="80" type="line"/>
      <point x="235" y="80" type="line"/>
      <point x="102" y="560" type="line"/>
      <point x="11" y="560" type="line"/>
    </contour>
  </outline>
</glyph>
<glyph name="w" format="2">
  <advance width="840"/>
  <unicode hex="0077"/>
  <anchor x="420" y="0" name="bottom"/>
  <anchor x="420" y="560" name="top"/>
  <outline>
    <contour>
      <point x="132" y="0" type="line"/>
      <point x="329" y="0" type="line"/>
      <point x="420" y="408" type="line"/>
      <point x="511" y="0" type="line"/>
      <point x="708" y="0" type="line"/>
      <point x="800" y="560" type="line"/>
      <point x="711" y="560" type="line"/>
      <point x="634" y="80" type="line"/>
      <point x="580" y="80" type="line"/>
      <point x="482" y="510" type="line"/>
      <point x="358" y="510" type="line"/>
      <point x="260" y="80" type="line"/>
      <point x="206" y="80" type="line"/>
      <point x="129" y="560" type="line"/>
      <point x="40" y="560" type="line"/>
    </contour>
  </outline>
</glyph>
<glyph name="x" format="2">
  <advance width="630"/>
  <unicode hex="0078"/>
  <anchor x="315" y="560" name="top"/>
  <anchor x="315" y="0" name="bottom"/>
  <outline>
    <contour>
      <point x="25" y="0" type="line"/>
      <point x="126" y="0" type="line"/>
      <point x="255" y="250" type="line"/>
      <point x="375" y="250" type="line"/>
      <point x="504" y="0" type="line"/>
      <point x="605" y="0" type="line"/>
      <point x="445" y="300" type="line"/>
      <point x="590" y="560" type="line"/>
      <point x="489" y="560" type="line"/>
      <point x="365" y="330" type="line"/>
      <point x="265" y="330" type="line"/>
      <point x="141" y="560" type="line"/>
      <point x="40" y="560" type="line"/>
      <point x="185" y="300" type="line"/>
    </contour>
  </outline>
</glyph>
<glyph name="y" format="2">
  <advance width="600"/>
  <unicode hex="0079"/>
  <anchor x="236" y="-160" name="bottom"/>
  <anchor x="300" y="560" name="top"/>
  <outline>
    <contour>
      <point x="41" y="-160" type="line"/>
      <point x="365" y="-160" type="line"/>
      <point x="589" y="560" type="line"/>
      <point x="498" y="560" type="line"/>
      <point x="369" y="140" type="line"/>
      <point x="238" y="140" type="line"/>
      <point x="102" y="560" type="line"/>
      <point x="11" y="560" type="line"/>
      <point x="174" y="60" type="line"/>
      <point x="345" y="60" type="line"/>
      <point x="302" y="-80" type="line"/>
      <point x="41" y="-80" type="line"/>
    </contour>
  </outline>
</glyph>
<glyph name="z" format="2">
  <advance width="530"/>
  <unicode hex="007A"/>
  <anchor x="265" y="0" name="bottom"/>
  <anchor x="265" y="560" name="top"/>
  <outline>
    <contour>
      <point x="30" y="0" type="line"/>
      <point x="500" y="0" type="line"/>
      <point x="500" y="80" type="line"/>
      <point x="142" y="80" type="line"/>
      <point x="495" y="500" type="line"/>
      <point x="495" y="560" type="line"/>
      <point x="37" y="560" type="line"/>
      <point x="37" y="480" type="line"/>
      <point x="383" y="480" type="line"/>
      <point x="30" y="60" type="line"/>
    </contour>
  </outline>
</glyph>
<glyph name="braceleft" format="2">
  <advance width="400"/>
  <unicode hex="007B"/>
  <outline>
    <contour>
      <point x="120" y="-60" type="line"/>
      <point x="200" y="-140" type="line"/>
      <point x="380" y="-140" type="line"/>
      <point x="380" y="-60" type="line"/>
      <point x="210" y="-60" type="line"/>
      <point x="210" y="245" type="line"/>
      <point x="150" y="305" type="line"/>
      <point x="210" y="365" type="line"/>
      <point x="210" y="670" type="line"/>
      <point x="380" y="670" type="line"/>
      <point x="380" y="750" type="line"/>
      <point x="200" y="750" type="line"/>
      <point x="120" y="670" type="line"/>
      <point x="120" y="345" type="line"/>
      <point x="20" y="345" type="line"/>
      <point x="20" y="265" type="line"/>
      <point x="120" y="265" type="line"/>
    </contour>
  </outline>
</glyph>
<glyph name="bar" format="2">
  <advance width="210"/>
  <unicode hex="007C"/>
  <outline>
    <contour>
      <point x="60" y="-140" type="line"/>
      <point x="150" y="-140" type="line"/>
      <point x="150" y="760" type="line"/>
      <point x="60" y="760" type="line"/>
    </contour>
  </outline>
</glyph>
<glyph name="asciitilde" format="2">
  <advance width="600"/>
  <unicode hex="007E"/>
  <outline>
    <contour>
      <point x="40" y="252" type="line"/>
      <point x="156" y="345" type="line"/>
      <point x="450" y="220" type="line"/>
      <point x="580" y="333" type="line"/>
      <point x="560" y="408" type="line"/>
      <point x="444" y="315" type="line"/>
      <point x="150" y="440" type="line"/>
      <point x="20" y="327" type="line"/>
    </contour>
  </outline>
</glyph>
<glyph name="cent" format="2">
  <advance width="545"/>
  <unicode hex="00A2"/>
  <outline>
    <contour>
      <point x="55" y="160" type="line"/>
      <point x="145" y="70" type="line"/>
      <point x="269" y="70" type="line"/>
      <point x="269" y="-40" type="line"/>
      <point x="351" y="-40" type="line"/>
      <point x="351" y="70" type="line"/>
      <point x="515" y="70" type="line"/>
      <point x="515" y="150" type="line"/>
      <point x="145" y="150" type="line"/>
      <point x="145" y="550" type="line"/>
      <point x="515" y="550" type="line"/>
      <point x="515" y="630" type="line"/>
      <point x="351" y="630" type="line"/>
      <point x="351" y="740" type="line"/>
      <point x="269" y="740" type="line"/>
      <point x="269" y="630" type="line"/>
      <point x="145" y="630" type="line"/>
      <point x="55" y="540" type="line"/>
    </contour>
  </outline>
</glyph>
<glyph name="sterling" format="2">
  <advance width="650"/>
  <unicode hex="00A3"/>
  <outline>
    <contour>
      <point x="460" y="300" type="line"/>
      <point x="460" y="380" type="line"/>
      <point x="270" y="380" type="line"/>
      <point x="270" y="620" type="line"/>
      <point x="506" y="620" type="line"/>
      <point x="506" y="500" type="line"/>
      <point x="590" y="500" type="line"/>
      <point x="590" y="700" type="line"/>
      <point x="260" y="700" type="line"/>
      <point x="180" y="620" type="line"/>
      <point x="180" y="380" type="line"/>
      <point x="70" y="380" type="line"/>
      <point x="70" y="300" type="line"/>
      <point x="180" y="300" type="line"/>
      <point x="180" y="80" type="line"/>
      <point x="30" y="80" type="line"/>
      <point x="30" y="0" type="line"/>
      <point x="620" y="0" type="line"/>
      <point x="620" y="80" type="line"/>
      <point x="270" y="80" type="line"/>
      <point x="270" y="300" type="line"/>
    </contour>
  </outline>
</glyph>
<glyph name="currency" format="2">
  <advance width="630"/>
  <unicode hex="00A4"/>
  <outline>
    <contour>
      <point x="120" y="240" type="line"/>
      <point x="175" y="185" type="line"/>
      <point x="40" y="0" type="line"/>
      <point x="141" y="0" type="line"/>
      <point x="253" y="160" type="line"/>
      <point x="377" y="160" type="line"/>
      <point x="489" y="0" type="line"/>
      <point x="590" y="0" type="line"/>
      <point x="455" y="185" type="line"/>
      <point x="510" y="240" type="line"/>
      <point x="510" y="460" type="line"/>
      <point x="455" y="515" type="line"/>
      <point x="590" y="700" type="line"/>
      <point x="489" y="700" type="line"/>
      <point x="377" y="540" type="line"/>
      <point x="253" y="540" type="line"/>
      <point x="141" y="700" type="line"/>
      <point x="40" y="700" type="line"/>
      <point x="175" y="515" type="line"/>
      <point x="120" y="460" type="line"/>
    </contour>
    <contour>
      <point x="210" y="230" type="line"/>
      <point x="210" y="470" type="line"/>
      <point x="420" y="470" type="line"/>
      <point x="420" y="230" type="line"/>
    </contour>
  </outline>
</glyph>
<glyph name="yen" format="2">
  <advance width="640"/>
  <unicode hex="00A5"/>
  <outline>
    <contour>
      <point x="275" y="0" type="line"/>
      <point x="365" y="0" type="line"/>
      <point x="365" y="112" type="line"/>
      <point x="600" y="112" type="line"/>
      <point x="600" y="190" type="line"/>
      <point x="365" y="190" type="line"/>
      <point x="365" y="262" type="line"/>
      <point x="600" y="262" type="line"/>
      <point x="600" y="340" type="line"/>
      <point x="464" y="340" type="line"/>
      <point x="615" y="700" type="line"/>
      <point x="520" y="700" type="line"/>
      <point x="370" y="340" type="line"/>
      <point x="270" y="340" type="line"/>
      <point x="120" y="700" type="line"/>
      <point x="25" y="700" type="line"/>
      <point x="176" y="340" type="line"/>
      <point x="40" y="340" type="line"/>
      <point x="40" y="262" type="line"/>
      <point x="275" y="262" type="line"/>
      <point x="275" y="190" type="line"/>
      <point x="40" y="190" type="line"/>
      <point x="40" y="112" type="line"/>
      <point x="275" y="112" type="line"/>
    </contour>
  </outline>
</glyph>
<glyph name="section" format="2">
  <advance width="640"/>
  <unicode hex="00A7"/>
  <outline>
    <contour>
      <point x="70" y="-95" type="line"/>
      <point x="495" y="-95" type="line"/>
      <point x="585" y="-5" type="line"/>
      <point x="585" y="375" type="line"/>
      <point x="495" y="465" type="line"/>
      <point x="145" y="465" type="line"/>
      <point x="145" y="620" type="line"/>
      <point x="565" y="620" type="line"/>
      <point x="565" y="700" type="line"/>
      <point x="145" y="700" type="line"/>
      <point x="55" y="610" type="line"/>
      <point x="55" y="230" type="line"/>
      <point x="145" y="140" type="line"/>
      <point x="495" y="140" type="line"/>
      <point x="495" y="-15" type="line"/>
      <point x="70" y="-15" type="line"/>
    </contour>
    <contour>
      <point x="145" y="220" type="line"/>
      <point x="145" y="385" type="line"/>
      <point x="495" y="385" type="line"/>
      <point x="495" y="220" type="line"/>
    </contour>
  </outline>
</glyph>
<glyph name="dieresis" format="2">
  <advance width="390"/>
  <unicode hex="00A8"/>
  <outline>
    <contour>
      <point x="40" y="630" type="line"/>
      <point x="130" y="630" type="line"/>
      <point x="130" y="710" type="line"/>
      <point x="40" y="710" type="line"/>
    </contour>
    <contour>
      <point x="260" y="630" type="line"/>
      <point x="350" y="630" type="line"/>
      <point x="350" y="710" type="line"/>
      <point x="260" y="710" type="line"/>
    </contour>
  </outline>
</glyph>
<glyph name="copyright" format="2">
  <advance width="900"/>
  <unicode hex="00A9"/>
  <outline>
    <contour>
      <point x="240" y="170" type="line"/>
      <point x="330" y="80" type="line"/>
      <point x="660" y="80" type="line"/>
      <point x="660" y="160" type="line"/>
      <point x="330" y="160" type="line"/>
      <point x="330" y="480" type="line"/>
      <point x="660" y="480" type="line"/>
      <point x="660" y="560" type="line"/>
      <point x="330" y="560" type="line"/>
      <point x="240" y="470" type="line"/>
    </contour>
    <contour>
      <point x="50" y="-20" type="line"/>
      <point x="130" y="-100" type="line"/>
      <point x="770" y="-100" type="line"/>
      <point x="850" y="-20" type="line"/>
      <point x="850" y="660" type="line"/>
      <point x="770" y="740" type="line"/>
      <point x="130" y="740" type="line"/>
      <point x="50" y="660" type="line"/>
    </contour>
    <contour>
      <point x="140" y="660" type="line"/>
      <point x="760" y="660" type="line"/>
      <point x="760" y="-20" type="line"/>
      <point x="140" y="-20" type="line"/>
    </contour>
  </outline>
</glyph>
<glyph name="ordfeminine" format="2">
  <advance width="500"/>
  <unicode hex="00AA"/>
  <outline>
    <contour>
      <point x="50" y="340" type="line"/>
      <point x="140" y="250" type="line"/>
      <point x="440" y="250" type="line"/>
      <point x="440" y="610" type="line"/>
      <point x="350" y="700" type="line"/>
      <point x="70" y="700" type="line"/>
      <point x="70" y="624" type="line"/>
      <point x="354" y="624" type="line"/>
      <point x="354" y="525" type="line"/>
      <point x="50" y="515" type="line"/>
    </contour>
    <contour>
      <point x="136" y="439" type="line"/>
      <point x="354" y="459" type="line"/>
      <point x="354" y="326" type="line"/>
      <point x="136" y="326" type="line"/>
    </contour>
  </outline>
</glyph>
<glyph name="guillemotleft" format="2">
  <advance width="690"/>
  <unicode hex="00AB"/>
  <outline>
    <contour>
      <point x="20" y="265" type="line"/>
      <point x="300" y="0" type="line"/>
      <point x="420" y="0" type="line"/>
      <point x="131" y="280" type="line"/>
      <point x="420" y="560" type="line"/>
      <point x="300" y="560" type="line"/>
      <point x="20" y="295" type="line"/>
    </contour>
    <contour>
      <point x="260" y="265" type="line"/>
      <point x="540" y="0" type="line"/>
      <point x="660" y="0" type="line"/>
      <point x="371" y="280" type="line"/>
      <point x="660" y="560" type="line"/>
      <point x="540" y="560" type="line"/>
      <point x="260" y="295" type="line"/>
    </contour>
  </outline>
</glyph>
<glyph name="logicalnot" format="2">
  <advance width="600"/>
  <unicode hex="00AC"/>
  <outline>
    <contour>
      <point x="40" y="275" type="line"/>
      <point x="470" y="275" type="line"/>
      <point x="470" y="105" type="line"/>
      <point x="560" y="105" type="line"/>
      <point x="560" y="365" type="line"/>
      <point x="40" y="365" type="line"/>
    </contour>
  </outline>
</glyph>
<glyph name="degree" format="2">
  <advance width="320"/>
  <unicode hex="00B0"/>
  <outline>
    <contour>
      <point x="20" y="490" type="line"/>
      <point x="90" y="420" type="line"/>
      <point x="230" y="420" type="line"/>
      <point x="300" y="490" type="line"/>
      <point x="300" y="630" type="line"/>
      <point x="230" y="700" type="line"/>
      <point x="90" y="700" type="line"/>
      <point x="20" y="630" type="line"/>
    </contour>
    <contour>
      <point x="98" y="490" type="line"/>
      <point x="98" y="630" type="line"/>
      <point x="223" y="630" type="line"/>
      <point x="223" y="490" type="line"/>
    </contour>
  </outline>
</glyph>
<glyph name="twosuperior" format="2">
  <advance width="490"/>
  <unicode hex="00B2"/>
  <outline>
    <contour>
      <point x="440" y="372" type="line"/>
      <point x="134" y="372" type="line"/>
      <point x="134" y="441" type="line"/>
      <point x="440" y="491" type="line"/>
      <point x="440" y="620" type="line"/>
      <point x="360" y="700" type="line"/>
      <point x="60" y="700" type="line"/>
      <point x="60" y="628" type="line"/>
      <point x="356" y="628" type="line"/>
      <point x="356" y="546" type="line"/>
      <point x="50" y="496" type="line"/>
      <point x="50" y="300" type="line"/>
      <point x="440" y="300" type="line"/>
    </contour>
  </outline>
</glyph>
<glyph name="threesuperior" format="2">
  <advance width="470"/>
  <unicode hex="00B3"/>
  <outline>
    <contour>
      <point x="363" y="300" type="line"/>
      <point x="420" y="346" type="line"/>
      <point x="420" y="475" type="line"/>
      <point x="365" y="509" type="line"/>
      <point x="406" y="534" type="line"/>
      <point x="406" y="654" type="line"/>
      <point x="348" y="700" type="line"/>
      <point x="47" y="700" type="line"/>
      <point x="47" y="630" type="line"/>
      <point x="328" y="630" type="line"/>
      <point x="328" y="541" type="line"/>
      <point x="83" y="541" type="line"/>
      <point x="83" y="471" type="line"/>
      <point x="342" y="471" type="line"/>
      <point x="342" y="370" type="line"/>
      <point x="40" y="370" type="line"/>
      <point x="40" y="300" type="line"/>
    </contour>
  </outline>
</glyph>
<glyph name="paragraph" format="2">
  <advance width="640"/>
  <unicode hex="00B6"/>
  <outline>
    <contour>
      <point x="580" y="-140" type="line"/>
      <point x="580" y="700" type="line"/>
      <point x="160" y="700" type="line"/>
      <point x="40" y="580" type="line"/>
      <point x="40" y="270" type="line"/>
      <point x="160" y="150" type="line"/>
      <point x="320" y="150" type="line"/>
      <point x="320" y="-140" type="line"/>
      <point x="410" y="-140" type="line"/>
      <point x="410" y="620" type="line"/>
      <point x="490" y="620" type="line"/>
      <point x="490" y="-140" type="line"/>
    </contour>
  </outline>
</glyph>
<glyph name="periodcentered" format="2">
  <advance width="170"/>
  <unicode hex="00B7"/>
  <outline>
    <contour>
      <point x="40" y="280" type="line"/>
      <point x="130" y="280" type="line"/>
      <point x="130" y="380" type="line"/>
      <point x="40" y="380" type="line"/>
    </contour>
  </outline>
</glyph>
<glyph name="cedilla" format="2">
  <advance width="222"/>
  <unicode hex="00B8"/>
  <outline>
    <contour>
      <point x="40" y="-200" type="line"/>
      <point x="113" y="-200" type="line"/>
      <point x="182" y="-60" type="line"/>
      <point x="85" y="-60" type="line"/>
    </contour>
  </outline>
</glyph>
<glyph name="onesuperior" format="2">
  <advance width="430"/>
  <unicode hex="00B9"/>
  <outline>
    <contour>
      <point x="45" y="300" type="line"/>
      <point x="215" y="308" type="line"/>
      <point x="385" y="300" type="line"/>
      <point x="385" y="367" type="line"/>
      <point x="261" y="375" type="line"/>
      <point x="261" y="700" type="line"/>
      <point x="55" y="660" type="line"/>
      <point x="55" y="595" type="line"/>
      <point x="179" y="604" type="line"/>
      <point x="179" y="375" type="line"/>
      <point x="45" y="367" type="line"/>
    </contour>
  </outline>
</glyph>
<glyph name="ordmasculine" format="2">
  <advance width="500"/>
  <unicode hex="00BA"/>
  <outline>
    <contour>
      <point x="55" y="340" type="line"/>
      <point x="145" y="250" type="line"/>
      <point x="355" y="250" type="line"/>
      <point x="445" y="340" type="line"/>
      <point x="445" y="610" type="line"/>
      <point x="355" y="700" type="line"/>
      <point x="145" y="700" type="line"/>
      <point x="55" y="610" type="line"/>
    </contour>
    <contour>
      <point x="145" y="330" type="line"/>
      <point x="145" y="620" type="line"/>
      <point x="355" y="620" type="line"/>
      <point x="355" y="330" type="line"/>
    </contour>
  </outline>
</glyph>
<glyph name="AE" format="2">
  <advance width="940"/>
  <unicode hex="00C6"/>
  <anchor x="580" y="700" name="top"/>
  <anchor x="470" y="0" name="bottom"/>
  <outline>
    <contour>
      <point x="20" y="0" type="line"/>
      <point x="112" y="0" type="line"/>
      <point x="168" y="180" type="line"/>
      <point x="470" y="180" type="line"/>
      <point x="470" y="0" type="line"/>
      <point x="910" y="0" type="line"/>
      <point x="910" y="80" type="line"/>
      <point x="560" y="80" type="line"/>
      <point x="560" y="320" type="line"/>
      <point x="850" y="320" type="line"/>
      <point x="850" y="400" type="line"/>
      <point x="560" y="400" type="line"/>
      <point x="560" y="620" type="line"/>
      <point x="900" y="620" type="line"/>
      <point x="900" y="700" type="line"/>
      <point x="242" y="700" type="line"/>
    </contour>
    <contour>
      <point x="193" y="258" type="line"/>
      <point x="307" y="622" type="line"/>
      <point x="472" y="622" type="line"/>
      <point x="472" y="258" type="line"/>
    </contour>
  </outline>
</glyph>
<glyph name="Eth" format="2">
  <advance width="635"/>
  <unicode hex="00D0"/>
  <outline>
    <component base="D"/>
    <contour>
      <point x="10" y="310" type="line"/>
      <point x="320" y="310" type="line"/>
      <point x="320" y="390" type="line"/>
      <point x="10" y="390" type="line"/>
    </contour>
  </outline>
</glyph>
<glyph name="Oslash" format="2">
  <advance width="680"/>
  <unicode hex="00D8"/>
  <anchor x="340" y="0" name="bottom"/>
  <anchor x="340" y="700" name="top"/>
  <outline>
    <contour>
      <point x="60" y="100" type="line"/>
      <point x="160" y="0" type="line"/>
      <point x="540" y="0" type="line"/>
      <point x="620" y="80" type="line"/>
      <point x="620" y="600" type="line"/>
      <point x="520" y="700" type="line"/>
      <point x="140" y="700" type="line"/>
      <point x="60" y="620" type="line"/>
    </contour>
    <contour>
      <point x="148" y="622" type="line"/>
      <point x="532" y="622" type="line"/>
      <point x="532" y="78" type="line"/>
      <point x="148" y="78" type="line"/>
    </contour>
    <contour>
      <point x="36" y="0" type="line"/>
      <point x="107" y="0" type="line"/>
      <point x="644" y="700" type="line"/>
      <point x="573" y="700" type="line"/>
    </contour>
  </outline>
</glyph>
<glyph name="Thorn" format="2">
  <advance width="640"/>
  <unicode hex="00DE"/>
  <outline>
    <contour>
      <point x="60" y="0" type="line"/>
      <point x="150" y="0" type="line"/>
      <point x="150" y="90" type="line"/>
      <point x="520" y="90" type="line"/>
      <point x="600" y="170" type="line"/>
      <point x="600" y="540" type="line"/>
      <point x="520" y="620" type="line"/>
      <point x="150" y="620" type="line"/>
      <point x="150" y="700" type="line"/>
      <point x="60" y="700" type="line"/>
    </contour>
    <contour>
      <point x="150" y="170" type="line"/>
      <point x="150" y="540" type="line"/>
      <point x="510" y="540" type="line"/>
      <point x="510" y="170" type="line"/>
    </contour>
  </outline>
</glyph>
<glyph name="germandbls" format="2">
  <advance width="630"/>
  <unicode hex="00DF"/>
  <outline>
    <contour>
      <point x="565" y="610" type="line"/>
      <point x="475" y="700" type="line"/>
      <point x="150" y="700" type="line"/>
      <point x="60" y="610" type="line"/>
      <point x="60" y="0" type="line"/>
      <point x="150" y="0" type="line"/>
      <point x="150" y="620" type="line"/>
      <point x="475" y="620" type="line"/>
      <point x="475" y="415" type="line"/>
      <point x="300" y="415" type="line"/>
      <point x="300" y="335" type="line"/>
      <point x="500" y="335" type="line"/>
      <point x="500" y="80" type="line"/>
      <point x="290" y="80" type="line"/>
      <point x="290" y="0" type="line"/>
      <point x="500" y="0" type="line"/>
      <point x="590" y="90" type="line"/>
      <point x="590" y="326" type="line"/>
      <point x="513" y="386" type="line"/>
      <point x="565" y="439" type="line"/>
    </contour>
  </outline>
</glyph>
<glyph name="ae" format="2">
  <advance width="925"/>
  <unicode hex="00E6"/>
  <anchor x="462.5" y="560" name="top"/>
  <anchor x="462.5" y="0" name="bottom"/>
  <outline>
    <contour>
      <point x="50" y="90" type="line"/>
      <point x="140" y="0" type="line"/>
      <point x="850" y="0" type="line"/>
      <point x="850" y="80" type="line"/>
      <point x="510" y="80" type="line"/>
      <point x="510" y="250" type="line"/>
      <point x="870" y="250" type="line"/>
      <point x="870" y="560" type="line"/>
      <point x="520" y="560" type="line"/>
      <point x="465" y="505" type="line"/>
      <point x="410" y="560" type="line"/>
      <point x="70" y="560" type="line"/>
      <point x="70" y="480" type="line"/>
      <point x="420" y="480" type="line"/>
      <point x="420" y="330" type="line"/>
      <point x="50" y="320" type="line"/>
    </contour>
    <contour>
      <point x="510" y="320" type="line"/>
      <point x="510" y="480" type="line"/>
      <point x="780" y="480" type="line"/>
      <point x="780" y="330" type="line"/>
    </contour>
    <contour>
      <point x="140" y="240" type="line"/>
      <point x="420" y="260" type="line"/>
      <point x="420" y="80" type="line"/>
      <point x="140" y="80" type="line"/>
    </contour>
  </outline>
</glyph>
<glyph name="eth" format="2">
  <advance width="650"/>
  <unicode hex="00F0"/>
  <outline>
    <contour>
      <point x="145" y="0" type="line"/>
      <point x="55" y="90" type="line"/>
      <point x="55" y="382" type="line"/>
      <point x="459" y="456" type="line"/>
      <point x="125" y="700" type="line"/>
      <point x="265" y="700" type="line"/>
      <point x="595" y="452" type="line"/>
      <point x="595" y="90" type="line"/>
      <point x="505" y="0" type="line"/>
    </contour>
    <contour>
      <point x="505" y="392" type="line"/>
      <point x="145" y="322" type="line"/>
      <point x="145" y="80" type="line"/>
      <point x="505" y="80" type="line"/>
    </contour>
    <contour>
      <point x="105" y="511" type="line"/>
      <point x="105" y="582" type="line"/>
      <point x="545" y="700" type="line"/>
      <point x="545" y="629" type="line"/>
    </contour>
  </outline>
</glyph>
<glyph name="oslash" format="2">
  <advance width="600"/>
  <unicode hex="00F8"/>
  <anchor x="300" y="560" name="top"/>
  <anchor x="300" y="0" name="bottom"/>
  <outline>
    <contour>
      <point x="55" y="100" type="line"/>
      <point x="155" y="0" type="line"/>
      <point x="455" y="0" type="line"/>
      <point x="545" y="90" type="line"/>
      <point x="545" y="460" type="line"/>
      <point x="445" y="560" type="line"/>
      <point x="145" y="560" type="line"/>
      <point x="55" y="470" type="line"/>
    </contour>
    <contour>
      <point x="141" y="78" type="line"/>
      <point x="141" y="482" type="line"/>
      <point x="459" y="482" type="line"/>
      <point x="459" y="78" type="line"/>
    </contour>
    <contour>
      <point x="30" y="0" type="line"/>
      <point x="105" y="0" type="line"/>
      <point x="570" y="560" type="line"/>
      <point x="495" y="560" type="line"/>
    </contour>
  </outline>
</glyph>
<glyph name="thorn" format="2">
  <advance width="620"/>
  <unicode hex="00FE"/>
  <anchor x="280" y="-140" name="bottom"/>
  <anchor x="280" y="700" name="top"/>
  <outline>
    <contour>
      <point x="60" y="-140" type="line"/>
      <point x="150" y="-140" type="line"/>
      <point x="150" y="0" type="line"/>
      <point x="475" y="0" type="line"/>
      <point x="565" y="90" type="line"/>
      <point x="565" y="470" type="line"/>
      <point x="475" y="560" type="line"/>
      <point x="150" y="560" type="line"/>
      <point x="150" y="700" type="line"/>
      <point x="60" y="700" type="line"/>
    </contour>
    <contour>
      <point x="150" y="80" type="line"/>
      <point x="150" y="480" type="line"/>
      <point x="475" y="480" type="line"/>
      <point x="475" y="80" type="line"/>
    </contour>
  </outline>
</glyph>
<glyph name="dcroat" format="2">
  <advance width="620"/>
  <unicode hex="0111"/>
  <anchor x="340" y="0" name="bottom"/>
  <anchor x="340" y="700" name="top"/>
  <outline>
    <contour>
      <point x="560" y="700" type="line"/>
      <point x="470" y="700" type="line"/>
      <point x="470" y="460" type="line"/>
      <point x="145" y="460" type="line"/>
      <point x="55" y="370" type="line"/>
      <point x="55" y="90" type="line"/>
      <point x="145" y="0" type="line"/>
      <point x="560" y="0" type="line"/>
    </contour>
    <contour>
      <point x="145" y="80" type="line"/>
      <point x="145" y="380" type="line"/>
      <point x="470" y="380" type="line"/>
      <point x="470" y="80" type="line"/>
    </contour>
    <contour>
      <point x="175" y="544" type="line"/>
      <point x="615" y="544" type="line"/>
      <point x="615" y="620" type="line"/>
      <point x="175" y="620" type="line"/>
    </contour>
  </outline>
</glyph>
<glyph name="Hbar" format="2">
  <advance width="650"/>
  <unicode hex="0126"/>
  <anchor x="325" y="700" name="top"/>
  <anchor x="325" y="0" name="bottom"/>
  <outline>
    <component base="H"/>
    <contour>
      <point x="5" y="514" type="line"/>
      <point x="645" y="514" type="line"/>
      <point x="645" y="590" type="line"/>
      <point x="5" y="590" type="line"/>
    </contour>
  </outline>
</glyph>
<glyph name="hbar" format="2">
  <advance width="620"/>
  <unicode hex="0127"/>
  <anchor x="310" y="0" name="bottom"/>
  <anchor x="240" y="700" name="top"/>
  <outline>
    <contour>
      <point x="60" y="0" type="line"/>
      <point x="150" y="0" type="line"/>
      <point x="150" y="380" type="line"/>
      <point x="470" y="380" type="line"/>
      <point x="470" y="0" type="line"/>
      <point x="560" y="0" type="line"/>
      <point x="560" y="370" type="line"/>
      <point x="470" y="460" type="line"/>
      <point x="150" y="460" type="line"/>
      <point x="150" y="700" type="line"/>
      <point x="60" y="700" type="line"/>
    </contour>
    <contour>
      <point x="5" y="544" type="line"/>
      <point x="445" y="544" type="line"/>
      <point x="445" y="620" type="line"/>
      <point x="5" y="620" type="line"/>
    </contour>
  </outline>
</glyph>
<glyph name="itilde" format="2">
  <advance width="210"/>
  <unicode hex="0129"/>
  <anchor x="105" y="0" name="bottom"/>
  <anchor x="105" y="730" name="top"/>
  <outline>
    <contour>
      <point x="60" y="0" type="line"/>
      <point x="150" y="0" type="line"/>
      <point x="150" y="560" type="line"/>
      <point x="60" y="560" type="line"/>
    </contour>
    <contour>
      <point x="-15" y="610" type="line"/>
      <point x="51" y="665" type="line"/>
      <point x="165" y="605" type="line"/>
      <point x="235" y="663" type="line"/>
      <point x="235" y="740" type="line"/>
      <point x="169" y="685" type="line"/>
      <point x="55" y="745" type="line"/>
      <point x="-15" y="687" type="line"/>
    </contour>
  </outline>
</glyph>
<glyph name="dotlessi" format="2">
  <advance width="210"/>
  <unicode hex="0131"/>
  <anchor x="105" y="0" name="bottom"/>
  <anchor x="105" y="560" name="top"/>
  <outline>
    <contour>
      <point x="60" y="0" type="line"/>
      <point x="150" y="0" type="line"/>
      <point x="150" y="560" type="line"/>
      <point x="60" y="560" type="line"/>
    </contour>
  </outline>
</glyph>
<glyph name="IJ" format="2">
  <advance width="900"/>
  <unicode hex="0132"/>
  <outline>
    <contour>
      <point x="45" y="-4" type="line"/>
      <point x="185" y="4" type="line"/>
      <point x="325" y="-4" type="line"/>
      <point x="325" y="76" type="line"/>
      <point x="230" y="81" type="line"/>
      <point x="230" y="619" type="line"/>
      <point x="325" y="624" type="line"/>
      <point x="325" y="704" type="line"/>
      <point x="185" y="696" type="line"/>
      <point x="45" y="704" type="line"/>
      <point x="45" y="624" type="line"/>
      <point x="140" y="619" type="line"/>
      <point x="140" y="81" type="line"/>
      <point x="45" y="76" type="line"/>
    </contour>
    <contour>
      <point x="390" y="90" type="line"/>
      <point x="480" y="0" type="line"/>
      <point x="750" y="0" type="line"/>
      <point x="840" y="90" type="line"/>
      <point x="840" y="700" type="line"/>
      <point x="420" y="700" type="line"/>
      <point x="420" y="620" type="line"/>
      <point x="750" y="620" type="line"/>
      <point x="750" y="80" type="line"/>
      <point x="480" y="80" type="line"/>
      <point x="480" y="300" type="line"/>
      <point x="390" y="300" type="line"/>
    </contour>
  </outline>
</glyph>
<glyph name="kgreenlandic" format="2">
  <advance width="620"/>
  <unicode hex="0138"/>
  <anchor x="330" y="0" name="bottom"/>
  <anchor x="280" y="560" name="top"/>
  <outline>
    <contour>
      <point x="60" y="0" type="line"/>
      <point x="150" y="0" type="line"/>
      <point x="150" y="251" type="line"/>
      <point x="357" y="251" type="line"/>
      <point x="508" y="0" type="line"/>
      <point x="610" y="0" type="line"/>
      <point x="425" y="302" type="line"/>
      <point x="602" y="560" type="line"/>
      <point x="498" y="560" type="line"/>
      <point x="344" y="331" type="line"/>
      <point x="150" y="331" type="line"/>
      <point x="150" y="560" type="line"/>
      <point x="60" y="560" type="line"/>
    </contour>
  </outline>
</glyph>
<glyph name="Lslash" format="2">
  <advance width="600"/>
  <unicode hex="0141"/>
  <anchor x="315" y="0" name="bottom"/>
  <anchor x="153" y="700" name="top"/>
  <outline>
    <component base="L"/>
    <contour>
      <point x="125" y="310" type="line"/>
      <point x="475" y="430" type="line"/>
      <point x="475" y="510" type="line"/>
      <point x="125" y="390" type="line"/>
    </contour>
  </outline>
</glyph>
<glyph name="lslash" format="2">
  <advance width="310"/>
  <unicode hex="0142"/>
  <anchor x="155" y="0" name="bottom"/>
  <anchor x="155" y="700" name="top"/>
  <outline>
    <component base="l" xOffset="50"/>
    <contour>
      <point x="25" y="250" type="line"/>
      <point x="285" y="397" type="line"/>
      <point x="285" y="485" type="line"/>
      <point x="25" y="338" type="line"/>
    </contour>
  </outline>
</glyph>
<glyph name="eng" format="2">
  <advance width="620"/>
  <unicode hex="014B"/>
  <anchor x="310" y="-160" name="bottom"/>
  <anchor x="310" y="560" name="top"/>
  <outline>
    <contour>
      <point x="60" y="0" type="line"/>
      <point x="150" y="0" type="line"/>
      <point x="150" y="480" type="line"/>
      <point x="470" y="480" type="line"/>
      <point x="470" y="-80" type="line"/>
      <point x="370" y="-80" type="line"/>
      <point x="370" y="-160" type="line"/>
      <point x="476" y="-160" type="line"/>
      <point x="560" y="-76" type="line"/>
      <point x="560" y="470" type="line"/>
      <point x="470" y="560" type="line"/>
      <point x="60" y="560" type="line"/>
    </contour>
  </outline>
</glyph>
<glyph name="OE" format="2">
  <advance width="920"/>
  <unicode hex="0152"/>
  <anchor x="460" y="700" name="top"/>
  <anchor x="460" y="0" name="bottom"/>
  <outline>
    <contour>
      <point x="60" y="80" type="line"/>
      <point x="140" y="0" type="line"/>
      <point x="890" y="0" type="line"/>
      <point x="890" y="80" type="line"/>
      <point x="540" y="80" type="line"/>
      <point x="540" y="320" type="line"/>
      <point x="830" y="320" type="line"/>
      <point x="830" y="400" type="line"/>
      <point x="540" y="400" type="line"/>
      <point x="540" y="620" type="line"/>
      <point x="880" y="620" type="line"/>
      <point x="880" y="700" type="line"/>
      <point x="140" y="700" type="line"/>
      <point x="60" y="620" type="line"/>
    </contour>
    <contour>
      <point x="150" y="620" type="line"/>
      <point x="450" y="620" type="line"/>
      <point x="450" y="80" type="line"/>
      <point x="150" y="80" type="line"/>
    </contour>
  </outline>
</glyph>
<glyph name="oe" format="2">
  <advance width="930"/>
  <unicode hex="0153"/>
  <anchor x="465" y="0" name="bottom"/>
  <anchor x="465" y="560" name="top"/>
  <outline>
    <contour>
      <point x="55" y="90" type="line"/>
      <point x="145" y="0" type="line"/>
      <point x="425" y="0" type="line"/>
      <point x="470" y="45" type="line"/>
      <point x="515" y="0" type="line"/>
      <point x="855" y="0" type="line"/>
      <point x="855" y="80" type="line"/>
      <point x="515" y="80" type="line"/>
      <point x="515" y="250" type="line"/>
      <point x="875" y="250" type="line"/>
      <point x="875" y="560" type="line"/>
      <point x="515" y="560" type="line"/>
      <point x="470" y="515" type="line"/>
      <point x="425" y="560" type="line"/>
      <point x="145" y="560" type="line"/>
      <point x="55" y="470" type="line"/>
    </contour>
    <contour>
      <point x="145" y="80" type="line"/>
      <point x="145" y="480" type="line"/>
      <point x="425" y="480" type="line"/>
      <point x="425" y="80" type="line"/>
    </contour>
    <contour>
      <point x="515" y="320" type="line"/>
      <point x="515" y="480" type="line"/>
      <point x="785" y="480" type="line"/>
      <point x="785" y="330" type="line"/>
    </contour>
  </outline>
</glyph>
<glyph name="tcaron" format="2">
  <advance width="430"/>
  <unicode hex="0165"/>
  <anchor x="260" y="0" name="bottom"/>
  <anchor x="260" y="700" name="top"/>
  <outline>
    <component base="t"/>
    <contour>
      <point x="353" y="570" type="line"/>
      <point x="409" y="570" type="line"/>
      <point x="409" y="700" type="line"/>
      <point x="353" y="700" type="line"/>
    </contour>
  </outline>
</glyph>
<glyph name="Tbar" format="2">
  <advance width="560"/>
  <unicode hex="0166"/>
  <anchor x="280" y="0" name="bottom"/>
  <anchor x="280" y="700" name="top"/>
  <outline>
    <component base="T"/>
    <contour>
      <point x="80" y="304" type="line"/>
      <point x="480" y="304" type="line"/>
      <point x="480" y="380" type="line"/>
      <point x="80" y="380" type="line"/>
    </contour>
  </outline>
</glyph>
<glyph name="tbar" format="2">
  <advance width="430"/>
  <unicode hex="0167"/>
  <anchor x="260" y="0" name="bottom"/>
  <anchor x="260" y="700" name="top"/>
  <outline>
    <contour>
      <point x="60" y="650" type="line"/>
      <point x="60" y="90" type="line"/>
      <point x="150" y="0" type="line"/>
      <point x="410" y="0" type="line"/>
      <point x="410" y="80" type="line"/>
      <point x="150" y="80" type="line"/>
      <point x="150" y="460" type="line"/>
      <point x="410" y="460" type="line"/>
      <point x="410" y="540" type="line"/>
      <point x="150" y="540" type="line"/>
      <point x="150" y="700" type="line"/>
    </contour>
    <contour>
      <point x="15" y="284" type="line"/>
      <point x="410" y="284" type="line"/>
      <point x="410" y="360" type="line"/>
      <point x="15" y="360" type="line"/>
    </contour>
  </outline>
</glyph>
<glyph name="longs" format="2">
  <advance width="450"/>
  <unicode hex="017F"/>
  <anchor x="240" y="0" name="bottom"/>
  <anchor x="240" y="700" name="top"/>
  <outline>
    <contour>
      <point x="60" y="0" type="line"/>
      <point x="150" y="0" type="line"/>
      <point x="150" y="620" type="line"/>
      <point x="430" y="620" type="line"/>
      <point x="430" y="700" type="line"/>
      <point x="150" y="700" type="line"/>
      <point x="60" y="610" type="line"/>
    </contour>
  </outline>
</glyph>
<glyph name="uni0181" format="2">
  <advance width="785"/>
  <unicode hex="0181"/>
  <anchor x="445" y="700" name="top"/>
  <anchor x="445" y="0" name="bottom"/>
  <outline>
    <contour>
      <point x="96" y="620" type="line"/>
      <point x="205" y="620" type="line"/>
      <point x="205" y="0" type="line"/>
      <point x="665" y="0" type="line"/>
      <point x="745" y="80" type="line"/>
      <point x="745" y="316" type="line"/>
      <point x="678" y="376" type="line"/>
      <point x="725" y="419" type="line"/>
      <point x="725" y="620" type="line"/>
      <point x="645" y="700" type="line"/>
      <point x="100" y="700" type="line"/>
      <point x="10" y="610" type="line"/>
      <point x="10" y="450" type="line"/>
      <point x="96" y="450" type="line"/>
    </contour>
    <contour>
      <point x="295" y="405" type="line"/>
      <point x="295" y="620" type="line"/>
      <point x="635" y="620" type="line"/>
      <point x="635" y="405" type="line"/>
    </contour>
    <contour>
      <point x="295" y="80" type="line"/>
      <point x="295" y="325" type="line"/>
      <point x="655" y="325" type="line"/>
      <point x="655" y="80" type="line"/>
    </contour>
  </outline>
</glyph>
<glyph name="uni0189" format="2">
  <advance width="635"/>
  <unicode hex="0189"/>
  <outline>
    <contour>
      <point x="150" y="80" type="line"/>
      <point x="150" y="620" type="line"/>
      <point x="485" y="620" type="line"/>
      <point x="485" y="80" type="line"/>
    </contour>
    <contour>
      <point x="60" y="0" type="line"/>
      <point x="495" y="0" type="line"/>
      <point x="575" y="80" type="line"/>
      <point x="575" y="620" type="line"/>
      <point x="495" y="700" type="line"/>
      <point x="60" y="700" type="line"/>
    </contour>
    <contour>
      <point x="10" y="310" type="line"/>
      <point x="320" y="310" type="line"/>
      <point x="320" y="390" type="line"/>
      <point x="10" y="390" type="line"/>
    </contour>
  </outline>
</glyph>
<glyph name="uni018A" format="2">
  <advance width="780"/>
  <unicode hex="018A"/>
  <anchor x="445" y="0" name="bottom"/>
  <anchor x="445" y="700" name="top"/>
  <outline>
    <contour>
      <point x="96" y="620" type="line"/>
      <point x="205" y="620" type="line"/>
      <point x="205" y="0" type="line"/>
      <point x="640" y="0" type="line"/>
      <point x="720" y="80" type="line"/>
      <point x="720" y="620" type="line"/>
      <point x="640" y="700" type="line"/>
      <point x="100" y="700" type="line"/>
      <point x="10" y="610" type="line"/>
      <point x="10" y="450" type="line"/>
      <point x="96" y="450" type="line"/>
    </contour>
    <contour>
      <point x="295" y="80" type="line"/>
      <point x="295" y="620" type="line"/>
      <point x="630" y="620" type="line"/>
      <point x="630" y="80" type="line"/>
    </contour>
  </outline>
</glyph>
<glyph name="uni018F" format="2">
  <advance width="650"/>
  <unicode hex="018F"/>
  <anchor x="325" y="0" name="bottom"/>
  <anchor x="315" y="700" name="top"/>
  <outline>
    <contour>
      <point x="590" y="605" type="line"/>
      <point x="495" y="700" type="line"/>
      <point x="80" y="700" type="line"/>
      <point x="80" y="620" type="line"/>
      <point x="500" y="620" type="line"/>
      <point x="500" y="410" type="line"/>
      <point x="60" y="410" type="line"/>
      <point x="60" y="95" type="line"/>
      <point x="155" y="0" type="line"/>
      <point x="495" y="0" type="line"/>
      <point x="590" y="95" type="line"/>
    </contour>
    <contour>
      <point x="500" y="340" type="line"/>
      <point x="500" y="80" type="line"/>
      <point x="150" y="80" type="line"/>
      <point x="150" y="330" type="line"/>
    </contour>
  </outline>
</glyph>
<glyph name="uni0190" format="2">
  <advance width="610"/>
  <unicode hex="0190"/>
  <anchor x="355" y="0" name="bottom"/>
  <anchor x="355" y="700" name="top"/>
  <outline>
    <contour>
      <point x="120" y="0" type="line"/>
      <point x="40" y="80" type="line"/>
      <point x="40" y="306" type="line"/>
      <point x="117" y="366" type="line"/>
      <point x="60" y="409" type="line"/>
      <point x="60" y="620" type="line"/>
      <point x="140" y="700" type="line"/>
      <point x="570" y="700" type="line"/>
      <point x="570" y="620" type="line"/>
      <point x="150" y="620" type="line"/>
      <point x="150" y="400" type="line"/>
      <point x="520" y="400" type="line"/>
      <point x="520" y="320" type="line"/>
      <point x="130" y="320" type="line"/>
      <point x="130" y="80" type="line"/>
      <point x="580" y="80" type="line"/>
      <point x="580" y="0" type="line"/>
    </contour>
  </outline>
</glyph>
<glyph name="uni0191" format="2">
  <advance width="570"/>
  <unicode hex="0191"/>
  <outline>
    <contour>
      <point x="-10" y="0" type="line"/>
      <point x="70" y="0" type="line"/>
      <point x="150" y="80" type="line"/>
      <point x="150" y="260" type="line"/>
      <point x="520" y="260" type="line"/>
      <point x="520" y="340" type="line"/>
      <point x="150" y="340" type="line"/>
      <point x="150" y="620" type="line"/>
      <point x="540" y="620" type="line"/>
      <point x="540" y="700" type="line"/>
      <point x="60" y="700" type="line"/>
      <point x="60" y="80" type="line"/>
      <point x="-10" y="80" type="line"/>
    </contour>
  </outline>
</glyph>
<glyph name="uni0192" format="2">
  <advance width="410"/>
  <unicode hex="0192"/>
  <outline>
    <contour>
      <point x="-50" y="-140" type="line"/>
      <point x="20" y="-140" type="line"/>
      <point x="110" y="-50" type="line"/>
      <point x="110" y="310" type="line"/>
      <point x="390" y="310" type="line"/>
      <point x="390" y="390" type="line"/>
      <point x="110" y="390" type="line"/>
      <point x="110" y="620" type="line"/>
      <point x="390" y="620" type="line"/>
      <point x="390" y="700" type="line"/>
      <point x="110" y="700" type="line"/>
      <point x="20" y="610" type="line"/>
      <point x="20" y="-60" type="line"/>
      <point x="-50" y="-60" type="line"/>
    </contour>
  </outline>
</glyph>
<glyph name="uni0193" format="2">
  <advance width="640"/>
  <unicode hex="0193"/>
  <outline>
    <contour>
      <point x="140" y="0" type="line"/>
      <point x="580" y="0" type="line"/>
      <point x="580" y="405" type="line"/>
      <point x="290" y="405" type="line"/>
      <point x="290" y="325" type="line"/>
      <point x="490" y="325" type="line"/>
      <point x="490" y="80" type="line"/>
      <point x="150" y="80" type="line"/>
      <point x="150" y="620" type="line"/>
      <point x="540" y="620" type="line"/>
      <point x="540" y="750" type="line"/>
      <point x="610" y="750" type="line"/>
      <point x="610" y="830" type="line"/>
      <point x="536" y="830" type="line"/>
      <point x="456" y="750" type="line"/>
      <point x="456" y="700" type="line"/>
      <point x="140" y="700" type="line"/>
      <point x="60" y="620" type="line"/>
      <point x="60" y="80" type="line"/>
    </contour>
  </outline>
</glyph>
<glyph name="uni0194" format="2">
  <advance width="640"/>
  <unicode hex="0194"/>
  <anchor x="320" y="0" name="bottom"/>
  <anchor x="320" y="700" name="top"/>
  <outline>
    <contour>
      <point x="145" y="0" type="line"/>
      <point x="495" y="0" type="line"/>
      <point x="585" y="90" type="line"/>
      <point x="585" y="285" type="line"/>
      <point x="383" y="452" type="line"/>
      <point x="635" y="700" type="line"/>
      <point x="508" y="700" type="line"/>
      <point x="323" y="502" type="line"/>
      <point x="317" y="502" type="line"/>
      <point x="132" y="700" type="line"/>
      <point x="5" y="700" type="line"/>
      <point x="257" y="452" type="line"/>
      <point x="55" y="285" type="line"/>
      <point x="55" y="90" type="line"/>
    </contour>
    <contour>
      <point x="145" y="80" type="line"/>
      <point x="145" y="253" type="line"/>
      <point x="320" y="406" type="line"/>
      <point x="495" y="253" type="line"/>
      <point x="495" y="80" type="line"/>
    </contour>
  </outline>
</glyph>
<glyph name="uni0197" format="2">
  <advance width="430"/>
  <unicode hex="0197"/>
  <anchor x="215" y="0" name="bottom"/>
  <anchor x="215" y="700" name="top"/>
  <outline>
    <contour>
      <point x="45" y="-4" type="line"/>
      <point x="215" y="4" type="line"/>
      <point x="385" y="-4" type="line"/>
      <point x="385" y="76" type="line"/>
      <point x="260" y="81" type="line"/>
      <point x="260" y="619" type="line"/>
      <point x="385" y="624" type="line"/>
      <point x="385" y="704" type="line"/>
      <point x="215" y="696" type="line"/>
      <point x="45" y="704" type="line"/>
      <point x="45" y="624" type="line"/>
      <point x="170" y="619" type="line"/>
      <point x="170" y="81" type="line"/>
      <point x="45" y="76" type="line"/>
    </contour>
    <contour>
      <point x="55" y="311" type="line"/>
      <point x="375" y="311" type="line"/>
      <point x="375" y="389" type="line"/>
      <point x="55" y="389" type="line"/>
    </contour>
  </outline>
</glyph>
<glyph name="uni0198" format="2">
  <advance width="656"/>
  <unicode hex="0198"/>
  <outline>
    <contour>
      <point x="60" y="0" type="line"/>
      <point x="150" y="0" type="line"/>
      <point x="150" y="315" type="line"/>
      <point x="388" y="315" type="line"/>
      <point x="546" y="0" type="line"/>
      <point x="650" y="0" type="line"/>
      <point x="452" y="385" type="line"/>
      <point x="527" y="620" type="line"/>
      <point x="650" y="620" type="line"/>
      <point x="650" y="700" type="line"/>
      <point x="509" y="700" type="line"/>
      <point x="439" y="630" type="line"/>
      <point x="365" y="395" type="line"/>
      <point x="150" y="395" type="line"/>
      <point x="150" y="700" type="line"/>
      <point x="60" y="700" type="line"/>
    </contour>
  </outline>
</glyph>
<glyph name="uni0199" format="2">
  <advance width="620"/>
  <unicode hex="0199"/>
  <outline>
    <contour>
      <point x="60" y="0" type="line"/>
      <point x="150" y="0" type="line"/>
      <point x="150" y="251" type="line"/>
      <point x="357" y="251" type="line"/>
      <point x="508" y="0" type="line"/>
      <point x="610" y="0" type="line"/>
      <point x="425" y="302" type="line"/>
      <point x="602" y="560" type="line"/>
      <point x="498" y="560" type="line"/>
      <point x="344" y="331" type="line"/>
      <point x="150" y="331" type="line"/>
      <point x="150" y="620" type="line"/>
      <point x="330" y="620" type="line"/>
      <point x="330" y="700" type="line"/>
      <point x="150" y="700" type="line"/>
      <point x="60" y="610" type="line"/>
    </contour>
  </outline>
</glyph>
<glyph name="uni019D" format="2">
  <advance width="680"/>
  <unicode hex="019D"/>
  <outline>
    <contour>
      <point x="-10" y="0" type="line"/>
      <point x="70" y="0" type="line"/>
      <point x="150" y="80" type="line"/>
      <point x="150" y="595" type="line"/>
      <point x="492" y="0" type="line"/>
      <point x="620" y="0" type="line"/>
      <point x="620" y="700" type="line"/>
      <point x="530" y="700" type="line"/>
      <point x="530" y="105" type="line"/>
      <point x="188" y="700" type="line"/>
      <point x="60" y="700" type="line"/>
      <point x="60" y="80" type="line"/>
      <point x="-10" y="80" type="line"/>
    </contour>
  </outline>
</glyph>
<glyph name="Ohorn" format="2">
  <advance width="680"/>
  <unicode hex="01A0"/>
  <anchor x="340" y="700" name="top"/>
  <anchor x="340" y="0" name="bottom"/>
  <outline>
    <contour>
      <point x="60" y="80" type="line"/>
      <point x="140" y="0" type="line"/>
      <point x="540" y="0" type="line"/>
      <point x="620" y="80" type="line"/>
      <point x="620" y="620" type="line"/>
      <point x="700" y="700" type="line"/>
      <point x="700" y="780" type="line"/>
      <point x="614" y="780" type="line"/>
      <point x="614" y="700" type="line"/>
      <point x="140" y="700" type="line"/>
      <point x="60" y="620" type="line"/>
    </contour>
    <contour>
      <point x="150" y="620" type="line"/>
      <point x="530" y="620" type="line"/>
      <point x="530" y="80" type="line"/>
      <point x="150" y="80" type="line"/>
    </contour>
  </outline>
</glyph>
<glyph name="ohorn" format="2">
  <advance width="610"/>
  <unicode hex="01A1"/>
  <anchor x="295" y="560" name="top"/>
  <anchor x="300" y="0" name="bottom"/>
  <outline>
    <contour>
      <point x="55" y="90" type="line"/>
      <point x="145" y="0" type="line"/>
      <point x="455" y="0" type="line"/>
      <point x="545" y="90" type="line"/>
      <point x="545" y="485" type="line"/>
      <point x="620" y="560" type="line"/>
      <point x="620" y="640" type="line"/>
      <point x="530" y="640" type="line"/>
      <point x="530" y="560" type="line"/>
      <point x="145" y="560" type="line"/>
      <point x="55" y="470" type="line"/>
    </contour>
    <contour>
      <point x="145" y="80" type="line"/>
      <point x="145" y="480" type="line"/>
      <point x="455" y="480" type="line"/>
      <point x="455" y="80" type="line"/>
    </contour>
  </outline>
</glyph>
<glyph name="uhorn" format="2">
  <advance width="620"/>
  <unicode hex="01B0"/>
  <anchor x="310" y="560" name="top"/>
  <anchor x="310" y="0" name="bottom"/>
  <anchor x="470" y="0" name="ogonek"/>
  <outline>
    <contour>
      <point x="60" y="90" type="line"/>
      <point x="150" y="0" type="line"/>
      <point x="560" y="0" type="line"/>
      <point x="560" y="480" type="line"/>
      <point x="640" y="560" type="line"/>
      <point x="640" y="640" type="line"/>
      <point x="550" y="640" type="line"/>
      <point x="550" y="560" type="line"/>
      <point x="470" y="560" type="line"/>
      <point x="470" y="80" type="line"/>
      <point x="150" y="80" type="line"/>
      <point x="150" y="560" type="line"/>
      <point x="60" y="560" type="line"/>
    </contour>
  </outline>
</glyph>
<glyph name="uni01B2" format="2">
  <advance width="650"/>
  <unicode hex="01B2"/>
  <anchor x="325" y="700" name="top"/>
  <anchor x="325" y="0" name="bottom"/>
  <outline>
    <contour>
      <point x="140" y="0" type="line"/>
      <point x="510" y="0" type="line"/>
      <point x="590" y="80" type="line"/>
      <point x="590" y="610" type="line"/>
      <point x="500" y="700" type="line"/>
      <point x="290" y="700" type="line"/>
      <point x="290" y="620" type="line"/>
      <point x="500" y="620" type="line"/>
      <point x="500" y="80" type="line"/>
      <point x="150" y="80" type="line"/>
      <point x="150" y="700" type="line"/>
      <point x="60" y="700" type="line"/>
      <point x="60" y="80" type="line"/>
    </contour>
  </outline>
</glyph>
<glyph name="uni01B3" format="2">
  <advance width="640"/>
  <unicode hex="01B3"/>
  <outline>
    <contour>
      <point x="275" y="0" type="line"/>
      <point x="365" y="0" type="line"/>
      <point x="365" y="210" type="line"/>
      <point x="453" y="210" type="line"/>
      <point x="562" y="620" type="line"/>
      <point x="635" y="620" type="line"/>
      <point x="635" y="700" type="line"/>
      <point x="544" y="700" type="line"/>
      <point x="474" y="630" type="line"/>
      <point x="390" y="288" type="line"/>
      <point x="250" y="288" type="line"/>
      <point x="120" y="700" type="line"/>
      <point x="25" y="700" type="line"/>
      <point x="187" y="210" type="line"/>
      <point x="275" y="210" type="line"/>
    </contour>
  </outline>
</glyph>
<glyph name="uni01B4" format="2">
  <advance width="600"/>
  <unicode hex="01B4"/>
  <outline>
    <contour>
      <point x="41" y="-140" type="line"/>
      <point x="375" y="-140" type="line"/>
      <point x="540" y="620" type="line"/>
      <point x="630" y="620" type="line"/>
      <point x="630" y="700" type="line"/>
      <point x="531" y="700" type="line"/>
      <point x="461" y="630" type="line"/>
      <point x="361" y="160" type="line"/>
      <point x="238" y="160" type="line"/>
      <point x="102" y="560" type="line"/>
      <point x="11" y="560" type="line"/>
      <point x="174" y="80" type="line"/>
      <point x="344" y="80" type="line"/>
      <point x="311" y="-60" type="line"/>
      <point x="41" y="-60" type="line"/>
    </contour>
  </outline>
</glyph>
<glyph name="uni01B7" format="2">
  <advance width="610"/>
  <unicode hex="01B7"/>
  <outline>
    <contour>
      <point x="490" y="0" type="line"/>
      <point x="570" y="80" type="line"/>
      <point x="570" y="330" type="line"/>
      <point x="500" y="400" type="line"/>
      <point x="260" y="400" type="line"/>
      <point x="551" y="630" type="line"/>
      <point x="551" y="700" type="line"/>
      <point x="41" y="700" type="line"/>
      <point x="41" y="620" type="line"/>
      <point x="428" y="620" type="line"/>
      <point x="151" y="400" type="line"/>
      <point x="151" y="326" type="line"/>
      <point x="480" y="326" type="line"/>
      <point x="480" y="80" type="line"/>
      <point x="26" y="80" type="line"/>
      <point x="26" y="0" type="line"/>
    </contour>
  </outline>
</glyph>
<glyph name="uni01C0" format="2">
  <advance width="220"/>
  <unicode hex="01C0"/>
  <outline>
    <contour>
      <point x="70" y="-30" type="line"/>
      <point x="150" y="-30" type="line"/>
      <point x="150" y="730" type="line"/>
      <point x="70" y="730" type="line"/>
    </contour>
  </outline>
</glyph>
<glyph name="uni01C2" format="2">
  <advance width="600"/>
  <unicode hex="01C2"/>
  <outline>
    <contour>
      <point x="260" y="-30" type="line"/>
      <point x="340" y="-30" type="line"/>
      <point x="340" y="730" type="line"/>
      <point x="260" y="730" type="line"/>
    </contour>
    <contour>
      <point x="40" y="415" type="line"/>
      <point x="560" y="415" type="line"/>
      <point x="560" y="495" type="line"/>
      <point x="40" y="495" type="line"/>
    </contour>
    <contour>
      <point x="40" y="205" type="line"/>
      <point x="560" y="205" type="line"/>
      <point x="560" y="285" type="line"/>
      <point x="40" y="285" type="line"/>
    </contour>
  </outline>
</glyph>
<glyph name="uni01C4" format="2">
  <advance width="1195"/>
  <unicode hex="01C4"/>
  <anchor x="915" y="-0" name="bottom"/>
  <anchor x="915" y="700" name="top"/>
  <outline>
    <contour>
      <point x="150" y="80" type="line"/>
      <point x="150" y="620" type="line"/>
      <point x="485" y="620" type="line"/>
      <point x="485" y="80" type="line"/>
    </contour>
    <contour>
      <point x="60" y="0" type="line"/>
      <point x="495" y="0" type="line"/>
      <point x="575" y="80" type="line"/>
      <point x="575" y="620" type="line"/>
      <point x="495" y="700" type="line"/>
      <point x="60" y="700" type="line"/>
    </contour>
    <contour>
      <point x="685" y="0" type="line"/>
      <point x="1145" y="0" type="line"/>
      <point x="1145" y="80" type="line"/>
      <point x="790" y="80" type="line"/>
      <point x="1145" y="630" type="line"/>
      <point x="1145" y="700" type="line"/>
      <point x="685" y="700" type="line"/>
      <point x="685" y="620" type="line"/>
      <point x="1040" y="620" type="line"/>
      <point x="685" y="70" type="line"/>
    </contour>
    <contour>
      <point x="1105" y="905" type="line"/>
      <point x="915" y="835" type="line"/>
      <point x="725" y="905" type="line"/>
      <point x="725" y="825" type="line"/>
      <point x="915" y="755" type="line"/>
      <point x="1105" y="825" type="line"/>
    </contour>
  </outline>
</glyph>
<glyph name="uni01C5" format="2">
  <advance width="1165"/>
  <unicode hex="01C5"/>
  <anchor x="900" y="-0" name="bottom"/>
  <anchor x="900" y="560" name="top"/>
  <outline>
    <contour>
      <point x="150" y="80" type="line"/>
      <point x="150" y="620" type="line"/>
      <point x="485" y="620" type="line"/>
      <point x="485" y="80" type="line"/>
    </contour>
    <contour>
      <point x="60" y="0" type="line"/>
      <point x="495" y="0" type="line"/>
      <point x="575" y="80" type="line"/>
      <point x="575" y="620" type="line"/>
      <point x="495" y="700" type="line"/>
      <point x="60" y="700" type="line"/>
    </contour>
    <contour>
      <point x="665" y="0" type="line"/>
      <point x="1135" y="0" type="line"/>
      <point x="1135" y="80" type="line"/>
      <point x="777" y="80" type="line"/>
      <point x="1130" y="500" type="line"/>
      <point x="1130" y="560" type="line"/>
      <point x="672" y="560" type="line"/>
      <point x="672" y="480" type="line"/>
      <point x="1018" y="480" type="line"/>
      <point x="665" y="60" type="line"/>
    </contour>
    <contour>
      <point x="1090" y="765" type="line"/>
      <point x="900" y="695" type="line"/>
      <point x="710" y="765" type="line"/>
      <point x="710" y="685" type="line"/>
      <point x="900" y="615" type="line"/>
      <point x="1090" y="685" type="line"/>
    </contour>
  </outline>
</glyph>
<glyph name="uni01C6" format="2">
  <advance width="1150"/>
  <unicode hex="01C6"/>
  <anchor x="885" y="-0" name="bottom"/>
  <anchor x="885" y="560" name="top"/>
  <outline>
    <contour>
      <point x="560" y="700" type="line"/>
      <point x="470" y="700" type="line"/>
      <point x="470" y="560" type="line"/>
      <point x="145" y="560" type="line"/>
      <point x="55" y="470" type="line"/>
      <point x="55" y="90" type="line"/>
      <point x="145" y="0" type="line"/>
      <point x="560" y="0" type="line"/>
    </contour>
    <contour>
      <point x="145" y="80" type="line"/>
      <point x="145" y="480" type="line"/>
      <point x="470" y="480" type="line"/>
      <point x="470" y="80" type="line"/>
    </contour>
    <contour>
      <point x="650" y="0" type="line"/>
      <point x="1120" y="0" type="line"/>
      <point x="1120" y="80" type="line"/>
      <point x="762" y="80" type="line"/>
      <point x="1115" y="500" type="line"/>
      <point x="1115" y="560" type="line"/>
      <point x="657" y="560" type="line"/>
      <point x="657" y="480" type="line"/>
      <point x="1003" y="480" type="line"/>
      <point x="650" y="60" type="line"/>
    </contour>
    <contour>
      <point x="1075" y="765" type="line"/>
      <point x="885" y="695" type="line"/>
      <point x="695" y="765" type="line"/>
      <point x="695" y="685" type="line"/>
      <point x="885" y="615" type="line"/>
      <point x="1075" y="685" type="line"/>
    </contour>
  </outline>
</glyph>
<glyph name="uni01E4" format="2">
  <advance width="640"/>
  <unicode hex="01E4"/>
  <anchor x="340" y="700" name="top"/>
  <anchor x="340" y="0" name="bottom"/>
  <outline>
    <contour>
      <point x="60" y="80" type="line"/>
      <point x="140" y="0" type="line"/>
      <point x="580" y="0" type="line"/>
      <point x="580" y="405" type="line"/>
      <point x="290" y="405" type="line"/>
      <point x="290" y="325" type="line"/>
      <point x="490" y="325" type="line"/>
      <point x="490" y="80" type="line"/>
      <point x="150" y="80" type="line"/>
      <point x="150" y="620" type="line"/>
      <point x="540" y="620" type="line"/>
      <point x="540" y="700" type="line"/>
      <point x="140" y="700" type="line"/>
      <point x="60" y="620" type="line"/>
    </contour>
    <contour>
      <point x="290" y="194" type="line"/>
      <point x="625" y="194" type="line"/>
      <point x="625" y="270" type="line"/>
      <point x="290" y="270" type="line"/>
    </contour>
  </outline>
</glyph>
<glyph name="uni01E5" format="2">
  <advance width="610"/>
  <unicode hex="01E5"/>
  <anchor x="315" y="560" name="top"/>
  <anchor x="285" y="-160" name="bottom"/>
  <outline>
    <contour>
      <point x="90" y="-140" type="line"/>
      <point x="456" y="-140" type="line"/>
      <point x="550" y="-46" type="line"/>
      <point x="550" y="560" type="line"/>
      <point x="155" y="560" type="line"/>
      <point x="55" y="470" type="line"/>
      <point x="55" y="210" type="line"/>
      <point x="135" y="130" type="line"/>
      <point x="460" y="130" type="line"/>
      <point x="460" y="-60" type="line"/>
      <point x="90" y="-60" type="line"/>
    </contour>
    <contour>
      <point x="145" y="480" type="line"/>
      <point x="460" y="480" type="line"/>
      <point x="460" y="210" type="line"/>
      <point x="145" y="210" type="line"/>
    </contour>
    <contour>
      <point x="125" y="0" type="line"/>
      <point x="605" y="0" type="line"/>
      <point x="605" y="76" type="line"/>
      <point x="125" y="76" type="line"/>
    </contour>
  </outline>
</glyph>
<glyph name="uni0237" format="2">
  <advance width="210"/>
  <unicode hex="0237"/>
  <anchor x="105" y="560" name="top"/>
  <outline>
    <contour>
      <point x="60" y="-160" type="line"/>
      <point x="150" y="-160" type="line"/>
      <point x="150" y="560" type="line"/>
      <point x="60" y="560" type="line"/>
    </contour>
  </outline>
</glyph>
<glyph name="uni0244" format="2">
  <advance width="650"/>
  <unicode hex="0244"/>
  <anchor x="325" y="700" name="top"/>
  <anchor x="325" y="0" name="bottom"/>
  <outline>
    <component base="U"/>
    <contour>
      <point x="5" y="322" type="line"/>
      <point x="645" y="322" type="line"/>
      <point x="645" y="400" type="line"/>
      <point x="5" y="400" type="line"/>
    </contour>
  </outline>
</glyph>
<glyph name="uni0253" format="2">
  <advance width="620"/>
  <unicode hex="0253"/>
  <outline>
    <contour>
      <point x="150" y="80" type="line"/>
      <point x="150" y="450" type="line"/>
      <point x="475" y="450" type="line"/>
      <point x="475" y="80" type="line"/>
    </contour>
    <contour>
      <point x="60" y="0" type="line"/>
      <point x="475" y="0" type="line"/>
      <point x="565" y="90" type="line"/>
      <point x="565" y="440" type="line"/>
      <point x="475" y="530" type="line"/>
      <point x="150" y="530" type="line"/>
      <point x="150" y="620" type="line"/>
      <point x="330" y="620" type="line"/>
      <point x="330" y="700" type="line"/>
      <point x="150" y="700" type="line"/>
      <point x="60" y="610" type="line"/>
    </contour>
  </outline>
</glyph>
<glyph name="uni0256" format="2">
  <advance width="620"/>
  <unicode hex="0256"/>
  <outline>
    <contour>
      <point x="560" y="-60" type="line"/>
      <point x="560" y="700" type="line"/>
      <point x="470" y="700" type="line"/>
      <point x="470" y="560" type="line"/>
      <point x="145" y="560" type="line"/>
      <point x="55" y="470" type="line"/>
      <point x="55" y="90" type="line"/>
      <point x="145" y="0" type="line"/>
      <point x="470" y="0" type="line"/>
      <point x="470" y="-50" type="line"/>
      <point x="560" y="-140" type="line"/>
      <point x="630" y="-140" type="line"/>
      <point x="630" y="-60" type="line"/>
    </contour>
    <contour>
      <point x="145" y="480" type="line"/>
      <point x="470" y="480" type="line"/>
      <point x="470" y="80" type="line"/>
      <point x="145" y="80" type="line"/>
    </contour>
  </outline>
</glyph>
<glyph name="uni0257" format="2">
  <advance width="620"/>
  <unicode hex="0257"/>
  <outline>
    <contour>
      <point x="145" y="80" type="line"/>
      <point x="145" y="480" type="line"/>
      <point x="470" y="480" type="line"/>
      <point x="470" y="80" type="line"/>
    </contour>
    <contour>
      <point x="55" y="90" type="line"/>
      <point x="145" y="0" type="line"/>
      <point x="560" y="0" type="line"/>
      <point x="560" y="620" type="line"/>
      <point x="650" y="620" type="line"/>
      <point x="650" y="700" type="line"/>
      <point x="550" y="700" type="line"/>
      <point x="470" y="620" type="line"/>
      <point x="470" y="560" type="line"/>
      <point x="145" y="560" type="line"/>
      <point x="55" y="470" type="line"/>
    </contour>
  </outline>
</glyph>
<glyph name="uni0259" format="2">
  <advance width="590"/>
  <unicode hex="0259"/>
  <anchor x="295" y="0" name="bottom"/>
  <anchor x="280" y="560" name="top"/>
  <outline>
    <contour>
      <point x="535" y="465" type="line"/>
      <point x="440" y="560" type="line"/>
      <point x="75" y="560" type="line"/>
      <point x="75" y="480" type="line"/>
      <point x="445" y="480" type="line"/>
      <point x="445" y="310" type="line"/>
      <point x="55" y="310" type="line"/>
      <point x="55" y="95" type="line"/>
      <point x="150" y="0" type="line"/>
      <point x="440" y="0" type="line"/>
      <point x="535" y="95" type="line"/>
    </contour>
    <contour>
      <point x="445" y="240" type="line"/>
      <point x="445" y="80" type="line"/>
      <point x="145" y="80" type="line"/>
      <point x="145" y="230" type="line"/>
    </contour>
  </outline>
</glyph>
<glyph name="uni025B" format="2">
  <advance width="590"/>
  <unicode hex="025B"/>
  <anchor x="350" y="0" name="bottom"/>
  <anchor x="350" y="560" name="top"/>
  <outline>
    <contour>
      <point x="135" y="0" type="line"/>
      <point x="555" y="0" type="line"/>
      <point x="555" y="80" type="line"/>
      <point x="145" y="80" type="line"/>
      <point x="145" y="246" type="line"/>
      <point x="505" y="246" type="line"/>
      <point x="505" y="326" type="line"/>
      <point x="165" y="326" type="line"/>
      <point x="165" y="480" type="line"/>
      <point x="545" y="480" type="line"/>
      <point x="545" y="560" type="line"/>
      <point x="155" y="560" type="line"/>
      <point x="75" y="480" type="line"/>
      <point x="75" y="335" type="line"/>
      <point x="132" y="292" type="line"/>
      <point x="55" y="232" type="line"/>
      <point x="55" y="80" type="line"/>
    </contour>
  </outline>
</glyph>
<glyph name="uni0260" format="2">
  <advance width="610"/>
  <unicode hex="0260"/>
  <outline>
    <contour>
      <point x="145" y="160" type="line"/>
      <point x="145" y="480" type="line"/>
      <point x="460" y="480" type="line"/>
      <point x="460" y="160" type="line"/>
    </contour>
    <contour>
      <point x="90" y="-140" type="line"/>
      <point x="456" y="-140" type="line"/>
      <point x="550" y="-46" type="line"/>
      <point x="550" y="620" type="line"/>
      <point x="640" y="620" type="line"/>
      <point x="640" y="700" type="line"/>
      <point x="540" y="700" type="line"/>
      <point x="460" y="620" type="line"/>
      <point x="460" y="560" type="line"/>
      <point x="155" y="560" type="line"/>
      <point x="55" y="470" type="line"/>
      <point x="55" y="170" type="line"/>
      <point x="145" y="80" type="line"/>
      <point x="460" y="80" type="line"/>
      <point x="460" y="-60" type="line"/>
      <point x="90" y="-60" type="line"/>
    </contour>
  </outline>
</glyph>
<glyph name="uni0263" format="2">
  <advance width="590"/>
  <unicode hex="0263"/>
  <anchor x="295" y="-140" name="bottom"/>
  <anchor x="295" y="560" name="top"/>
  <outline>
    <contour>
      <point x="170" y="-140" type="line"/>
      <point x="420" y="-140" type="line"/>
      <point x="510" y="-50" type="line"/>
      <point x="510" y="143" type="line"/>
      <point x="356" y="312" type="line"/>
      <point x="590" y="560" type="line"/>
      <point x="466" y="560" type="line"/>
      <point x="298" y="362" type="line"/>
      <point x="292" y="362" type="line"/>
      <point x="124" y="560" type="line"/>
      <point x="0" y="560" type="line"/>
      <point x="234" y="312" type="line"/>
      <point x="80" y="143" type="line"/>
      <point x="80" y="-50" type="line"/>
    </contour>
    <contour>
      <point x="170" y="-60" type="line"/>
      <point x="170" y="120" type="line"/>
      <point x="295" y="266" type="line"/>
      <point x="420" y="120" type="line"/>
      <point x="420" y="-60" type="line"/>
    </contour>
  </outline>
</glyph>
<glyph name="uni0268" format="2">
  <advance width="210"/>
  <unicode hex="0268"/>
  <outline>
    <component base="i"/>
    <contour>
      <point x="10" y="274" type="line"/>
      <point x="200" y="274" type="line"/>
      <point x="200" y="350" type="line"/>
      <point x="10" y="350" type="line"/>
    </contour>
  </outline>
</glyph>
<glyph name="uni0272" format="2">
  <advance width="620"/>
  <unicode hex="0272"/>
  <outline>
    <contour>
      <point x="-10" y="-140" type="line"/>
      <point x="60" y="-140" type="line"/>
      <point x="150" y="-50" type="line"/>
      <point x="150" y="480" type="line"/>
      <point x="470" y="480" type="line"/>
      <point x="470" y="0" type="line"/>
      <point x="560" y="0" type="line"/>
      <point x="560" y="470" type="line"/>
      <point x="470" y="560" type="line"/>
      <point x="60" y="560" type="line"/>
      <point x="60" y="-60" type="line"/>
      <point x="-10" y="-60" type="line"/>
    </contour>
  </outline>
</glyph>
<glyph name="uni0289" format="2">
  <advance width="620"/>
  <unicode hex="0289"/>
  <anchor x="310" y="0" name="bottom"/>
  <anchor x="470" y="0" name="ogonek"/>
  <anchor x="310" y="560" name="top"/>
  <outline>
    <component base="u"/>
    <contour>
      <point x="10" y="274" type="line"/>
      <point x="610" y="274" type="line"/>
      <point x="610" y="350" type="line"/>
      <point x="10" y="350" type="line"/>
    </contour>
  </outline>
</glyph>
<glyph name="uni028B" format="2">
  <advance width="620"/>
  <unicode hex="028B"/>
  <outline>
    <contour>
      <point x="140" y="0" type="line"/>
      <point x="480" y="0" type="line"/>
      <point x="560" y="80" type="line"/>
      <point x="560" y="470" type="line"/>
      <point x="470" y="560" type="line"/>
      <point x="290" y="560" type="line"/>
      <point x="290" y="480" type="line"/>
      <point x="470" y="480" type="line"/>
      <point x="470" y="80" type="line"/>
      <point x="150" y="80" type="line"/>
      <point x="150" y="560" type="line"/>
      <point x="60" y="560" type="line"/>
      <point x="60" y="80" type="line"/>
    </contour>
  </outline>
</glyph>
<glyph name="uni0292" format="2">
  <advance width="580"/>
  <unicode hex="0292"/>
  <outline>
    <contour>
      <point x="460" y="-140" type="line"/>
      <point x="540" y="-60" type="line"/>
      <point x="540" y="180" type="line"/>
      <point x="470" y="250" type="line"/>
      <point x="230" y="250" type="line"/>
      <point x="521" y="490" type="line"/>
      <point x="521" y="560" type="line"/>
      <point x="41" y="560" type="line"/>
      <point x="41" y="480" type="line"/>
      <point x="398" y="480" type="line"/>
      <point x="121" y="250" type="line"/>
      <point x="121" y="176" type="line"/>
      <point x="450" y="176" type="line"/>
      <point x="450" y="-60" type="line"/>
      <point x="26" y="-60" type="line"/>
      <point x="26" y="-140" type="line"/>
    </contour>
  </outline>
</glyph>
<glyph name="uni0294" format="2">
  <advance width="550"/>
  <unicode hex="0294"/>
  <outline>
    <contour>
      <point x="230" y="0" type="line"/>
      <point x="230" y="289" type="line"/>
      <point x="535" y="369" type="line"/>
      <point x="535" y="610" type="line"/>
      <point x="445" y="700" type="line"/>
      <point x="15" y="700" type="line"/>
      <point x="15" y="620" type="line"/>
      <point x="445" y="620" type="line"/>
      <point x="445" y="426" type="line"/>
      <point x="140" y="346" type="line"/>
      <point x="140" y="0" type="line"/>
    </contour>
  </outline>
</glyph>
<glyph name="uni02BA" format="2">
  <advance width="350"/>
  <unicode hex="02BA"/>
  <outline>
    <contour>
      <point x="55" y="460" type="line"/>
      <point x="115" y="460" type="line"/>
      <point x="155" y="700" type="line"/>
      <point x="55" y="700" type="line"/>
    </contour>
    <contour>
      <point x="205" y="460" type="line"/>
      <point x="265" y="460" type="line"/>
      <point x="305" y="700" type="line"/>
      <point x="205" y="700" type="line"/>
    </contour>
  </outline>
</glyph>
<glyph name="dotaccent" format="2">
  <advance width="170"/>
  <unicode hex="02D9"/>
  <outline>
    <contour>
      <point x="40" y="630" type="line"/>
      <point x="130" y="630" type="line"/>
      <point x="130" y="710" type="line"/>
      <point x="40" y="710" type="line"/>
    </contour>
  </outline>
</glyph>
<glyph name="tilde" format="2">
  <advance width="500"/>
  <unicode hex="02DC"/>
  <outline>
    <contour>
      <point x="60" y="620" type="line"/>
      <point x="156" y="675" type="line"/>
      <point x="360" y="615" type="line"/>
      <point x="460" y="685" type="line"/>
      <point x="440" y="750" type="line"/>
      <point x="344" y="695" type="line"/>
      <point x="140" y="755" type="line"/>
      <point x="40" y="685" type="line"/>
    </contour>
  </outline>
</glyph>
<glyph name="hungarumlaut" format="2">
  <advance width="385"/>
  <unicode hex="02DD"/>
  <outline>
    <contour>
      <point x="40" y="610" type="line"/>
      <point x="115" y="610" type="line"/>
      <point x="180" y="730" type="line"/>
      <point x="80" y="730" type="line"/>
    </contour>
    <contour>
      <point x="185" y="610" type="line"/>
      <point x="265" y="610" type="line"/>
      <point x="345" y="730" type="line"/>
      <point x="245" y="730" type="line"/>
    </contour>
  </outline>
</glyph>
<glyph name="gravecomb" format="2">
  <unicode hex="0300"/>
  <anchor x="0" y="560" name="_top"/>
  <outline>
    <contour>
      <point x="130" y="640" type="line"/>
      <point x="130" y="700" type="line"/>
      <point x="-190" y="725" type="line"/>
      <point x="-190" y="640" type="line"/>
    </contour>
  </outline>
</glyph>
<glyph name="acutecomb" format="2">
  <unicode hex="0301"/>
  <anchor x="0" y="560" name="_top"/>
  <outline>
    <contour>
      <point x="-130" y="640" type="line"/>
      <point x="190" y="640" type="line"/>
      <point x="190" y="725" type="line"/>
      <point x="-130" y="700" type="line"/>
    </contour>
  </outline>
</glyph>
<glyph name="tildecomb" format="2">
  <unicode hex="0303"/>
  <anchor x="0" y="560" name="_top"/>
  <anchor x="0" y="730" name="top"/>
  <outline>
    <contour>
      <point x="-190" y="620" type="line"/>
      <point x="-94" y="675" type="line"/>
      <point x="110" y="615" type="line"/>
      <point x="210" y="685" type="line"/>
      <point x="190" y="750" type="line"/>
      <point x="94" y="695" type="line"/>
      <point x="-110" y="755" type="line"/>
      <point x="-210" y="685" type="line"/>
    </contour>
  </outline>
</glyph>
<glyph name="uni0304" format="2">
  <unicode hex="0304"/>
  <anchor x="0" y="560" name="_top"/>
  <anchor x="0" y="730" name="top"/>
  <outline>
    <contour>
      <point x="-170" y="654" type="line"/>
      <point x="170" y="654" type="line"/>
      <point x="170" y="730" type="line"/>
      <point x="-170" y="730" type="line"/>
    </contour>
  </outline>
</glyph>
<glyph name="uni0306" format="2">
  <unicode hex="0306"/>
  <anchor x="0" y="560" name="_top"/>
  <outline>
    <contour>
      <point x="90" y="750" type="line"/>
      <point x="67" y="690" type="line"/>
      <point x="-67" y="690" type="line"/>
      <point x="-90" y="750" type="line"/>
      <point x="-170" y="750" type="line"/>
      <point x="-120" y="630" type="line"/>
      <point x="120" y="630" type="line"/>
      <point x="170" y="750" type="line"/>
    </contour>
  </outline>
</glyph>
<glyph name="uni0307" format="2">
  <unicode hex="0307"/>
  <anchor x="0" y="560" name="_top"/>
  <outline>
    <contour>
      <point x="-45" y="630" type="line"/>
      <point x="45" y="630" type="line"/>
      <point x="45" y="710" type="line"/>
      <point x="-45" y="710" type="line"/>
    </contour>
  </outline>
</glyph>
<glyph name="uni0308" format="2">
  <unicode hex="0308"/>
  <anchor x="0" y="560" name="_top"/>
  <anchor x="0" y="710" name="top"/>
  <outline>
    <contour>
      <point x="-155" y="630" type="line"/>
      <point x="-65" y="630" type="line"/>
      <point x="-65" y="710" type="line"/>
      <point x="-155" y="710" type="line"/>
    </contour>
    <contour>
      <point x="65" y="630" type="line"/>
      <point x="155" y="630" type="line"/>
      <point x="155" y="710" type="line"/>
      <point x="65" y="710" type="line"/>
    </contour>
  </outline>
</glyph>
<glyph name="hookabovecomb" format="2">
  <unicode hex="0309"/>
  <anchor x="0" y="560" name="_top"/>
  <outline>
    <contour>
      <point x="-90" y="670" type="line"/>
      <point x="25" y="670" type="line"/>
      <point x="-45" y="590" type="line"/>
      <point x="40" y="590" type="line"/>
      <point x="110" y="670" type="line"/>
      <point x="110" y="730" type="line"/>
      <point x="-90" y="730" type="line"/>
    </contour>
  </outline>
</glyph>
<glyph name="uni030A" format="2">
  <unicode hex="030A"/>
  <anchor x="0" y="560" name="_top"/>
  <anchor x="0" y="790" name="top"/>
  <outline>
    <contour>
      <point x="-138" y="641" type="line"/>
      <point x="-77" y="590" type="line"/>
      <point x="77" y="590" type="line"/>
      <point x="138" y="641" type="line"/>
      <point x="138" y="739" type="line"/>
      <point x="77" y="790" type="line"/>
      <point x="-77" y="790" type="line"/>
      <point x="-138" y="739" type="line"/>
    </contour>
    <contour>
      <point x="-70" y="654" type="line"/>
      <point x="-70" y="726" type="line"/>
      <point x="70" y="726" type="line"/>
      <point x="70" y="654" type="line"/>
    </contour>
  </outline>
</glyph>
<glyph name="uni030B" format="2">
  <unicode hex="030B"/>
  <anchor x="0" y="560" name="_top"/>
  <outline>
    <contour>
      <point x="-120" y="583" type="line"/>
      <point x="-45" y="583" type="line"/>
      <point x="20" y="743" type="line"/>
      <point x="-80" y="743" type="line"/>
    </contour>
    <contour>
      <point x="25" y="583" type="line"/>
      <point x="105" y="583" type="line"/>
      <point x="185" y="743" type="line"/>
      <point x="85" y="743" type="line"/>
    </contour>
  </outline>
</glyph>
<glyph name="uni030C" format="2">
  <unicode hex="030C"/>
  <anchor x="0" y="560" name="_top"/>
  <outline>
    <contour>
      <point x="190" y="765" type="line"/>
      <point x="0" y="695" type="line"/>
      <point x="-190" y="765" type="line"/>
      <point x="-190" y="685" type="line"/>
      <point x="0" y="615" type="line"/>
      <point x="190" y="685" type="line"/>
    </contour>
  </outline>
</glyph>
<glyph name="uni030F" format="2">
  <unicode hex="030F"/>
  <anchor x="0" y="560" name="_top"/>
  <outline>
    <contour>
      <point x="80" y="730" type="line"/>
      <point x="-20" y="730" type="line"/>
      <point x="45" y="610" type="line"/>
      <point x="120" y="610" type="line"/>
    </contour>
    <contour>
      <point x="-85" y="730" type="line"/>
      <point x="-185" y="730" type="line"/>
      <point x="-105" y="610" type="line"/>
      <point x="-25" y="610" type="line"/>
    </contour>
  </outline>
</glyph>
<glyph name="uni0311" format="2">
  <unicode hex="0311"/>
  <anchor x="0" y="560" name="_top"/>
  <outline>
    <contour>
      <point x="-90" y="615" type="line"/>
      <point x="-67" y="675" type="line"/>
      <point x="67" y="675" type="line"/>
      <point x="90" y="615" type="line"/>
      <point x="170" y="615" type="line"/>
      <point x="120" y="735" type="line"/>
      <point x="-120" y="735" type="line"/>
      <point x="-170" y="615" type="line"/>
    </contour>
  </outline>
</glyph>
<glyph name="uni0312" format="2">
  <unicode hex="0312"/>
  <anchor x="0" y="560" name="_top"/>
  <outline>
    <contour>
      <point x="77" y="760" type="line"/>
      <point x="4" y="760" type="line"/>
      <point x="-65" y="620" type="line"/>
      <point x="32" y="620" type="line"/>
    </contour>
  </outline>
</glyph>
<glyph name="uni031B" format="2">
  <unicode hex="031B"/>
  <outline>
    <contour>
      <point x="-70" y="700" type="line"/>
      <point x="-145" y="700" type="line"/>
      <point x="-145" y="620" type="line"/>
      <point x="-60" y="620" type="line"/>
      <point x="20" y="700" type="line"/>
      <point x="20" y="780" type="line"/>
      <point x="-70" y="780" type="line"/>
    </contour>
  </outline>
</glyph>
<glyph name="uni0326" format="2">
  <unicode hex="0326"/>
  <anchor x="0" y="0" name="_bottom"/>
  <outline>
    <contour>
      <point x="-82" y="-200" type="line"/>
      <point x="-9" y="-200" type="line"/>
      <point x="60" y="-60" type="line"/>
      <point x="-37" y="-60" type="line"/>
    </contour>
  </outline>
</glyph>
<glyph name="uni0327" format="2">
  <unicode hex="0327"/>
  <anchor x="0" y="0" name="_bottom"/>
  <outline>
    <contour>
      <point x="-82" y="-200" type="line"/>
      <point x="-9" y="-200" type="line"/>
      <point x="60" y="-60" type="line"/>
      <point x="-37" y="-60" type="line"/>
    </contour>
  </outline>
</glyph>
<glyph name="uni0328" format="2">
  <unicode hex="0328"/>
  <anchor x="0" y="0" name="_ogonek"/>
  <anchor x="0" y="0" name="_bottom"/>
  <outline>
    <contour>
      <point x="50" y="-60" type="line"/>
      <point x="-23" y="-60" type="line"/>
      <point x="-87" y="-200" type="line"/>
      <point x="10" y="-200" type="line"/>
    </contour>
  </outline>
</glyph>
<glyph name="uni0329" format="2">
  <unicode hex="0329"/>
  <anchor x="0" y="0" name="_bottom"/>
  <outline>
    <contour>
      <point x="-45" y="-220" type="line"/>
      <point x="45" y="-220" type="line"/>
      <point x="45" y="-80" type="line"/>
      <point x="-45" y="-80" type="line"/>
    </contour>
  </outline>
</glyph>
<glyph name="uni0331" format="2">
  <unicode hex="0331"/>
  <anchor x="0" y="0" name="_bottom"/>
  <outline>
    <contour>
      <point x="-170" y="-116" type="line"/>
      <point x="170" y="-116" type="line"/>
      <point x="170" y="-40" type="line"/>
      <point x="-170" y="-40" type="line"/>
    </contour>
  </outline>
</glyph>
<glyph name="uni0375" format="2">
  <advance width="200"/>
  <unicode hex="0375"/>
  <outline>
    <contour>
      <point x="145" y="100" type="line"/>
      <point x="85" y="100" type="line"/>
      <point x="45" y="-140" type="line"/>
      <point x="145" y="-140" type="line"/>
    </contour>
  </outline>
</glyph>
<glyph name="uni037E" format="2">
  <advance width="250"/>
  <unicode hex="037E"/>
  <outline>
    <contour>
      <point x="76" y="0" type="line"/>
      <point x="99" y="0" type="line"/>
      <point x="18" y="-140" type="line"/>
      <point x="90" y="-140" type="line"/>
      <point x="170" y="0" type="line"/>
      <point x="170" y="100" type="line"/>
      <point x="76" y="100" type="line"/>
    </contour>
    <contour>
      <point x="66" y="360" type="line"/>
      <point x="156" y="360" type="line"/>
      <point x="156" y="460" type="line"/>
      <point x="66" y="460" type="line"/>
    </contour>
  </outline>
</glyph>
<glyph name="tonos" format="2">
  <advance width="200"/>
  <unicode hex="0384"/>
  <outline>
    <contour>
      <point x="55" y="460" type="line"/>
      <point x="115" y="460" type="line"/>
      <point x="155" y="700" type="line"/>
      <point x="55" y="700" type="line"/>
    </contour>
  </outline>
</glyph>
<glyph name="iotadieresistonos" format="2">
  <advance width="310"/>
  <unicode hex="0390"/>
  <anchor x="170" y="0" name="bottom"/>
  <anchor x="115" y="710" name="top"/>
  <outline>
    <component base="tonoscomb" xOffset="115" yOffset="150"/>
    <contour>
      <point x="70" y="560" type="line"/>
      <point x="70" y="80" type="line"/>
      <point x="150" y="0" type="line"/>
      <point x="290" y="0" type="line"/>
      <point x="290" y="82" type="line"/>
      <point x="160" y="82" type="line"/>
      <point x="160" y="560" type="line"/>
    </contour>
    <contour>
      <point x="-40" y="630" type="line"/>
      <point x="50" y="630" type="line"/>
      <point x="50" y="710" type="line"/>
      <point x="-40" y="710" type="line"/>
    </contour>
    <contour>
      <point x="180" y="630" type="line"/>
      <point x="270" y="630" type="line"/>
      <point x="270" y="710" type="line"/>
      <point x="180" y="710" type="line"/>
    </contour>
  </outline>
</glyph>
<glyph name="Gamma" format="2">
  <advance width="510"/>
  <unicode hex="0393"/>
  <anchor x="255" y="0" name="bottom"/>
  <anchor x="255" y="700" name="top"/>
  <outline>
    <contour>
      <point x="60" y="0" type="line"/>
      <point x="150" y="0" type="line"/>
      <point x="150" y="620" type="line"/>
      <point x="500" y="620" type="line"/>
      <point x="500" y="700" type="line"/>
      <point x="60" y="700" type="line"/>
    </contour>
  </outline>
</glyph>
<glyph name="uni0394" format="2">
  <advance width="680"/>
  <unicode hex="0394"/>
  <outline>
    <contour>
      <point x="461" y="700" type="line"/>
      <point x="219" y="700" type="line"/>
      <point x="15" y="0" type="line"/>
      <point x="106" y="0" type="line"/>
      <point x="285" y="620" type="line"/>
      <point x="395" y="620" type="line"/>
      <point x="574" y="0" type="line"/>
      <point x="665" y="0" type="line"/>
    </contour>
    <contour>
      <point x="70" y="0" type="line"/>
      <point x="630" y="0" type="line"/>
      <point x="630" y="80" type="line"/>
      <point x="70" y="80" type="line"/>
    </contour>
  </outline>
</glyph>
<glyph name="Theta" format="2">
  <advance width="650"/>
  <unicode hex="0398"/>
  <anchor x="325" y="0" name="bottom"/>
  <anchor x="325" y="700" name="top"/>
  <outline>
    <contour>
      <point x="60" y="80" type="line"/>
      <point x="140" y="0" type="line"/>
      <point x="510" y="0" type="line"/>
      <point x="590" y="80" type="line"/>
      <point x="590" y="620" type="line"/>
      <point x="510" y="700" type="line"/>
      <point x="140" y="700" type="line"/>
      <point x="60" y="620" type="line"/>
    </contour>
    <contour>
      <point x="150" y="620" type="line"/>
      <point x="500" y="620" type="line"/>
      <point x="500" y="390" type="line"/>
      <point x="150" y="390" type="line"/>
    </contour>
    <contour>
      <point x="150" y="80" type="line"/>
      <point x="150" y="310" type="line"/>
      <point x="500" y="310" type="line"/>
      <point x="500" y="80" type="line"/>
    </contour>
  </outline>
</glyph>
<glyph name="Lambda" format="2">
  <advance width="650"/>
  <unicode hex="039B"/>
  <anchor x="325" y="0" name="bottom"/>
  <anchor x="325" y="700" name="top"/>
  <outline>
    <contour>
      <point x="448" y="700" type="line"/>
      <point x="202" y="700" type="line"/>
      <point x="20" y="0" type="line"/>
      <point x="112" y="0" type="line"/>
      <point x="271" y="620" type="line"/>
      <point x="379" y="620" type="line"/>
      <point x="538" y="0" type="line"/>
      <point x="630" y="0" type="line"/>
    </contour>
  </outline>
</glyph>
<glyph name="Xi" format="2">
  <advance width="660"/>
  <unicode hex="039E"/>
  <anchor x="330" y="700" name="top"/>
  <anchor x="330" y="0" name="bottom"/>
  <outline>
    <contour>
      <point x="30" y="0" type="line"/>
      <point x="630" y="0" type="line"/>
      <point x="630" y="80" type="line"/>
      <point x="373" y="80" type="line"/>
      <point x="373" y="320" type="line"/>
      <point x="570" y="320" type="line"/>
      <point x="570" y="400" type="line"/>
      <point x="373" y="400" type="line"/>
      <point x="373" y="620" type="line"/>
      <point x="620" y="620" type="line"/>
      <point x="620" y="700" type="line"/>
      <point x="40" y="700" type="line"/>
      <point x="40" y="620" type="line"/>
      <point x="287" y="620" type="line"/>
      <point x="287" y="400" type="line"/>
      <point x="90" y="400" type="line"/>
      <point x="90" y="320" type="line"/>
      <point x="287" y="320" type="line"/>
      <point x="287" y="80" type="line"/>
      <point x="30" y="80" type="line"/>
    </contour>
  </outline>
</glyph>
<glyph name="Pi" format="2">
  <advance width="650"/>
  <unicode hex="03A0"/>
  <anchor x="325" y="700" name="top"/>
  <anchor x="325" y="0" name="bottom"/>
  <outline>
    <contour>
      <point x="60" y="0" type="line"/>
      <point x="150" y="0" type="line"/>
      <point x="150" y="620" type="line"/>
      <point x="500" y="620" type="line"/>
      <point x="500" y="0" type="line"/>
      <point x="590" y="0" type="line"/>
      <point x="590" y="700" type="line"/>
      <point x="60" y="700" type="line"/>
    </contour>
  </outline>
</glyph>
<glyph name="Sigma" format="2">
  <advance width="560"/>
  <unicode hex="03A3"/>
  <outline>
    <contour>
      <point x="50" y="0" type="line"/>
      <point x="510" y="0" type="line"/>
      <point x="510" y="80" type="line"/>
      <point x="168" y="80" type="line"/>
      <point x="403" y="350" type="line"/>
      <point x="173" y="620" type="line"/>
      <point x="505" y="620" type="line"/>
      <point x="505" y="700" type="line"/>
      <point x="55" y="700" type="line"/>
      <point x="55" y="630" type="line"/>
      <point x="294" y="350" type="line"/>
      <point x="50" y="70" type="line"/>
    </contour>
  </outline>
</glyph>
<glyph name="Phi" format="2">
  <advance width="800"/>
  <unicode hex="03A6"/>
  <anchor x="400" y="700" name="top"/>
  <anchor x="400" y="0" name="bottom"/>
  <outline>
    <contour>
      <point x="60" y="150" type="line"/>
      <point x="140" y="70" type="line"/>
      <point x="660" y="70" type="line"/>
      <point x="740" y="150" type="line"/>
      <point x="740" y="550" type="line"/>
      <point x="660" y="630" type="line"/>
      <point x="140" y="630" type="line"/>
      <point x="60" y="550" type="line"/>
    </contour>
    <contour>
      <point x="150" y="550" type="line"/>
      <point x="650" y="550" type="line"/>
      <point x="650" y="150" type="line"/>
      <point x="150" y="150" type="line"/>
    </contour>
    <contour>
      <point x="445" y="0" type="line"/>
      <point x="445" y="700" type="line"/>
      <point x="355" y="700" type="line"/>
      <point x="355" y="0" type="line"/>
    </contour>
  </outline>
</glyph>
<glyph name="Psi" format="2">
  <advance width="800"/>
  <unicode hex="03A8"/>
  <anchor x="400" y="0" name="bottom"/>
  <anchor x="400" y="700" name="top"/>
  <outline>
    <contour>
      <point x="140" y="180" type="line"/>
      <point x="355" y="180" type="line"/>
      <point x="355" y="0" type="line"/>
      <point x="445" y="0" type="line"/>
      <point x="445" y="180" type="line"/>
      <point x="660" y="180" type="line"/>
      <point x="740" y="260" type="line"/>
      <point x="740" y="700" type="line"/>
      <point x="650" y="700" type="line"/>
      <point x="650" y="260" type="line"/>
      <point x="445" y="260" type="line"/>
      <point x="445" y="700" type="line"/>
      <point x="355" y="700" type="line"/>
      <point x="355" y="260" type="line"/>
      <point x="150" y="260" type="line"/>
      <point x="150" y="700" type="line"/>
      <point x="60" y="700" type="line"/>
      <point x="60" y="260" type="line"/>
    </contour>
  </outline>
</glyph>
<glyph name="alpha" format="2">
  <advance width="630"/>
  <unicode hex="03B1"/>
  <anchor x="315" y="0" name="bottom"/>
  <anchor x="315" y="560" name="top"/>
  <outline>
    <contour>
      <point x="140" y="0" type="line"/>
      <point x="410" y="0" type="line"/>
      <point x="475" y="55" type="line"/>
      <point x="482" y="0" type="line"/>
      <point x="572" y="0" type="line"/>
      <point x="548" y="280" type="line"/>
      <point x="572" y="560" type="line"/>
      <point x="482" y="560" type="line"/>
      <point x="475" y="505" type="line"/>
      <point x="410" y="560" type="line"/>
      <point x="140" y="560" type="line"/>
      <point x="60" y="480" type="line"/>
      <point x="60" y="80" type="line"/>
    </contour>
    <contour>
      <point x="150" y="80" type="line"/>
      <point x="150" y="480" type="line"/>
      <point x="475" y="480" type="line"/>
      <point x="475" y="80" type="line"/>
    </contour>
  </outline>
</glyph>
<glyph name="beta" format="2">
  <advance width="630"/>
  <unicode hex="03B2"/>
  <outline>
    <contour>
      <point x="565" y="610" type="line"/>
      <point x="475" y="700" type="line"/>
      <point x="150" y="700" type="line"/>
      <point x="60" y="610" type="line"/>
      <point x="60" y="-100" type="line"/>
      <point x="150" y="-100" type="line"/>
      <point x="150" y="620" type="line"/>
      <point x="475" y="620" type="line"/>
      <point x="475" y="415" type="line"/>
      <point x="250" y="415" type="line"/>
      <point x="250" y="335" type="line"/>
      <point x="500" y="335" type="line"/>
      <point x="500" y="80" type="line"/>
      <point x="90" y="80" type="line"/>
      <point x="90" y="0" type="line"/>
      <point x="500" y="0" type="line"/>
      <point x="590" y="90" type="line"/>
      <point x="590" y="326" type="line"/>
      <point x="513" y="386" type="line"/>
      <point x="565" y="439" type="line"/>
    </contour>
  </outline>
</glyph>
<glyph name="gamma" format="2">
  <advance width="580"/>
  <unicode hex="03B3"/>
  <anchor x="290" y="-140" name="bottom"/>
  <anchor x="290" y="560" name="top"/>
  <outline>
    <contour>
      <point x="245" y="5" type="line"/>
      <point x="245" y="-140" type="line"/>
      <point x="335" y="-140" type="line"/>
      <point x="335" y="5" type="line"/>
      <point x="569" y="560" type="line"/>
      <point x="478" y="560" type="line"/>
      <point x="295" y="110" type="line"/>
      <point x="285" y="110" type="line"/>
      <point x="102" y="560" type="line"/>
      <point x="11" y="560" type="line"/>
    </contour>
  </outline>
</glyph>
<glyph name="delta" format="2">
  <advance width="660"/>
  <unicode hex="03B4"/>
  <anchor x="330" y="0" name="bottom"/>
  <anchor x="330" y="700" name="top"/>
  <outline>
    <contour>
      <point x="150" y="0" type="line"/>
      <point x="510" y="0" type="line"/>
      <point x="600" y="90" type="line"/>
      <point x="600" y="490" type="line"/>
      <point x="221" y="626" type="line"/>
      <point x="555" y="626" type="line"/>
      <point x="555" y="700" type="line"/>
      <point x="115" y="700" type="line"/>
      <point x="115" y="610" type="line"/>
      <point x="510" y="440" type="line"/>
      <point x="510" y="80" type="line"/>
      <point x="150" y="80" type="line"/>
      <point x="150" y="432" type="line"/>
      <point x="376" y="533" type="line"/>
      <point x="290" y="552" type="line"/>
      <point x="60" y="480" type="line"/>
      <point x="60" y="90" type="line"/>
    </contour>
  </outline>
</glyph>
<glyph name="zeta" format="2">
  <advance width="540"/>
  <unicode hex="03B6"/>
  <anchor x="270" y="700" name="top"/>
  <anchor x="270" y="-120" name="bottom"/>
  <outline>
    <contour>
      <point x="135" y="0" type="line"/>
      <point x="445" y="0" type="line"/>
      <point x="445" y="-160" type="line"/>
      <point x="525" y="-160" type="line"/>
      <point x="525" y="78" type="line"/>
      <point x="145" y="78" type="line"/>
      <point x="145" y="386" type="line"/>
      <point x="500" y="620" type="line"/>
      <point x="500" y="700" type="line"/>
      <point x="55" y="700" type="line"/>
      <point x="55" y="624" type="line"/>
      <point x="385" y="624" type="line"/>
      <point x="55" y="410" type="line"/>
      <point x="55" y="80" type="line"/>
    </contour>
  </outline>
</glyph>
<glyph name="theta" format="2">
  <advance width="620"/>
  <unicode hex="03B8"/>
  <anchor x="310" y="0" name="bottom"/>
  <anchor x="310" y="700" name="top"/>
  <outline>
    <contour>
      <point x="60" y="80" type="line"/>
      <point x="140" y="0" type="line"/>
      <point x="480" y="0" type="line"/>
      <point x="560" y="80" type="line"/>
      <point x="560" y="620" type="line"/>
      <point x="480" y="700" type="line"/>
      <point x="140" y="700" type="line"/>
      <point x="60" y="620" type="line"/>
    </contour>
    <contour>
      <point x="150" y="620" type="line"/>
      <point x="470" y="620" type="line"/>
      <point x="470" y="390" type="line"/>
      <point x="150" y="390" type="line"/>
    </contour>
    <contour>
      <point x="150" y="80" type="line"/>
      <point x="150" y="310" type="line"/>
      <point x="470" y="310" type="line"/>
      <point x="470" y="80" type="line"/>
    </contour>
  </outline>
</glyph>
<glyph name="iota" format="2">
  <advance width="310"/>
  <unicode hex="03B9"/>
  <anchor x="170" y="0" name="bottom"/>
  <anchor x="115" y="560" name="top"/>
  <outline>
    <contour>
      <point x="70" y="560" type="line"/>
      <point x="70" y="80" type="line"/>
      <point x="150" y="0" type="line"/>
      <point x="290" y="0" type="line"/>
      <point x="290" y="82" type="line"/>
      <point x="160" y="82" type="line"/>
      <point x="160" y="560" type="line"/>
    </contour>
  </outline>
</glyph>
<glyph name="kappa" format="2">
  <advance width="630"/>
  <unicode hex="03BA"/>
  <anchor x="330" y="0" name="bottom"/>
  <anchor x="305" y="560" name="top"/>
  <outline>
    <contour>
      <point x="70" y="0" type="line"/>
      <point x="160" y="0" type="line"/>
      <point x="160" y="251" type="line"/>
      <point x="367" y="251" type="line"/>
      <point x="518" y="0" type="line"/>
      <point x="620" y="0" type="line"/>
      <point x="435" y="302" type="line"/>
      <point x="612" y="560" type="line"/>
      <point x="508" y="560" type="line"/>
      <point x="354" y="331" type="line"/>
      <point x="160" y="331" type="line"/>
      <point x="160" y="560" type="line"/>
      <point x="70" y="560" type="line"/>
    </contour>
  </outline>
</glyph>
<glyph name="lambda" format="2">
  <advance width="600"/>
  <unicode hex="03BB"/>
  <anchor x="300" y="700" name="top"/>
  <anchor x="300" y="0" name="bottom"/>
  <outline>
    <contour>
      <point x="140" y="700" type="line"/>
      <point x="140" y="620" type="line"/>
      <point x="302" y="620" type="line"/>
      <point x="345" y="480" type="line"/>
      <point x="174" y="480" type="line"/>
      <point x="11" y="0" type="line"/>
      <point x="102" y="0" type="line"/>
      <point x="237" y="400" type="line"/>
      <point x="369" y="400" type="line"/>
      <point x="498" y="0" type="line"/>
      <point x="589" y="0" type="line"/>
      <point x="365" y="700" type="line"/>
    </contour>
  </outline>
</glyph>
<glyph name="uni03BC" format="2">
  <advance width="620"/>
  <unicode hex="03BC"/>
  <outline>
    <contour>
      <point x="560" y="560" type="line"/>
      <point x="470" y="560" type="line"/>
      <point x="470" y="80" type="line"/>
      <point x="150" y="80" type="line"/>
      <point x="150" y="560" type="line"/>
      <point x="60" y="560" type="line"/>
      <point x="60" y="-160" type="line"/>
      <point x="150" y="-160" type="line"/>
      <point x="150" y="0" type="line"/>
      <point x="560" y="0" type="line"/>
    </contour>
  </outline>
</glyph>
<glyph name="nu" format="2">
  <advance width="580"/>
  <unicode hex="03BD"/>
  <anchor x="290" y="560" name="top"/>
  <anchor x="290" y="0" name="bottom"/>
  <outline>
    <contour>
      <point x="182" y="0" type="line"/>
      <point x="398" y="0" type="line"/>
      <point x="569" y="560" type="line"/>
      <point x="478" y="560" type="line"/>
      <point x="332" y="80" type="line"/>
      <point x="248" y="80" type="line"/>
      <point x="102" y="560" type="line"/>
      <point x="11" y="560" type="line"/>
    </contour>
  </outline>
</glyph>
<glyph name="xi" format="2">
  <advance width="540"/>
  <unicode hex="03BE"/>
  <outline>
    <contour>
      <point x="130" y="0" type="line"/>
      <point x="420" y="0" type="line"/>
      <point x="420" y="-160" type="line"/>
      <point x="510" y="-160" type="line"/>
      <point x="510" y="78" type="line"/>
      <point x="140" y="78" type="line"/>
      <point x="140" y="317" type="line"/>
      <point x="485" y="317" type="line"/>
      <point x="485" y="395" type="line"/>
      <point x="160" y="395" type="line"/>
      <point x="160" y="622" type="line"/>
      <point x="505" y="622" type="line"/>
      <point x="505" y="700" type="line"/>
      <point x="150" y="700" type="line"/>
      <point x="70" y="620" type="line"/>
      <point x="70" y="405" type="line"/>
      <point x="127" y="362" type="line"/>
      <point x="50" y="302" type="line"/>
      <point x="50" y="80" type="line"/>
    </contour>
  </outline>
</glyph>
<glyph name="omicron" format="2">
  <advance width="610"/>
  <unicode hex="03BF"/>
  <anchor x="305" y="560" name="top"/>
  <anchor x="305" y="0" name="bottom"/>
  <outline>
    <contour>
      <point x="60" y="90" type="line"/>
      <point x="150" y="0" type="line"/>
      <point x="460" y="0" type="line"/>
      <point x="550" y="90" type="line"/>
      <point x="550" y="470" type="line"/>
      <point x="460" y="560" type="line"/>
      <point x="150" y="560" type="line"/>
      <point x="60" y="470" type="line"/>
    </contour>
    <contour>
      <point x="150" y="80" type="line"/>
      <point x="150" y="480" type="line"/>
      <point x="460" y="480" type="line"/>
      <point x="460" y="80" type="line"/>
    </contour>
  </outline>
</glyph>
<glyph name="pi" format="2">
  <advance width="630"/>
  <unicode hex="03C0"/>
  <anchor x="315" y="0" name="bottom"/>
  <anchor x="315" y="560" name="top"/>
  <outline>
    <contour>
      <point x="65" y="0" type="line"/>
      <point x="155" y="0" type="line"/>
      <point x="155" y="480" type="line"/>
      <point x="475" y="480" type="line"/>
      <point x="475" y="0" type="line"/>
      <point x="565" y="0" type="line"/>
      <point x="565" y="560" type="line"/>
      <point x="65" y="560" type="line"/>
    </contour>
  </outline>
</glyph>
<glyph name="rho" format="2">
  <advance width="635"/>
  <unicode hex="03C1"/>
  <anchor x="290" y="-140" name="bottom"/>
  <anchor x="310" y="560" name="top"/>
  <outline>
    <contour>
      <point x="70" y="-140" type="line"/>
      <point x="160" y="-140" type="line"/>
      <point x="160" y="0" type="line"/>
      <point x="485" y="0" type="line"/>
      <point x="575" y="90" type="line"/>
      <point x="575" y="470" type="line"/>
      <point x="485" y="560" type="line"/>
      <point x="160" y="560" type="line"/>
      <point x="70" y="470" type="line"/>
    </contour>
    <contour>
      <point x="485" y="480" type="line"/>
      <point x="485" y="80" type="line"/>
      <point x="160" y="80" type="line"/>
      <point x="160" y="480" type="line"/>
    </contour>
  </outline>
</glyph>
<glyph name="uni03C2" format="2">
  <advance width="550"/>
  <unicode hex="03C2"/>
  <anchor x="340" y="-100" name="bottom"/>
  <anchor x="340" y="560" name="top"/>
  <outline>
    <contour>
      <point x="150" y="0" type="line"/>
      <point x="430" y="0" type="line"/>
      <point x="430" y="-160" type="line"/>
      <point x="520" y="-160" type="line"/>
      <point x="520" y="80" type="line"/>
      <point x="150" y="80" type="line"/>
      <point x="150" y="480" type="line"/>
      <point x="520" y="480" type="line"/>
      <point x="520" y="560" type="line"/>
      <point x="150" y="560" type="line"/>
      <point x="60" y="470" type="line"/>
      <point x="60" y="90" type="line"/>
    </contour>
  </outline>
</glyph>
<glyph name="sigma" format="2">
  <advance width="625"/>
  <unicode hex="03C3"/>
  <anchor x="312.5" y="0" name="bottom"/>
  <anchor x="312.5" y="560" name="top"/>
  <outline>
    <contour>
      <point x="60" y="90" type="line"/>
      <point x="150" y="0" type="line"/>
      <point x="460" y="0" type="line"/>
      <point x="550" y="90" type="line"/>
      <point x="550" y="420" type="line"/>
      <point x="480" y="484" type="line"/>
      <point x="600" y="484" type="line"/>
      <point x="600" y="560" type="line"/>
      <point x="150" y="560" type="line"/>
      <point x="60" y="470" type="line"/>
    </contour>
    <contour>
      <point x="150" y="80" type="line"/>
      <point x="150" y="480" type="line"/>
      <point x="460" y="480" type="line"/>
      <point x="460" y="80" type="line"/>
    </contour>
  </outline>
</glyph>
<glyph name="tau" format="2">
  <advance width="520"/>
  <unicode hex="03C4"/>
  <anchor x="340" y="0" name="bottom"/>
  <anchor x="280" y="560" name="top"/>
  <outline>
    <contour>
      <point x="120" y="80" type="line"/>
      <point x="200" y="0" type="line"/>
      <point x="490" y="0" type="line"/>
      <point x="490" y="80" type="line"/>
      <point x="210" y="80" type="line"/>
      <point x="210" y="480" type="line"/>
      <point x="490" y="480" type="line"/>
      <point x="490" y="560" type="line"/>
      <point x="50" y="560" type="line"/>
      <point x="20" y="530" type="line"/>
      <point x="20" y="480" type="line"/>
      <point x="120" y="480" type="line"/>
    </contour>
  </outline>
</glyph>
<glyph name="upsilon" format="2">
  <advance width="640"/>
  <unicode hex="03C5"/>
  <anchor x="320" y="0" name="bottom"/>
  <anchor x="320" y="560" name="top"/>
  <outline>
    <contour>
      <point x="570" y="560" type="line"/>
      <point x="480" y="560" type="line"/>
      <point x="480" y="80" type="line"/>
      <point x="160" y="80" type="line"/>
      <point x="160" y="560" type="line"/>
      <point x="70" y="560" type="line"/>
      <point x="70" y="90" type="line"/>
      <point x="160" y="0" type="line"/>
      <point x="480" y="0" type="line"/>
      <point x="570" y="90" type="line"/>
    </contour>
  </outline>
</glyph>
<glyph name="phi" format="2">
  <advance width="800"/>
  <unicode hex="03C6"/>
  <outline>
    <contour>
      <point x="443" y="80" type="line"/>
      <point x="443" y="480" type="line"/>
      <point x="650" y="480" type="line"/>
      <point x="650" y="80" type="line"/>
    </contour>
    <contour>
      <point x="150" y="0" type="line"/>
      <point x="357" y="0" type="line"/>
      <point x="357" y="-140" type="line"/>
      <point x="443" y="-140" type="line"/>
      <point x="443" y="0" type="line"/>
      <point x="650" y="0" type="line"/>
      <point x="740" y="90" type="line"/>
      <point x="740" y="470" type="line"/>
      <point x="650" y="560" type="line"/>
      <point x="437" y="560" type="line"/>
      <point x="357" y="480" type="line"/>
      <point x="357" y="80" type="line"/>
      <point x="150" y="80" type="line"/>
      <point x="150" y="450" type="line"/>
      <point x="260" y="560" type="line"/>
      <point x="150" y="560" type="line"/>
      <point x="60" y="470" type="line"/>
      <point x="60" y="90" type="line"/>
    </contour>
  </outline>
</glyph>
<glyph name="psi" format="2">
  <advance width="780"/>
  <unicode hex="03C8"/>
  <anchor x="390" y="-140" name="bottom"/>
  <anchor x="390" y="620" name="top"/>
  <outline>
    <contour>
      <point x="140" y="0" type="line"/>
      <point x="345" y="0" type="line"/>
      <point x="345" y="-140" type="line"/>
      <point x="435" y="-140" type="line"/>
      <point x="435" y="0" type="line"/>
      <point x="640" y="0" type="line"/>
      <point x="720" y="80" type="line"/>
      <point x="720" y="560" type="line"/>
      <point x="630" y="560" type="line"/>
      <point x="630" y="80" type="line"/>
      <point x="435" y="80" type="line"/>
      <point x="435" y="620" type="line"/>
      <point x="345" y="620" type="line"/>
      <point x="345" y="80" type="line"/>
      <point x="150" y="80" type="line"/>
      <point x="150" y="560" type="line"/>
      <point x="60" y="560" type="line"/>
      <point x="60" y="80" type="line"/>
    </contour>
  </outline>
</glyph>
<glyph name="omega" format="2">
  <advance width="950"/>
  <unicode hex="03C9"/>
  <anchor x="475" y="0" name="bottom"/>
  <anchor x="475" y="560" name="top"/>
  <outline>
    <contour>
      <point x="520" y="460" type="line"/>
      <point x="430" y="460" type="line"/>
      <point x="430" y="80" type="line"/>
      <point x="160" y="80" type="line"/>
      <point x="160" y="560" type="line"/>
      <point x="70" y="560" type="line"/>
      <point x="70" y="90" type="line"/>
      <point x="160" y="0" type="line"/>
      <point x="430" y="0" type="line"/>
      <point x="475" y="78" type="line"/>
      <point x="520" y="0" type="line"/>
      <point x="790" y="0" type="line"/>
      <point x="880" y="90" type="line"/>
      <point x="880" y="560" type="line"/>
      <point x="790" y="560" type="line"/>
      <point x="790" y="80" type="line"/>
      <point x="520" y="80" type="line"/>
    </contour>
  </outline>
</glyph>
<glyph name="phi1" format="2">
  <advance width="800"/>
  <unicode hex="03D5"/>
  <outline>
    <contour>
      <point x="60" y="80" type="line"/>
      <point x="140" y="0" type="line"/>
      <point x="660" y="0" type="line"/>
      <point x="740" y="80" type="line"/>
      <point x="740" y="480" type="line"/>
      <point x="660" y="560" type="line"/>
      <point x="140" y="560" type="line"/>
      <point x="60" y="480" type="line"/>
    </contour>
    <contour>
      <point x="150" y="484" type="line"/>
      <point x="650" y="484" type="line"/>
      <point x="650" y="76" type="line"/>
      <point x="150" y="76" type="line"/>
    </contour>
    <contour>
      <point x="445" y="-140" type="line"/>
      <point x="445" y="700" type="line"/>
      <point x="355" y="700" type="line"/>
      <point x="355" y="-140" type="line"/>
    </contour>
  </outline>
</glyph>
<glyph name="uni0402" format="2">
  <advance width="790"/>
  <unicode hex="0402"/>
  <anchor x="395" y="0" name="bottom"/>
  <anchor x="395" y="700" name="top"/>
  <outline>
    <contour>
      <point x="235" y="0" type="line"/>
      <point x="325" y="0" type="line"/>
      <point x="325" y="340" type="line"/>
      <point x="645" y="340" type="line"/>
      <point x="645" y="80" type="line"/>
      <point x="505" y="80" type="line"/>
      <point x="505" y="0" type="line"/>
      <point x="645" y="0" type="line"/>
      <point x="735" y="90" type="line"/>
      <point x="735" y="330" type="line"/>
      <point x="645" y="420" type="line"/>
      <point x="325" y="420" type="line"/>
      <point x="325" y="620" type="line"/>
      <point x="620" y="620" type="line"/>
      <point x="620" y="700" type="line"/>
      <point x="20" y="700" type="line"/>
      <point x="20" y="620" type="line"/>
      <point x="235" y="620" type="line"/>
    </contour>
  </outline>
</glyph>
<glyph name="uni0409" format="2">
  <advance width="1040"/>
  <unicode hex="0409"/>
  <anchor x="520" y="0" name="bottom"/>
  <anchor x="520" y="700" name="top"/>
  <outline>
    <contour>
      <point x="610" y="700" type="line"/>
      <point x="202" y="700" type="line"/>
      <point x="20" y="0" type="line"/>
      <point x="112" y="0" type="line"/>
      <point x="271" y="620" type="line"/>
      <point x="520" y="620" type="line"/>
      <point x="520" y="0" type="line"/>
      <point x="920" y="0" type="line"/>
      <point x="1000" y="80" type="line"/>
      <point x="1000" y="470" type="line"/>
      <point x="920" y="550" type="line"/>
      <point x="610" y="550" type="line"/>
    </contour>
    <contour>
      <point x="910" y="470" type="line"/>
      <point x="910" y="80" type="line"/>
      <point x="610" y="80" type="line"/>
      <point x="610" y="470" type="line"/>
    </contour>
  </outline>
</glyph>
<glyph name="uni040A" format="2">
  <advance width="1020"/>
  <unicode hex="040A"/>
  <anchor x="510" y="700" name="top"/>
  <anchor x="510" y="0" name="bottom"/>
  <outline>
    <contour>
      <point x="60" y="0" type="line"/>
      <point x="150" y="0" type="line"/>
      <point x="150" y="320" type="line"/>
      <point x="500" y="320" type="line"/>
      <point x="500" y="0" type="line"/>
      <point x="900" y="0" type="line"/>
      <point x="980" y="80" type="line"/>
      <point x="980" y="470" type="line"/>
      <point x="900" y="550" type="line"/>
      <point x="590" y="550" type="line"/>
      <point x="590" y="700" type="line"/>
      <point x="500" y="700" type="line"/>
      <point x="500" y="400" type="line"/>
      <point x="150" y="400" type="line"/>
      <point x="150" y="700" type="line"/>
      <point x="60" y="700" type="line"/>
    </contour>
    <contour>
      <point x="890" y="470" type="line"/>
      <point x="890" y="80" type="line"/>
      <point x="590" y="80" type="line"/>
      <point x="590" y="470" type="line"/>
    </contour>
  </outline>
</glyph>
<glyph name="uni040B" format="2">
  <advance width="795"/>
  <unicode hex="040B"/>
  <anchor x="398" y="0" name="bottom"/>
  <anchor x="398" y="700" name="top"/>
  <outline>
    <contour>
      <point x="235" y="0" type="line"/>
      <point x="325" y="0" type="line"/>
      <point x="325" y="340" type="line"/>
      <point x="645" y="340" type="line"/>
      <point x="645" y="0" type="line"/>
      <point x="735" y="0" type="line"/>
      <point x="735" y="330" type="line"/>
      <point x="645" y="420" type="line"/>
      <point x="325" y="420" type="line"/>
      <point x="325" y="620" type="line"/>
      <point x="620" y="620" type="line"/>
      <point x="620" y="700" type="line"/>
      <point x="20" y="700" type="line"/>
      <point x="20" y="620" type="line"/>
      <point x="235" y="620" type="line"/>
    </contour>
  </outline>
</glyph>
<glyph name="uni0411" format="2">
  <advance width="640"/>
  <unicode hex="0411"/>
  <outline>
    <contour>
      <point x="60" y="0" type="line"/>
      <point x="520" y="0" type="line"/>
      <point x="600" y="80" type="line"/>
      <point x="600" y="340" type="line"/>
      <point x="520" y="420" type="line"/>
      <point x="150" y="420" type="line"/>
      <point x="150" y="620" type="line"/>
      <point x="560" y="620" type="line"/>
      <point x="560" y="700" type="line"/>
      <point x="60" y="700" type="line"/>
    </contour>
    <contour>
      <point x="150" y="80" type="line"/>
      <point x="150" y="340" type="line"/>
      <point x="510" y="340" type="line"/>
      <point x="510" y="80" type="line"/>
    </contour>
  </outline>
</glyph>
<glyph name="uni0414" format="2">
  <advance width="720"/>
  <unicode hex="0414"/>
  <outline>
    <contour>
      <point x="15" y="-140" type="line"/>
      <point x="105" y="-140" type="line"/>
      <point x="105" y="0" type="line"/>
      <point x="615" y="0" type="line"/>
      <point x="615" y="-140" type="line"/>
      <point x="705" y="-140" type="line"/>
      <point x="705" y="80" type="line"/>
      <point x="644" y="80" type="line"/>
      <point x="644" y="700" type="line"/>
      <point x="241" y="700" type="line"/>
      <point x="86" y="80" type="line"/>
      <point x="15" y="80" type="line"/>
    </contour>
    <contour>
      <point x="177" y="80" type="line"/>
      <point x="309" y="620" type="line"/>
      <point x="554" y="620" type="line"/>
      <point x="554" y="80" type="line"/>
    </contour>
  </outline>
</glyph>
<glyph name="uni0416" format="2">
  <advance width="890"/>
  <unicode hex="0416"/>
  <anchor x="445" y="0" name="bottom"/>
  <anchor x="445" y="700" name="top"/>
  <outline>
    <contour>
      <point x="490" y="0" type="line"/>
      <point x="490" y="315" type="line"/>
      <point x="628" y="315" type="line"/>
      <point x="786" y="0" type="line"/>
      <point x="890" y="0" type="line"/>
      <point x="700" y="370" type="line"/>
      <point x="875" y="700" type="line"/>
      <point x="772" y="700" type="line"/>
      <point x="615" y="395" type="line"/>
      <point x="490" y="395" type="line"/>
      <point x="490" y="700" type="line"/>
      <point x="400" y="700" type="line"/>
      <point x="400" y="395" type="line"/>
      <point x="275" y="395" type="line"/>
      <point x="118" y="700" type="line"/>
      <point x="15" y="700" type="line"/>
      <point x="190" y="370" type="line"/>
      <point x="0" y="0" type="line"/>
      <point x="104" y="0" type="line"/>
      <point x="262" y="315" type="line"/>
      <point x="400" y="315" type="line"/>
      <point x="400" y="0" type="line"/>
    </contour>
  </outline>
</glyph>
<glyph name="uni0417" format="2">
  <advance width="610"/>
  <unicode hex="0417"/>
  <anchor x="265" y="700" name="top"/>
  <anchor x="265" y="0" name="bottom"/>
  <outline>
    <contour>
      <point x="490" y="0" type="line"/>
      <point x="570" y="80" type="line"/>
      <point x="570" y="306" type="line"/>
      <point x="493" y="366" type="line"/>
      <point x="550" y="409" type="line"/>
      <point x="550" y="620" type="line"/>
      <point x="470" y="700" type="line"/>
      <point x="40" y="700" type="line"/>
      <point x="40" y="620" type="line"/>
      <point x="460" y="620" type="line"/>
      <point x="460" y="400" type="line"/>
      <point x="130" y="400" type="line"/>
      <point x="130" y="320" type="line"/>
      <point x="480" y="320" type="line"/>
      <point x="480" y="80" type="line"/>
      <point x="25" y="80" type="line"/>
      <point x="25" y="0" type="line"/>
    </contour>
  </outline>
</glyph>
<glyph name="uni0418" format="2">
  <advance width="680"/>
  <unicode hex="0418"/>
  <anchor x="340" y="0" name="bottom"/>
  <anchor x="340" y="700" name="top"/>
  <outline>
    <contour>
      <point x="620" y="0" type="line"/>
      <point x="620" y="700" type="line"/>
      <point x="492" y="700" type="line"/>
      <point x="150" y="93" type="line"/>
      <point x="150" y="700" type="line"/>
      <point x="60" y="700" type="line"/>
      <point x="60" y="0" type="line"/>
      <point x="188" y="0" type="line"/>
      <point x="530" y="607" type="line"/>
      <point x="530" y="0" type="line"/>
    </contour>
  </outline>
</glyph>
<glyph name="uni041B" format="2">
  <advance width="670"/>
  <unicode hex="041B"/>
  <anchor x="335" y="0" name="bottom"/>
  <anchor x="335" y="700" name="top"/>
  <outline>
    <contour>
      <point x="610" y="700" type="line"/>
      <point x="202" y="700" type="line"/>
      <point x="20" y="0" type="line"/>
      <point x="112" y="0" type="line"/>
      <point x="271" y="620" type="line"/>
      <point x="520" y="620" type="line"/>
      <point x="520" y="0" type="line"/>
      <point x="610" y="0" type="line"/>
    </contour>
  </outline>
</glyph>
<glyph name="uni0426" format="2">
  <advance width="662"/>
  <unicode hex="0426"/>
  <anchor x="331" y="700" name="bottom"/>
  <anchor x="331" y="-0" name="top"/>
  <outline>
    <contour>
      <point x="590" y="700" type="line"/>
      <point x="500" y="700" type="line"/>
      <point x="500" y="80" type="line"/>
      <point x="150" y="80" type="line"/>
      <point x="150" y="700" type="line"/>
      <point x="60" y="700" type="line"/>
      <point x="60" y="0" type="line"/>
      <point x="562" y="0" type="line"/>
      <point x="562" y="-140" type="line"/>
      <point x="652" y="-140" type="line"/>
      <point x="652" y="80" type="line"/>
      <point x="590" y="80" type="line"/>
    </contour>
  </outline>
</glyph>
<glyph name="uni0427" format="2">
  <advance width="640"/>
  <unicode hex="0427"/>
  <anchor x="400" y="0" name="bottom"/>
  <anchor x="320" y="700" name="top"/>
  <outline>
    <contour>
      <point x="580" y="700" type="line"/>
      <point x="490" y="700" type="line"/>
      <point x="490" y="220" type="line"/>
      <point x="150" y="220" type="line"/>
      <point x="150" y="700" type="line"/>
      <point x="60" y="700" type="line"/>
      <point x="60" y="230" type="line"/>
      <point x="150" y="140" type="line"/>
      <point x="490" y="140" type="line"/>
      <point x="490" y="0" type="line"/>
      <point x="580" y="0" type="line"/>
    </contour>
  </outline>
</glyph>
<glyph name="uni0428" format="2">
  <advance width="930"/>
  <unicode hex="0428"/>
  <outline>
    <contour>
      <point x="510" y="700" type="line"/>
      <point x="420" y="700" type="line"/>
      <point x="420" y="80" type="line"/>
      <point x="150" y="80" type="line"/>
      <point x="150" y="700" type="line"/>
      <point x="60" y="700" type="line"/>
      <point x="60" y="0" type="line"/>
      <point x="870" y="0" type="line"/>
      <point x="870" y="700" type="line"/>
      <point x="780" y="700" type="line"/>
      <point x="780" y="80" type="line"/>
      <point x="510" y="80" type="line"/>
    </contour>
  </outline>
</glyph>
<glyph name="uni0429" format="2">
  <advance width="942"/>
  <unicode hex="0429"/>
  <outline>
    <contour>
      <point x="510" y="700" type="line"/>
      <point x="420" y="700" type="line"/>
      <point x="420" y="80" type="line"/>
      <point x="150" y="80" type="line"/>
      <point x="150" y="700" type="line"/>
      <point x="60" y="700" type="line"/>
      <point x="60" y="0" type="line"/>
      <point x="842" y="0" type="line"/>
      <point x="842" y="-140" type="line"/>
      <point x="932" y="-140" type="line"/>
      <point x="932" y="80" type="line"/>
      <point x="870" y="80" type="line"/>
      <point x="870" y="700" type="line"/>
      <point x="780" y="700" type="line"/>
      <point x="780" y="80" type="line"/>
      <point x="510" y="80" type="line"/>
    </contour>
  </outline>
</glyph>
<glyph name="uni042A" format="2">
  <advance width="720"/>
  <unicode hex="042A"/>
  <anchor x="360" y="0" name="bottom"/>
  <anchor x="330" y="700" name="top"/>
  <outline>
    <contour>
      <point x="590" y="470" type="line"/>
      <point x="590" y="80" type="line"/>
      <point x="230" y="80" type="line"/>
      <point x="230" y="470" type="line"/>
    </contour>
    <contour>
      <point x="680" y="470" type="line"/>
      <point x="600" y="550" type="line"/>
      <point x="230" y="550" type="line"/>
      <point x="230" y="700" type="line"/>
      <point x="20" y="700" type="line"/>
      <point x="20" y="620" type="line"/>
      <point x="170" y="620" type="line"/>
      <point x="140" y="590" type="line"/>
      <point x="140" y="0" type="line"/>
      <point x="600" y="0" type="line"/>
      <point x="680" y="80" type="line"/>
    </contour>
  </outline>
</glyph>
<glyph name="uni042B" format="2">
  <advance width="850"/>
  <unicode hex="042B"/>
  <anchor x="425" y="0" name="bottom"/>
  <anchor x="425" y="700" name="top"/>
  <outline>
    <contour>
      <point x="510" y="470" type="line"/>
      <point x="510" y="80" type="line"/>
      <point x="150" y="80" type="line"/>
      <point x="150" y="470" type="line"/>
    </contour>
    <contour>
      <point x="600" y="470" type="line"/>
      <point x="520" y="550" type="line"/>
      <point x="150" y="550" type="line"/>
      <point x="150" y="700" type="line"/>
      <point x="60" y="700" type="line"/>
      <point x="60" y="0" type="line"/>
      <point x="520" y="0" type="line"/>
      <point x="600" y="80" type="line"/>
    </contour>
    <contour>
      <point x="700" y="0" type="line"/>
      <point x="790" y="0" type="line"/>
      <point x="790" y="700" type="line"/>
      <point x="700" y="700" type="line"/>
    </contour>
  </outline>
</glyph>
<glyph name="uni042C" format="2">
  <advance width="640"/>
  <unicode hex="042C"/>
  <anchor x="250" y="700" name="top"/>
  <anchor x="320" y="0" name="bottom"/>
  <outline>
    <contour>
      <point x="510" y="470" type="line"/>
      <point x="510" y="80" type="line"/>
      <point x="150" y="80" type="line"/>
      <point x="150" y="470" type="line"/>
    </contour>
    <contour>
      <point x="600" y="470" type="line"/>
      <point x="520" y="550" type="line"/>
      <point x="150" y="550" type="line"/>
      <point x="150" y="700" type="line"/>
      <point x="60" y="700" type="line"/>
      <point x="60" y="0" type="line"/>
      <point x="520" y="0" type="line"/>
      <point x="600" y="80" type="line"/>
    </contour>
  </outline>
</glyph>
<glyph name="uni042D" format="2">
  <advance width="600"/>
  <unicode hex="042D"/>
  <anchor x="260" y="-0" name="bottom"/>
  <anchor x="260" y="700" name="top"/>
  <outline>
    <contour>
      <point x="540" y="90" type="line"/>
      <point x="450" y="0" type="line"/>
      <point x="30" y="0" type="line"/>
      <point x="30" y="82" type="line"/>
      <point x="450" y="82" type="line"/>
      <point x="450" y="618" type="line"/>
      <point x="40" y="618" type="line"/>
      <point x="40" y="700" type="line"/>
      <point x="450" y="700" type="line"/>
      <point x="540" y="610" type="line"/>
    </contour>
    <contour>
      <point x="485" y="310" type="line"/>
      <point x="155" y="310" type="line"/>
      <point x="155" y="390" type="line"/>
      <point x="485" y="390" type="line"/>
    </contour>
  </outline>
</glyph>
<glyph name="uni042E" format="2">
  <advance width="950"/>
  <unicode hex="042E"/>
  <anchor x="475" y="700" name="top"/>
  <anchor x="475" y="0" name="bottom"/>
  <outline>
    <contour>
      <point x="60" y="0" type="line"/>
      <point x="150" y="0" type="line"/>
      <point x="150" y="310" type="line"/>
      <point x="360" y="310" type="line"/>
      <point x="360" y="80" type="line"/>
      <point x="440" y="0" type="line"/>
      <point x="810" y="0" type="line"/>
      <point x="890" y="80" type="line"/>
      <point x="890" y="620" type="line"/>
      <point x="810" y="700" type="line"/>
      <point x="440" y="700" type="line"/>
      <point x="360" y="620" type="line"/>
      <point x="360" y="390" type="line"/>
      <point x="150" y="390" type="line"/>
      <point x="150" y="700" type="line"/>
      <point x="60" y="700" type="line"/>
    </contour>
    <contour>
      <point x="450" y="620" type="line"/>
      <point x="800" y="620" type="line"/>
      <point x="800" y="80" type="line"/>
      <point x="450" y="80" type="line"/>
    </contour>
  </outline>
</glyph>
<glyph name="uni0431" format="2">
  <advance width="620"/>
  <unicode hex="0431"/>
  <outline>
    <contour>
      <point x="150" y="80" type="line"/>
      <point x="150" y="430" type="line"/>
      <point x="475" y="430" type="line"/>
      <point x="475" y="80" type="line"/>
    </contour>
    <contour>
      <point x="150" y="0" type="line"/>
      <point x="475" y="0" type="line"/>
      <point x="565" y="90" type="line"/>
      <point x="565" y="430" type="line"/>
      <point x="485" y="510" type="line"/>
      <point x="150" y="510" type="line"/>
      <point x="150" y="620" type="line"/>
      <point x="550" y="620" type="line"/>
      <point x="550" y="700" type="line"/>
      <point x="150" y="700" type="line"/>
      <point x="60" y="610" type="line"/>
      <point x="60" y="90" type="line"/>
    </contour>
  </outline>
</glyph>
<glyph name="uni0432" format="2">
  <advance width="610"/>
  <unicode hex="0432"/>
  <anchor x="305" y="560" name="top"/>
  <anchor x="305" y="0" name="bottom"/>
  <outline>
    <contour>
      <point x="60" y="560" type="line"/>
      <point x="460" y="560" type="line"/>
      <point x="540" y="480" type="line"/>
      <point x="540" y="335" type="line"/>
      <point x="483" y="292" type="line"/>
      <point x="560" y="232" type="line"/>
      <point x="560" y="80" type="line"/>
      <point x="480" y="0" type="line"/>
      <point x="60" y="0" type="line"/>
    </contour>
    <contour>
      <point x="150" y="326" type="line"/>
      <point x="450" y="326" type="line"/>
      <point x="450" y="480" type="line"/>
      <point x="150" y="480" type="line"/>
    </contour>
    <contour>
      <point x="150" y="80" type="line"/>
      <point x="470" y="80" type="line"/>
      <point x="470" y="246" type="line"/>
      <point x="150" y="246" type="line"/>
    </contour>
  </outline>
</glyph>
<glyph name="uni0433" format="2">
  <advance width="470"/>
  <unicode hex="0433"/>
  <anchor x="180" y="0" name="bottom"/>
  <anchor x="260" y="560" name="top"/>
  <outline>
    <contour>
      <point x="60" y="0" type="line"/>
      <point x="150" y="0" type="line"/>
      <point x="150" y="480" type="line"/>
      <point x="450" y="480" type="line"/>
      <point x="450" y="560" type="line"/>
      <point x="60" y="560" type="line"/>
    </contour>
  </outline>
</glyph>
<glyph name="uni0436" format="2">
  <advance width="950"/>
  <unicode hex="0436"/>
  <anchor x="475" y="560" name="top"/>
  <anchor x="475" y="0" name="bottom"/>
  <outline>
    <contour>
      <point x="520" y="0" type="line"/>
      <point x="520" y="251" type="line"/>
      <point x="687" y="251" type="line"/>
      <point x="838" y="0" type="line"/>
      <point x="940" y="0" type="line"/>
      <point x="755" y="302" type="line"/>
      <point x="931" y="560" type="line"/>
      <point x="828" y="560" type="line"/>
      <point x="678" y="331" type="line"/>
      <point x="520" y="331" type="line"/>
      <point x="520" y="560" type="line"/>
      <point x="430" y="560" type="line"/>
      <point x="430" y="331" type="line"/>
      <point x="272" y="331" type="line"/>
      <point x="122" y="560" type="line"/>
      <point x="19" y="560" type="line"/>
      <point x="195" y="302" type="line"/>
      <point x="10" y="0" type="line"/>
      <point x="112" y="0" type="line"/>
      <point x="263" y="251" type="line"/>
      <point x="430" y="251" type="line"/>
      <point x="430" y="0" type="line"/>
    </contour>
  </outline>
</glyph>
<glyph name="uni0437" format="2">
  <advance width="590"/>
  <unicode hex="0437"/>
  <anchor x="240" y="-0" name="bottom"/>
  <anchor x="240" y="560" name="top"/>
  <outline>
    <contour>
      <point x="535" y="80" type="line"/>
      <point x="535" y="232" type="line"/>
      <point x="458" y="292" type="line"/>
      <point x="515" y="335" type="line"/>
      <point x="515" y="480" type="line"/>
      <point x="435" y="560" type="line"/>
      <point x="45" y="560" type="line"/>
      <point x="45" y="480" type="line"/>
      <point x="425" y="480" type="line"/>
      <point x="425" y="326" type="line"/>
      <point x="85" y="326" type="line"/>
      <point x="85" y="246" type="line"/>
      <point x="445" y="246" type="line"/>
      <point x="445" y="80" type="line"/>
      <point x="35" y="80" type="line"/>
      <point x="35" y="0" type="line"/>
      <point x="455" y="0" type="line"/>
    </contour>
  </outline>
</glyph>
<glyph name="uni0438" format="2">
  <advance width="680"/>
  <unicode hex="0438"/>
  <anchor x="340" y="0" name="bottom"/>
  <anchor x="340" y="560" name="top"/>
  <outline>
    <contour>
      <point x="590" y="0" type="line"/>
      <point x="590" y="560" type="line"/>
      <point x="472" y="560" type="line"/>
      <point x="150" y="93" type="line"/>
      <point x="150" y="560" type="line"/>
      <point x="60" y="560" type="line"/>
      <point x="60" y="0" type="line"/>
      <point x="178" y="0" type="line"/>
      <point x="500" y="467" type="line"/>
      <point x="500" y="0" type="line"/>
    </contour>
  </outline>
</glyph>
<glyph name="uni043B" format="2">
  <advance width="620"/>
  <unicode hex="043B"/>
  <anchor x="310" y="0" name="bottom"/>
  <anchor x="310" y="560" name="top"/>
  <outline>
    <contour>
      <point x="560" y="560" type="line"/>
      <point x="174" y="560" type="line"/>
      <point x="87" y="82" type="line"/>
      <point x="15" y="82" type="line"/>
      <point x="15" y="0" type="line"/>
      <point x="162" y="0" type="line"/>
      <point x="249" y="482" type="line"/>
      <point x="470" y="482" type="line"/>
      <point x="470" y="0" type="line"/>
      <point x="560" y="0" type="line"/>
    </contour>
  </outline>
</glyph>
<glyph name="uni043C" format="2">
  <advance width="720"/>
  <unicode hex="043C"/>
  <anchor x="360" y="0" name="bottom"/>
  <anchor x="360" y="560" name="top"/>
  <outline>
    <contour>
      <point x="60" y="0" type="line"/>
      <point x="148" y="0" type="line"/>
      <point x="148" y="460" type="line"/>
      <point x="330" y="180" type="line"/>
      <point x="390" y="180" type="line"/>
      <point x="572" y="460" type="line"/>
      <point x="572" y="0" type="line"/>
      <point x="660" y="0" type="line"/>
      <point x="660" y="560" type="line"/>
      <point x="546" y="560" type="line"/>
      <point x="360" y="274" type="line"/>
      <point x="174" y="560" type="line"/>
      <point x="60" y="560" type="line"/>
    </contour>
  </outline>
</glyph>
<glyph name="uni043D" format="2">
  <advance width="620"/>
  <unicode hex="043D"/>
  <anchor x="310" y="0" name="bottom"/>
  <anchor x="310" y="560" name="top"/>
  <outline>
    <contour>
      <point x="60" y="0" type="line"/>
      <point x="150" y="0" type="line"/>
      <point x="150" y="240" type="line"/>
      <point x="470" y="240" type="line"/>
      <point x="470" y="0" type="line"/>
      <point x="560" y="0" type="line"/>
      <point x="560" y="560" type="line"/>
      <point x="470" y="560" type="line"/>
      <point x="470" y="320" type="line"/>
      <point x="150" y="320" type="line"/>
      <point x="150" y="560" type="line"/>
      <point x="60" y="560" type="line"/>
    </contour>
  </outline>
</glyph>
<glyph name="uni0442" format="2">
  <advance width="560"/>
  <unicode hex="0442"/>
  <anchor x="280" y="-0" name="bottom"/>
  <anchor x="280" y="560" name="top"/>
  <outline>
    <contour>
      <point x="325" y="0" type="line"/>
      <point x="235" y="0" type="line"/>
      <point x="235" y="480" type="line"/>
      <point x="20" y="480" type="line"/>
      <point x="20" y="560" type="line"/>
      <point x="540" y="560" type="line"/>
      <point x="540" y="480" type="line"/>
      <point x="325" y="480" type="line"/>
    </contour>
  </outline>
</glyph>
<glyph name="uni0447" format="2">
  <advance width="615"/>
  <unicode hex="0447"/>
  <anchor x="375" y="-0" name="bottom"/>
  <anchor x="305" y="560" name="top"/>
  <outline>
    <contour>
      <point x="555" y="560" type="line"/>
      <point x="465" y="560" type="line"/>
      <point x="465" y="220" type="line"/>
      <point x="145" y="220" type="line"/>
      <point x="145" y="560" type="line"/>
      <point x="55" y="560" type="line"/>
      <point x="55" y="230" type="line"/>
      <point x="145" y="140" type="line"/>
      <point x="465" y="140" type="line"/>
      <point x="465" y="0" type="line"/>
      <point x="555" y="0" type="line"/>
    </contour>
  </outline>
</glyph>
<glyph name="uni0448" format="2">
  <advance width="890"/>
  <unicode hex="0448"/>
  <outline>
    <contour>
      <point x="490" y="560" type="line"/>
      <point x="400" y="560" type="line"/>
      <point x="400" y="80" type="line"/>
      <point x="150" y="80" type="line"/>
      <point x="150" y="560" type="line"/>
      <point x="60" y="560" type="line"/>
      <point x="60" y="0" type="line"/>
      <point x="830" y="0" type="line"/>
      <point x="830" y="560" type="line"/>
      <point x="740" y="560" type="line"/>
      <point x="740" y="80" type="line"/>
      <point x="490" y="80" type="line"/>
    </contour>
  </outline>
</glyph>
<glyph name="uni0449" format="2">
  <advance width="902"/>
  <unicode hex="0449"/>
  <outline>
    <contour>
      <point x="490" y="560" type="line"/>
      <point x="400" y="560" type="line"/>
      <point x="400" y="80" type="line"/>
      <point x="150" y="80" type="line"/>
      <point x="150" y="560" type="line"/>
      <point x="60" y="560" type="line"/>
      <point x="60" y="0" type="line"/>
      <point x="802" y="0" type="line"/>
      <point x="802" y="-140" type="line"/>
      <point x="892" y="-140" type="line"/>
      <point x="892" y="80" type="line"/>
      <point x="830" y="80" type="line"/>
      <point x="830" y="560" type="line"/>
      <point x="740" y="560" type="line"/>
      <point x="740" y="80" type="line"/>
      <point x="490" y="80" type="line"/>
    </contour>
  </outline>
</glyph>
<glyph name="uni044B" format="2">
  <advance width="830"/>
  <unicode hex="044B"/>
  <anchor x="415" y="0" name="bottom"/>
  <anchor x="415" y="560" name="top"/>
  <outline>
    <contour>
      <point x="60" y="0" type="line"/>
      <point x="475" y="0" type="line"/>
      <point x="565" y="90" type="line"/>
      <point x="565" y="330" type="line"/>
      <point x="475" y="420" type="line"/>
      <point x="150" y="420" type="line"/>
      <point x="150" y="560" type="line"/>
      <point x="60" y="560" type="line"/>
    </contour>
    <contour>
      <point x="150" y="80" type="line"/>
      <point x="150" y="340" type="line"/>
      <point x="475" y="340" type="line"/>
      <point x="475" y="80" type="line"/>
    </contour>
    <contour>
      <point x="680" y="0" type="line"/>
      <point x="770" y="0" type="line"/>
      <point x="770" y="560" type="line"/>
      <point x="680" y="560" type="line"/>
    </contour>
  </outline>
</glyph>
<glyph name="uni044C" format="2">
  <advance width="610"/>
  <unicode hex="044C"/>
  <anchor x="220" y="0" name="bottom"/>
  <anchor x="220" y="560" name="top"/>
  <outline>
    <contour>
      <point x="60" y="0" type="line"/>
      <point x="475" y="0" type="line"/>
      <point x="565" y="90" type="line"/>
      <point x="565" y="330" type="line"/>
      <point x="475" y="420" type="line"/>
      <point x="150" y="420" type="line"/>
      <point x="150" y="560" type="line"/>
      <point x="60" y="560" type="line"/>
    </contour>
    <contour>
      <point x="150" y="80" type="line"/>
      <point x="150" y="340" type="line"/>
      <point x="475" y="340" type="line"/>
      <point x="475" y="80" type="line"/>
    </contour>
  </outline>
</glyph>
<glyph name="uni044F" format="2">
  <advance width="655"/>
  <unicode hex="044F"/>
  <anchor x="320" y="0" name="bottom"/>
  <anchor x="335" y="560" name="top"/>
  <outline>
    <contour>
      <point x="145" y="260" type="line"/>
      <point x="145" y="480" type="line"/>
      <point x="505" y="480" type="line"/>
      <point x="505" y="260" type="line"/>
    </contour>
    <contour>
      <point x="55" y="250" type="line"/>
      <point x="108" y="197" type="line"/>
      <point x="5" y="0" type="line"/>
      <point x="102" y="0" type="line"/>
      <point x="191" y="180" type="line"/>
      <point x="505" y="180" type="line"/>
      <point x="505" y="0" type="line"/>
      <point x="595" y="0" type="line"/>
      <point x="595" y="560" type="line"/>
      <point x="135" y="560" type="line"/>
      <point x="55" y="480" type="line"/>
    </contour>
  </outline>
</glyph>
<glyph name="uni0452" format="2">
  <advance width="620"/>
  <unicode hex="0452"/>
  <anchor x="310" y="-160" name="bottom"/>
  <anchor x="300" y="700" name="top"/>
  <outline>
    <contour>
      <point x="60" y="0" type="line"/>
      <point x="150" y="0" type="line"/>
      <point x="150" y="400" type="line"/>
      <point x="470" y="400" type="line"/>
      <point x="470" y="-80" type="line"/>
      <point x="370" y="-80" type="line"/>
      <point x="370" y="-160" type="line"/>
      <point x="476" y="-160" type="line"/>
      <point x="560" y="-76" type="line"/>
      <point x="560" y="390" type="line"/>
      <point x="470" y="480" type="line"/>
      <point x="150" y="480" type="line"/>
      <point x="150" y="550" type="line"/>
      <point x="425" y="550" type="line"/>
      <point x="425" y="620" type="line"/>
      <point x="150" y="620" type="line"/>
      <point x="150" y="700" type="line"/>
      <point x="60" y="700" type="line"/>
    </contour>
  </outline>
</glyph>
<glyph name="uni0459" format="2">
  <advance width="980"/>
  <unicode hex="0459"/>
  <anchor x="490" y="-0" name="bottom"/>
  <anchor x="490" y="560" name="top"/>
  <outline>
    <contour>
      <point x="15" y="0" type="line"/>
      <point x="162" y="0" type="line"/>
      <point x="249" y="482" type="line"/>
      <point x="470" y="482" type="line"/>
      <point x="470" y="0" type="line"/>
      <point x="845" y="0" type="line"/>
      <point x="935" y="90" type="line"/>
      <point x="935" y="330" type="line"/>
      <point x="845" y="420" type="line"/>
      <point x="560" y="420" type="line"/>
      <point x="560" y="560" type="line"/>
      <point x="174" y="560" type="line"/>
      <point x="87" y="82" type="line"/>
      <point x="15" y="82" type="line"/>
    </contour>
    <contour>
      <point x="560" y="80" type="line"/>
      <point x="560" y="340" type="line"/>
      <point x="845" y="340" type="line"/>
      <point x="845" y="80" type="line"/>
    </contour>
  </outline>
</glyph>
<glyph name="uni045A" format="2">
  <advance width="980"/>
  <unicode hex="045A"/>
  <anchor x="490" y="-0" name="bottom"/>
  <anchor x="490" y="560" name="top"/>
  <outline>
    <contour>
      <point x="470" y="0" type="line"/>
      <point x="845" y="0" type="line"/>
      <point x="935" y="90" type="line"/>
      <point x="935" y="330" type="line"/>
      <point x="845" y="420" type="line"/>
      <point x="560" y="420" type="line"/>
      <point x="560" y="560" type="line"/>
      <point x="470" y="560" type="line"/>
      <point x="470" y="320" type="line"/>
      <point x="150" y="320" type="line"/>
      <point x="150" y="560" type="line"/>
      <point x="60" y="560" type="line"/>
      <point x="60" y="0" type="line"/>
      <point x="150" y="0" type="line"/>
      <point x="150" y="240" type="line"/>
      <point x="470" y="240" type="line"/>
    </contour>
    <contour>
      <point x="560" y="80" type="line"/>
      <point x="560" y="340" type="line"/>
      <point x="845" y="340" type="line"/>
      <point x="845" y="80" type="line"/>
    </contour>
  </outline>
</glyph>
<glyph name="uni045F" format="2">
  <advance width="630"/>
  <unicode hex="045F"/>
  <anchor x="315" y="560" name="bottom"/>
  <anchor x="315" y="0" name="top"/>
  <outline>
    <contour>
      <point x="565" y="560" type="line"/>
      <point x="475" y="560" type="line"/>
      <point x="475" y="80" type="line"/>
      <point x="155" y="80" type="line"/>
      <point x="155" y="560" type="line"/>
      <point x="65" y="560" type="line"/>
      <point x="65" y="0" type="line"/>
      <point x="270" y="0" type="line"/>
      <point x="270" y="-140" type="line"/>
      <point x="360" y="-140" type="line"/>
      <point x="360" y="0" type="line"/>
      <point x="565" y="0" type="line"/>
    </contour>
  </outline>
</glyph>
<glyph name="uni0462" format="2">
  <advance width="645"/>
  <unicode hex="0462"/>
  <anchor x="240" y="700" name="top"/>
  <anchor x="310" y="0" name="bottom"/>
  <outline>
    <contour>
      <point x="60" y="0" type="line"/>
      <point x="500" y="0" type="line"/>
      <point x="590" y="90" type="line"/>
      <point x="590" y="390" type="line"/>
      <point x="500" y="480" type="line"/>
      <point x="150" y="480" type="line"/>
      <point x="150" y="560" type="line"/>
      <point x="425" y="560" type="line"/>
      <point x="425" y="630" type="line"/>
      <point x="150" y="630" type="line"/>
      <point x="150" y="700" type="line"/>
      <point x="60" y="700" type="line"/>
    </contour>
    <contour>
      <point x="150" y="80" type="line"/>
      <point x="150" y="400" type="line"/>
      <point x="500" y="400" type="line"/>
      <point x="500" y="80" type="line"/>
    </contour>
  </outline>
</glyph>
<glyph name="uni0463" format="2">
  <advance width="615"/>
  <unicode hex="0463"/>
  <anchor x="240" y="700" name="top"/>
  <anchor x="310" y="0" name="bottom"/>
  <outline>
    <contour>
      <point x="60" y="0" type="line"/>
      <point x="470" y="0" type="line"/>
      <point x="560" y="90" type="line"/>
      <point x="560" y="380" type="line"/>
      <point x="470" y="470" type="line"/>
      <point x="150" y="470" type="line"/>
      <point x="150" y="550" type="line"/>
      <point x="405" y="550" type="line"/>
      <point x="405" y="620" type="line"/>
      <point x="150" y="620" type="line"/>
      <point x="150" y="700" type="line"/>
      <point x="60" y="700" type="line"/>
    </contour>
    <contour>
      <point x="150" y="80" type="line"/>
      <point x="150" y="390" type="line"/>
      <point x="470" y="390" type="line"/>
      <point x="470" y="80" type="line"/>
    </contour>
  </outline>
</glyph>
<glyph name="uni046A" format="2">
  <advance width="810"/>
  <unicode hex="046A"/>
  <anchor x="405" y="0" name="bottom"/>
  <anchor x="405" y="700" name="top"/>
  <outline>
    <contour>
      <point x="450" y="0" type="line"/>
      <point x="450" y="315" type="line"/>
      <point x="548" y="315" type="line"/>
      <point x="706" y="0" type="line"/>
      <point x="810" y="0" type="line"/>
      <point x="620" y="370" type="line"/>
      <point x="795" y="700" type="line"/>
      <point x="15" y="700" type="line"/>
      <point x="190" y="370" type="line"/>
      <point x="0" y="0" type="line"/>
      <point x="104" y="0" type="line"/>
      <point x="262" y="315" type="line"/>
      <point x="360" y="315" type="line"/>
      <point x="360" y="0" type="line"/>
    </contour>
    <contour>
      <point x="275" y="395" type="line"/>
      <point x="159" y="620" type="line"/>
      <point x="651" y="620" type="line"/>
      <point x="535" y="395" type="line"/>
    </contour>
  </outline>
</glyph>
<glyph name="uni046B" format="2">
  <advance width="810"/>
  <unicode hex="046B"/>
  <anchor x="405" y="0" name="bottom"/>
  <anchor x="405" y="560" name="top"/>
  <outline>
    <contour>
      <point x="450" y="0" type="line"/>
      <point x="450" y="211" type="line"/>
      <point x="547" y="211" type="line"/>
      <point x="698" y="0" type="line"/>
      <point x="800" y="0" type="line"/>
      <point x="615" y="262" type="line"/>
      <point x="791" y="560" type="line"/>
      <point x="19" y="560" type="line"/>
      <point x="195" y="262" type="line"/>
      <point x="10" y="0" type="line"/>
      <point x="112" y="0" type="line"/>
      <point x="263" y="211" type="line"/>
      <point x="360" y="211" type="line"/>
      <point x="360" y="0" type="line"/>
    </contour>
    <contour>
      <point x="272" y="291" type="line"/>
      <point x="167" y="480" type="line"/>
      <point x="643" y="480" type="line"/>
      <point x="538" y="291" type="line"/>
    </contour>
  </outline>
</glyph>
<glyph name="uni0474" format="2">
  <advance width="740"/>
  <unicode hex="0474"/>
  <anchor x="370" y="700" name="top"/>
  <anchor x="370" y="0" name="bottom"/>
  <outline>
    <contour>
      <point x="202" y="0" type="line"/>
      <point x="448" y="0" type="line"/>
      <point x="610" y="622" type="line"/>
      <point x="720" y="622" type="line"/>
      <point x="720" y="700" type="line"/>
      <point x="538" y="700" type="line"/>
      <point x="379" y="80" type="line"/>
      <point x="271" y="80" type="line"/>
      <point x="112" y="700" type="line"/>
      <point x="20" y="700" type="line"/>
    </contour>
  </outline>
</glyph>
<glyph name="uni0475" format="2">
  <advance width="680"/>
  <unicode hex="0475"/>
  <anchor x="340" y="0" name="bottom"/>
  <anchor x="340" y="560" name="top"/>
  <outline>
    <contour>
      <point x="169" y="0" type="line"/>
      <point x="411" y="0" type="line"/>
      <point x="547" y="482" type="line"/>
      <point x="670" y="482" type="line"/>
      <point x="670" y="560" type="line"/>
      <point x="478" y="560" type="line"/>
      <point x="345" y="80" type="line"/>
      <point x="235" y="80" type="line"/>
      <point x="102" y="560" type="line"/>
      <point x="11" y="560" type="line"/>
    </contour>
  </outline>
</glyph>
<glyph name="uni0490" format="2">
  <advance width="510"/>
  <unicode hex="0490"/>
  <anchor x="255" y="0" name="bottom"/>
  <anchor x="255" y="780" name="top"/>
  <outline>
    <contour>
      <point x="60" y="0" type="line"/>
      <point x="150" y="0" type="line"/>
      <point x="150" y="620" type="line"/>
      <point x="500" y="620" type="line"/>
      <point x="500" y="800" type="line"/>
      <point x="410" y="800" type="line"/>
      <point x="410" y="700" type="line"/>
      <point x="60" y="700" type="line"/>
    </contour>
  </outline>
</glyph>
<glyph name="uni0491" format="2">
  <advance width="470"/>
  <unicode hex="0491"/>
  <anchor x="180" y="0" name="bottom"/>
  <anchor x="341" y="640" name="top"/>
  <outline>
    <contour>
      <point x="60" y="0" type="line"/>
      <point x="150" y="0" type="line"/>
      <point x="150" y="480" type="line"/>
      <point x="450" y="480" type="line"/>
      <point x="450" y="680" type="line"/>
      <point x="370" y="680" type="line"/>
      <point x="370" y="560" type="line"/>
      <point x="60" y="560" type="line"/>
    </contour>
  </outline>
</glyph>
<glyph name="uni0492" format="2">
  <advance width="510"/>
  <unicode hex="0492"/>
  <anchor x="255" y="0" name="bottom"/>
  <anchor x="255" y="700" name="top"/>
  <outline>
    <component base="Gamma"/>
    <contour>
      <point x="80" y="304" type="line"/>
      <point x="380" y="304" type="line"/>
      <point x="380" y="380" type="line"/>
      <point x="80" y="380" type="line"/>
    </contour>
  </outline>
</glyph>
<glyph name="uni0494" format="2">
  <advance width="645"/>
  <unicode hex="0494"/>
  <anchor x="322.5" y="0" name="bottom"/>
  <anchor x="322.5" y="700" name="top"/>
  <outline>
    <contour>
      <point x="60" y="0" type="line"/>
      <point x="150" y="0" type="line"/>
      <point x="150" y="340" type="line"/>
      <point x="500" y="340" type="line"/>
      <point x="500" y="-60" type="line"/>
      <point x="290" y="-60" type="line"/>
      <point x="290" y="-140" type="line"/>
      <point x="500" y="-140" type="line"/>
      <point x="590" y="-50" type="line"/>
      <point x="590" y="330" type="line"/>
      <point x="500" y="420" type="line"/>
      <point x="150" y="420" type="line"/>
      <point x="150" y="620" type="line"/>
      <point x="575" y="620" type="line"/>
      <point x="575" y="700" type="line"/>
      <point x="60" y="700" type="line"/>
    </contour>
  </outline>
</glyph>
<glyph name="uni0495" format="2">
  <advance width="615"/>
  <unicode hex="0495"/>
  <anchor x="307.5" y="560" name="top"/>
  <anchor x="307.5" y="-140" name="bottom"/>
  <outline>
    <contour>
      <point x="60" y="0" type="line"/>
      <point x="150" y="0" type="line"/>
      <point x="150" y="250" type="line"/>
      <point x="470" y="250" type="line"/>
      <point x="470" y="-60" type="line"/>
      <point x="270" y="-60" type="line"/>
      <point x="270" y="-140" type="line"/>
      <point x="470" y="-140" type="line"/>
      <point x="560" y="-50" type="line"/>
      <point x="560" y="240" type="line"/>
      <point x="470" y="330" type="line"/>
      <point x="150" y="330" type="line"/>
      <point x="150" y="480" type="line"/>
      <point x="545" y="480" type="line"/>
      <point x="545" y="560" type="line"/>
      <point x="60" y="560" type="line"/>
    </contour>
  </outline>
</glyph>
